%TF.GenerationSoftware,KiCad,Pcbnew,(5.1.10)-1*%
%TF.CreationDate,2022-03-02T00:29:21+08:00*%
%TF.ProjectId,r71ram_uno,72373172-616d-45f7-956e-6f2e6b696361,rev?*%
%TF.SameCoordinates,Original*%
%TF.FileFunction,Legend,Top*%
%TF.FilePolarity,Positive*%
%FSLAX46Y46*%
G04 Gerber Fmt 4.6, Leading zero omitted, Abs format (unit mm)*
G04 Created by KiCad (PCBNEW (5.1.10)-1) date 2022-03-02 00:29:21*
%MOMM*%
%LPD*%
G01*
G04 APERTURE LIST*
%ADD10C,0.150000*%
%ADD11C,0.200000*%
%ADD12C,0.120000*%
G04 APERTURE END LIST*
D10*
X126007523Y-116131666D02*
X126483714Y-116131666D01*
X125912285Y-116417380D02*
X126245619Y-115417380D01*
X126578952Y-116417380D01*
X126912285Y-116417380D02*
X126912285Y-115417380D01*
X127150380Y-115417380D01*
X127293238Y-115465000D01*
X127388476Y-115560238D01*
X127436095Y-115655476D01*
X127483714Y-115845952D01*
X127483714Y-115988809D01*
X127436095Y-116179285D01*
X127388476Y-116274523D01*
X127293238Y-116369761D01*
X127150380Y-116417380D01*
X126912285Y-116417380D01*
X128436095Y-116417380D02*
X127864666Y-116417380D01*
X128150380Y-116417380D02*
X128150380Y-115417380D01*
X128055142Y-115560238D01*
X127959904Y-115655476D01*
X127864666Y-115703095D01*
X129055142Y-115417380D02*
X129150380Y-115417380D01*
X129245619Y-115465000D01*
X129293238Y-115512619D01*
X129340857Y-115607857D01*
X129388476Y-115798333D01*
X129388476Y-116036428D01*
X129340857Y-116226904D01*
X129293238Y-116322142D01*
X129245619Y-116369761D01*
X129150380Y-116417380D01*
X129055142Y-116417380D01*
X128959904Y-116369761D01*
X128912285Y-116322142D01*
X128864666Y-116226904D01*
X128817047Y-116036428D01*
X128817047Y-115798333D01*
X128864666Y-115607857D01*
X128912285Y-115512619D01*
X128959904Y-115465000D01*
X129055142Y-115417380D01*
X125983714Y-113631666D02*
X126459904Y-113631666D01*
X125888476Y-113917380D02*
X126221809Y-112917380D01*
X126555142Y-113917380D01*
X126888476Y-113917380D02*
X126888476Y-112917380D01*
X127126571Y-112917380D01*
X127269428Y-112965000D01*
X127364666Y-113060238D01*
X127412285Y-113155476D01*
X127459904Y-113345952D01*
X127459904Y-113488809D01*
X127412285Y-113679285D01*
X127364666Y-113774523D01*
X127269428Y-113869761D01*
X127126571Y-113917380D01*
X126888476Y-113917380D01*
X127936095Y-113917380D02*
X128126571Y-113917380D01*
X128221809Y-113869761D01*
X128269428Y-113822142D01*
X128364666Y-113679285D01*
X128412285Y-113488809D01*
X128412285Y-113107857D01*
X128364666Y-113012619D01*
X128317047Y-112965000D01*
X128221809Y-112917380D01*
X128031333Y-112917380D01*
X127936095Y-112965000D01*
X127888476Y-113012619D01*
X127840857Y-113107857D01*
X127840857Y-113345952D01*
X127888476Y-113441190D01*
X127936095Y-113488809D01*
X128031333Y-113536428D01*
X128221809Y-113536428D01*
X128317047Y-113488809D01*
X128364666Y-113441190D01*
X128412285Y-113345952D01*
X125983714Y-111031666D02*
X126459904Y-111031666D01*
X125888476Y-111317380D02*
X126221809Y-110317380D01*
X126555142Y-111317380D01*
X126888476Y-111317380D02*
X126888476Y-110317380D01*
X127126571Y-110317380D01*
X127269428Y-110365000D01*
X127364666Y-110460238D01*
X127412285Y-110555476D01*
X127459904Y-110745952D01*
X127459904Y-110888809D01*
X127412285Y-111079285D01*
X127364666Y-111174523D01*
X127269428Y-111269761D01*
X127126571Y-111317380D01*
X126888476Y-111317380D01*
X128031333Y-110745952D02*
X127936095Y-110698333D01*
X127888476Y-110650714D01*
X127840857Y-110555476D01*
X127840857Y-110507857D01*
X127888476Y-110412619D01*
X127936095Y-110365000D01*
X128031333Y-110317380D01*
X128221809Y-110317380D01*
X128317047Y-110365000D01*
X128364666Y-110412619D01*
X128412285Y-110507857D01*
X128412285Y-110555476D01*
X128364666Y-110650714D01*
X128317047Y-110698333D01*
X128221809Y-110745952D01*
X128031333Y-110745952D01*
X127936095Y-110793571D01*
X127888476Y-110841190D01*
X127840857Y-110936428D01*
X127840857Y-111126904D01*
X127888476Y-111222142D01*
X127936095Y-111269761D01*
X128031333Y-111317380D01*
X128221809Y-111317380D01*
X128317047Y-111269761D01*
X128364666Y-111222142D01*
X128412285Y-111126904D01*
X128412285Y-110936428D01*
X128364666Y-110841190D01*
X128317047Y-110793571D01*
X128221809Y-110745952D01*
X125983714Y-108431666D02*
X126459904Y-108431666D01*
X125888476Y-108717380D02*
X126221809Y-107717380D01*
X126555142Y-108717380D01*
X126888476Y-108717380D02*
X126888476Y-107717380D01*
X127126571Y-107717380D01*
X127269428Y-107765000D01*
X127364666Y-107860238D01*
X127412285Y-107955476D01*
X127459904Y-108145952D01*
X127459904Y-108288809D01*
X127412285Y-108479285D01*
X127364666Y-108574523D01*
X127269428Y-108669761D01*
X127126571Y-108717380D01*
X126888476Y-108717380D01*
X127793238Y-107717380D02*
X128459904Y-107717380D01*
X128031333Y-108717380D01*
X125983714Y-103431666D02*
X126459904Y-103431666D01*
X125888476Y-103717380D02*
X126221809Y-102717380D01*
X126555142Y-103717380D01*
X126888476Y-103717380D02*
X126888476Y-102717380D01*
X127126571Y-102717380D01*
X127269428Y-102765000D01*
X127364666Y-102860238D01*
X127412285Y-102955476D01*
X127459904Y-103145952D01*
X127459904Y-103288809D01*
X127412285Y-103479285D01*
X127364666Y-103574523D01*
X127269428Y-103669761D01*
X127126571Y-103717380D01*
X126888476Y-103717380D01*
X128364666Y-102717380D02*
X127888476Y-102717380D01*
X127840857Y-103193571D01*
X127888476Y-103145952D01*
X127983714Y-103098333D01*
X128221809Y-103098333D01*
X128317047Y-103145952D01*
X128364666Y-103193571D01*
X128412285Y-103288809D01*
X128412285Y-103526904D01*
X128364666Y-103622142D01*
X128317047Y-103669761D01*
X128221809Y-103717380D01*
X127983714Y-103717380D01*
X127888476Y-103669761D01*
X127840857Y-103622142D01*
X125983714Y-100931666D02*
X126459904Y-100931666D01*
X125888476Y-101217380D02*
X126221809Y-100217380D01*
X126555142Y-101217380D01*
X126888476Y-101217380D02*
X126888476Y-100217380D01*
X127126571Y-100217380D01*
X127269428Y-100265000D01*
X127364666Y-100360238D01*
X127412285Y-100455476D01*
X127459904Y-100645952D01*
X127459904Y-100788809D01*
X127412285Y-100979285D01*
X127364666Y-101074523D01*
X127269428Y-101169761D01*
X127126571Y-101217380D01*
X126888476Y-101217380D01*
X128317047Y-100550714D02*
X128317047Y-101217380D01*
X128078952Y-100169761D02*
X127840857Y-100884047D01*
X128459904Y-100884047D01*
X125983714Y-105931666D02*
X126459904Y-105931666D01*
X125888476Y-106217380D02*
X126221809Y-105217380D01*
X126555142Y-106217380D01*
X126888476Y-106217380D02*
X126888476Y-105217380D01*
X127126571Y-105217380D01*
X127269428Y-105265000D01*
X127364666Y-105360238D01*
X127412285Y-105455476D01*
X127459904Y-105645952D01*
X127459904Y-105788809D01*
X127412285Y-105979285D01*
X127364666Y-106074523D01*
X127269428Y-106169761D01*
X127126571Y-106217380D01*
X126888476Y-106217380D01*
X128317047Y-105217380D02*
X128126571Y-105217380D01*
X128031333Y-105265000D01*
X127983714Y-105312619D01*
X127888476Y-105455476D01*
X127840857Y-105645952D01*
X127840857Y-106026904D01*
X127888476Y-106122142D01*
X127936095Y-106169761D01*
X128031333Y-106217380D01*
X128221809Y-106217380D01*
X128317047Y-106169761D01*
X128364666Y-106122142D01*
X128412285Y-106026904D01*
X128412285Y-105788809D01*
X128364666Y-105693571D01*
X128317047Y-105645952D01*
X128221809Y-105598333D01*
X128031333Y-105598333D01*
X127936095Y-105645952D01*
X127888476Y-105693571D01*
X127840857Y-105788809D01*
X125983714Y-98331666D02*
X126459904Y-98331666D01*
X125888476Y-98617380D02*
X126221809Y-97617380D01*
X126555142Y-98617380D01*
X126888476Y-98617380D02*
X126888476Y-97617380D01*
X127126571Y-97617380D01*
X127269428Y-97665000D01*
X127364666Y-97760238D01*
X127412285Y-97855476D01*
X127459904Y-98045952D01*
X127459904Y-98188809D01*
X127412285Y-98379285D01*
X127364666Y-98474523D01*
X127269428Y-98569761D01*
X127126571Y-98617380D01*
X126888476Y-98617380D01*
X127793238Y-97617380D02*
X128412285Y-97617380D01*
X128078952Y-97998333D01*
X128221809Y-97998333D01*
X128317047Y-98045952D01*
X128364666Y-98093571D01*
X128412285Y-98188809D01*
X128412285Y-98426904D01*
X128364666Y-98522142D01*
X128317047Y-98569761D01*
X128221809Y-98617380D01*
X127936095Y-98617380D01*
X127840857Y-98569761D01*
X127793238Y-98522142D01*
X125983714Y-95731666D02*
X126459904Y-95731666D01*
X125888476Y-96017380D02*
X126221809Y-95017380D01*
X126555142Y-96017380D01*
X126888476Y-96017380D02*
X126888476Y-95017380D01*
X127126571Y-95017380D01*
X127269428Y-95065000D01*
X127364666Y-95160238D01*
X127412285Y-95255476D01*
X127459904Y-95445952D01*
X127459904Y-95588809D01*
X127412285Y-95779285D01*
X127364666Y-95874523D01*
X127269428Y-95969761D01*
X127126571Y-96017380D01*
X126888476Y-96017380D01*
X127840857Y-95112619D02*
X127888476Y-95065000D01*
X127983714Y-95017380D01*
X128221809Y-95017380D01*
X128317047Y-95065000D01*
X128364666Y-95112619D01*
X128412285Y-95207857D01*
X128412285Y-95303095D01*
X128364666Y-95445952D01*
X127793238Y-96017380D01*
X128412285Y-96017380D01*
X125983714Y-93231666D02*
X126459904Y-93231666D01*
X125888476Y-93517380D02*
X126221809Y-92517380D01*
X126555142Y-93517380D01*
X126888476Y-93517380D02*
X126888476Y-92517380D01*
X127126571Y-92517380D01*
X127269428Y-92565000D01*
X127364666Y-92660238D01*
X127412285Y-92755476D01*
X127459904Y-92945952D01*
X127459904Y-93088809D01*
X127412285Y-93279285D01*
X127364666Y-93374523D01*
X127269428Y-93469761D01*
X127126571Y-93517380D01*
X126888476Y-93517380D01*
X128412285Y-93517380D02*
X127840857Y-93517380D01*
X128126571Y-93517380D02*
X128126571Y-92517380D01*
X128031333Y-92660238D01*
X127936095Y-92755476D01*
X127840857Y-92803095D01*
X125983714Y-90731666D02*
X126459904Y-90731666D01*
X125888476Y-91017380D02*
X126221809Y-90017380D01*
X126555142Y-91017380D01*
X126888476Y-91017380D02*
X126888476Y-90017380D01*
X127126571Y-90017380D01*
X127269428Y-90065000D01*
X127364666Y-90160238D01*
X127412285Y-90255476D01*
X127459904Y-90445952D01*
X127459904Y-90588809D01*
X127412285Y-90779285D01*
X127364666Y-90874523D01*
X127269428Y-90969761D01*
X127126571Y-91017380D01*
X126888476Y-91017380D01*
X128078952Y-90017380D02*
X128174190Y-90017380D01*
X128269428Y-90065000D01*
X128317047Y-90112619D01*
X128364666Y-90207857D01*
X128412285Y-90398333D01*
X128412285Y-90636428D01*
X128364666Y-90826904D01*
X128317047Y-90922142D01*
X128269428Y-90969761D01*
X128174190Y-91017380D01*
X128078952Y-91017380D01*
X127983714Y-90969761D01*
X127936095Y-90922142D01*
X127888476Y-90826904D01*
X127840857Y-90636428D01*
X127840857Y-90398333D01*
X127888476Y-90207857D01*
X127936095Y-90112619D01*
X127983714Y-90065000D01*
X128078952Y-90017380D01*
X126407523Y-118017380D02*
X125931333Y-118017380D01*
X125883714Y-118493571D01*
X125931333Y-118445952D01*
X126026571Y-118398333D01*
X126264666Y-118398333D01*
X126359904Y-118445952D01*
X126407523Y-118493571D01*
X126455142Y-118588809D01*
X126455142Y-118826904D01*
X126407523Y-118922142D01*
X126359904Y-118969761D01*
X126264666Y-119017380D01*
X126026571Y-119017380D01*
X125931333Y-118969761D01*
X125883714Y-118922142D01*
X126740857Y-118017380D02*
X127074190Y-119017380D01*
X127407523Y-118017380D01*
X173383714Y-113893571D02*
X173717047Y-113893571D01*
X173859904Y-114417380D02*
X173383714Y-114417380D01*
X173383714Y-113417380D01*
X173859904Y-113417380D01*
X173369428Y-108417380D02*
X173607523Y-109417380D01*
X173798000Y-108703095D01*
X173988476Y-109417380D01*
X174226571Y-108417380D01*
X174607523Y-109417380D02*
X174607523Y-108417380D01*
X174988476Y-108417380D01*
X175083714Y-108465000D01*
X175131333Y-108512619D01*
X175178952Y-108607857D01*
X175178952Y-108750714D01*
X175131333Y-108845952D01*
X175083714Y-108893571D01*
X174988476Y-108941190D01*
X174607523Y-108941190D01*
X173359904Y-106817380D02*
X173359904Y-105817380D01*
X173598000Y-105817380D01*
X173740857Y-105865000D01*
X173836095Y-105960238D01*
X173883714Y-106055476D01*
X173931333Y-106245952D01*
X173931333Y-106388809D01*
X173883714Y-106579285D01*
X173836095Y-106674523D01*
X173740857Y-106769761D01*
X173598000Y-106817380D01*
X173359904Y-106817380D01*
X174264666Y-105817380D02*
X174883714Y-105817380D01*
X174550380Y-106198333D01*
X174693238Y-106198333D01*
X174788476Y-106245952D01*
X174836095Y-106293571D01*
X174883714Y-106388809D01*
X174883714Y-106626904D01*
X174836095Y-106722142D01*
X174788476Y-106769761D01*
X174693238Y-106817380D01*
X174407523Y-106817380D01*
X174312285Y-106769761D01*
X174264666Y-106722142D01*
X173359904Y-104317380D02*
X173359904Y-103317380D01*
X173598000Y-103317380D01*
X173740857Y-103365000D01*
X173836095Y-103460238D01*
X173883714Y-103555476D01*
X173931333Y-103745952D01*
X173931333Y-103888809D01*
X173883714Y-104079285D01*
X173836095Y-104174523D01*
X173740857Y-104269761D01*
X173598000Y-104317380D01*
X173359904Y-104317380D01*
X174312285Y-103412619D02*
X174359904Y-103365000D01*
X174455142Y-103317380D01*
X174693238Y-103317380D01*
X174788476Y-103365000D01*
X174836095Y-103412619D01*
X174883714Y-103507857D01*
X174883714Y-103603095D01*
X174836095Y-103745952D01*
X174264666Y-104317380D01*
X174883714Y-104317380D01*
X173359904Y-101817380D02*
X173359904Y-100817380D01*
X173598000Y-100817380D01*
X173740857Y-100865000D01*
X173836095Y-100960238D01*
X173883714Y-101055476D01*
X173931333Y-101245952D01*
X173931333Y-101388809D01*
X173883714Y-101579285D01*
X173836095Y-101674523D01*
X173740857Y-101769761D01*
X173598000Y-101817380D01*
X173359904Y-101817380D01*
X174883714Y-101817380D02*
X174312285Y-101817380D01*
X174598000Y-101817380D02*
X174598000Y-100817380D01*
X174502761Y-100960238D01*
X174407523Y-101055476D01*
X174312285Y-101103095D01*
X173359904Y-99217380D02*
X173359904Y-98217380D01*
X173598000Y-98217380D01*
X173740857Y-98265000D01*
X173836095Y-98360238D01*
X173883714Y-98455476D01*
X173931333Y-98645952D01*
X173931333Y-98788809D01*
X173883714Y-98979285D01*
X173836095Y-99074523D01*
X173740857Y-99169761D01*
X173598000Y-99217380D01*
X173359904Y-99217380D01*
X174550380Y-98217380D02*
X174645619Y-98217380D01*
X174740857Y-98265000D01*
X174788476Y-98312619D01*
X174836095Y-98407857D01*
X174883714Y-98598333D01*
X174883714Y-98836428D01*
X174836095Y-99026904D01*
X174788476Y-99122142D01*
X174740857Y-99169761D01*
X174645619Y-99217380D01*
X174550380Y-99217380D01*
X174455142Y-99169761D01*
X174407523Y-99122142D01*
X174359904Y-99026904D01*
X174312285Y-98836428D01*
X174312285Y-98598333D01*
X174359904Y-98407857D01*
X174407523Y-98312619D01*
X174455142Y-98265000D01*
X174550380Y-98217380D01*
X173326571Y-95650000D02*
X174469428Y-95650000D01*
X173469428Y-96017380D02*
X173707523Y-97017380D01*
X173898000Y-96303095D01*
X174088476Y-97017380D01*
X174326571Y-96017380D01*
X174469428Y-95650000D02*
X175469428Y-95650000D01*
X175278952Y-97017380D02*
X174945619Y-96541190D01*
X174707523Y-97017380D02*
X174707523Y-96017380D01*
X175088476Y-96017380D01*
X175183714Y-96065000D01*
X175231333Y-96112619D01*
X175278952Y-96207857D01*
X175278952Y-96350714D01*
X175231333Y-96445952D01*
X175183714Y-96493571D01*
X175088476Y-96541190D01*
X174707523Y-96541190D01*
X112136095Y-110817380D02*
X112707523Y-110817380D01*
X112421809Y-111817380D02*
X112421809Y-110817380D01*
X112945619Y-110817380D02*
X113612285Y-111817380D01*
X113612285Y-110817380D02*
X112945619Y-111817380D01*
X113993238Y-111817380D02*
X113993238Y-110817380D01*
X114231333Y-110817380D01*
X114374190Y-110865000D01*
X114469428Y-110960238D01*
X114517047Y-111055476D01*
X114564666Y-111245952D01*
X114564666Y-111388809D01*
X114517047Y-111579285D01*
X114469428Y-111674523D01*
X114374190Y-111769761D01*
X114231333Y-111817380D01*
X113993238Y-111817380D01*
X112631333Y-109317380D02*
X112298000Y-108841190D01*
X112059904Y-109317380D02*
X112059904Y-108317380D01*
X112440857Y-108317380D01*
X112536095Y-108365000D01*
X112583714Y-108412619D01*
X112631333Y-108507857D01*
X112631333Y-108650714D01*
X112583714Y-108745952D01*
X112536095Y-108793571D01*
X112440857Y-108841190D01*
X112059904Y-108841190D01*
X112964666Y-108317380D02*
X113631333Y-109317380D01*
X113631333Y-108317380D02*
X112964666Y-109317380D01*
X114012285Y-109317380D02*
X114012285Y-108317380D01*
X114250380Y-108317380D01*
X114393238Y-108365000D01*
X114488476Y-108460238D01*
X114536095Y-108555476D01*
X114583714Y-108745952D01*
X114583714Y-108888809D01*
X114536095Y-109079285D01*
X114488476Y-109174523D01*
X114393238Y-109269761D01*
X114250380Y-109317380D01*
X114012285Y-109317380D01*
X112536095Y-105865000D02*
X112440857Y-105817380D01*
X112298000Y-105817380D01*
X112155142Y-105865000D01*
X112059904Y-105960238D01*
X112012285Y-106055476D01*
X111964666Y-106245952D01*
X111964666Y-106388809D01*
X112012285Y-106579285D01*
X112059904Y-106674523D01*
X112155142Y-106769761D01*
X112298000Y-106817380D01*
X112393238Y-106817380D01*
X112536095Y-106769761D01*
X112583714Y-106722142D01*
X112583714Y-106388809D01*
X112393238Y-106388809D01*
X113012285Y-106817380D02*
X113012285Y-105817380D01*
X113583714Y-106817380D01*
X113583714Y-105817380D01*
X114059904Y-106817380D02*
X114059904Y-105817380D01*
X114298000Y-105817380D01*
X114440857Y-105865000D01*
X114536095Y-105960238D01*
X114583714Y-106055476D01*
X114631333Y-106245952D01*
X114631333Y-106388809D01*
X114583714Y-106579285D01*
X114536095Y-106674523D01*
X114440857Y-106769761D01*
X114298000Y-106817380D01*
X114059904Y-106817380D01*
X112540023Y-84051142D02*
X112492404Y-84098761D01*
X112349547Y-84146380D01*
X112254309Y-84146380D01*
X112111452Y-84098761D01*
X112016214Y-84003523D01*
X111968595Y-83908285D01*
X111920976Y-83717809D01*
X111920976Y-83574952D01*
X111968595Y-83384476D01*
X112016214Y-83289238D01*
X112111452Y-83194000D01*
X112254309Y-83146380D01*
X112349547Y-83146380D01*
X112492404Y-83194000D01*
X112540023Y-83241619D01*
X113111452Y-84146380D02*
X113016214Y-84098761D01*
X112968595Y-84003523D01*
X112968595Y-83146380D01*
X113492404Y-84146380D02*
X113492404Y-83479714D01*
X113492404Y-83146380D02*
X113444785Y-83194000D01*
X113492404Y-83241619D01*
X113540023Y-83194000D01*
X113492404Y-83146380D01*
X113492404Y-83241619D01*
X114397166Y-84098761D02*
X114301928Y-84146380D01*
X114111452Y-84146380D01*
X114016214Y-84098761D01*
X113968595Y-84051142D01*
X113920976Y-83955904D01*
X113920976Y-83670190D01*
X113968595Y-83574952D01*
X114016214Y-83527333D01*
X114111452Y-83479714D01*
X114301928Y-83479714D01*
X114397166Y-83527333D01*
X114825738Y-84146380D02*
X114825738Y-83146380D01*
X114920976Y-83765428D02*
X115206690Y-84146380D01*
X115206690Y-83479714D02*
X114825738Y-83860666D01*
X115635261Y-84051142D02*
X115682880Y-84098761D01*
X115635261Y-84146380D01*
X115587642Y-84098761D01*
X115635261Y-84051142D01*
X115635261Y-84146380D01*
X115635261Y-83527333D02*
X115682880Y-83574952D01*
X115635261Y-83622571D01*
X115587642Y-83574952D01*
X115635261Y-83527333D01*
X115635261Y-83622571D01*
X117444785Y-84146380D02*
X117111452Y-83670190D01*
X116873357Y-84146380D02*
X116873357Y-83146380D01*
X117254309Y-83146380D01*
X117349547Y-83194000D01*
X117397166Y-83241619D01*
X117444785Y-83336857D01*
X117444785Y-83479714D01*
X117397166Y-83574952D01*
X117349547Y-83622571D01*
X117254309Y-83670190D01*
X116873357Y-83670190D01*
X117873357Y-84146380D02*
X117873357Y-83146380D01*
X118111452Y-83146380D01*
X118254309Y-83194000D01*
X118349547Y-83289238D01*
X118397166Y-83384476D01*
X118444785Y-83574952D01*
X118444785Y-83717809D01*
X118397166Y-83908285D01*
X118349547Y-84003523D01*
X118254309Y-84098761D01*
X118111452Y-84146380D01*
X117873357Y-84146380D01*
X119587642Y-83098761D02*
X118730500Y-84384476D01*
X120254309Y-83622571D02*
X120397166Y-83670190D01*
X120444785Y-83717809D01*
X120492404Y-83813047D01*
X120492404Y-83955904D01*
X120444785Y-84051142D01*
X120397166Y-84098761D01*
X120301928Y-84146380D01*
X119920976Y-84146380D01*
X119920976Y-83146380D01*
X120254309Y-83146380D01*
X120349547Y-83194000D01*
X120397166Y-83241619D01*
X120444785Y-83336857D01*
X120444785Y-83432095D01*
X120397166Y-83527333D01*
X120349547Y-83574952D01*
X120254309Y-83622571D01*
X119920976Y-83622571D01*
X120873357Y-83860666D02*
X121349547Y-83860666D01*
X120778119Y-84146380D02*
X121111452Y-83146380D01*
X121444785Y-84146380D01*
X122349547Y-84051142D02*
X122301928Y-84098761D01*
X122159071Y-84146380D01*
X122063833Y-84146380D01*
X121920976Y-84098761D01*
X121825738Y-84003523D01*
X121778119Y-83908285D01*
X121730500Y-83717809D01*
X121730500Y-83574952D01*
X121778119Y-83384476D01*
X121825738Y-83289238D01*
X121920976Y-83194000D01*
X122063833Y-83146380D01*
X122159071Y-83146380D01*
X122301928Y-83194000D01*
X122349547Y-83241619D01*
X122778119Y-84146380D02*
X122778119Y-83146380D01*
X123349547Y-84146380D02*
X122920976Y-83574952D01*
X123349547Y-83146380D02*
X122778119Y-83717809D01*
X123778119Y-83146380D02*
X123778119Y-83955904D01*
X123825738Y-84051142D01*
X123873357Y-84098761D01*
X123968595Y-84146380D01*
X124159071Y-84146380D01*
X124254309Y-84098761D01*
X124301928Y-84051142D01*
X124349547Y-83955904D01*
X124349547Y-83146380D01*
X124825738Y-84146380D02*
X124825738Y-83146380D01*
X125206690Y-83146380D01*
X125301928Y-83194000D01*
X125349547Y-83241619D01*
X125397166Y-83336857D01*
X125397166Y-83479714D01*
X125349547Y-83574952D01*
X125301928Y-83622571D01*
X125206690Y-83670190D01*
X124825738Y-83670190D01*
X111968595Y-85796380D02*
X111968595Y-84796380D01*
X111968595Y-85272571D02*
X112540023Y-85272571D01*
X112540023Y-85796380D02*
X112540023Y-84796380D01*
X113159071Y-85796380D02*
X113063833Y-85748761D01*
X113016214Y-85701142D01*
X112968595Y-85605904D01*
X112968595Y-85320190D01*
X113016214Y-85224952D01*
X113063833Y-85177333D01*
X113159071Y-85129714D01*
X113301928Y-85129714D01*
X113397166Y-85177333D01*
X113444785Y-85224952D01*
X113492404Y-85320190D01*
X113492404Y-85605904D01*
X113444785Y-85701142D01*
X113397166Y-85748761D01*
X113301928Y-85796380D01*
X113159071Y-85796380D01*
X114063833Y-85796380D02*
X113968595Y-85748761D01*
X113920976Y-85653523D01*
X113920976Y-84796380D01*
X114873357Y-85796380D02*
X114873357Y-84796380D01*
X114873357Y-85748761D02*
X114778119Y-85796380D01*
X114587642Y-85796380D01*
X114492404Y-85748761D01*
X114444785Y-85701142D01*
X114397166Y-85605904D01*
X114397166Y-85320190D01*
X114444785Y-85224952D01*
X114492404Y-85177333D01*
X114587642Y-85129714D01*
X114778119Y-85129714D01*
X114873357Y-85177333D01*
X116635261Y-85796380D02*
X116063833Y-85796380D01*
X116349547Y-85796380D02*
X116349547Y-84796380D01*
X116254309Y-84939238D01*
X116159071Y-85034476D01*
X116063833Y-85082095D01*
X117016214Y-85748761D02*
X117111452Y-85796380D01*
X117301928Y-85796380D01*
X117397166Y-85748761D01*
X117444785Y-85653523D01*
X117444785Y-85605904D01*
X117397166Y-85510666D01*
X117301928Y-85463047D01*
X117159071Y-85463047D01*
X117063833Y-85415428D01*
X117016214Y-85320190D01*
X117016214Y-85272571D01*
X117063833Y-85177333D01*
X117159071Y-85129714D01*
X117301928Y-85129714D01*
X117397166Y-85177333D01*
X117873357Y-85701142D02*
X117920976Y-85748761D01*
X117873357Y-85796380D01*
X117825738Y-85748761D01*
X117873357Y-85701142D01*
X117873357Y-85796380D01*
X117873357Y-85177333D02*
X117920976Y-85224952D01*
X117873357Y-85272571D01*
X117825738Y-85224952D01*
X117873357Y-85177333D01*
X117873357Y-85272571D01*
X119682880Y-85796380D02*
X119349547Y-85320190D01*
X119111452Y-85796380D02*
X119111452Y-84796380D01*
X119492404Y-84796380D01*
X119587642Y-84844000D01*
X119635261Y-84891619D01*
X119682880Y-84986857D01*
X119682880Y-85129714D01*
X119635261Y-85224952D01*
X119587642Y-85272571D01*
X119492404Y-85320190D01*
X119111452Y-85320190D01*
X120111452Y-85272571D02*
X120444785Y-85272571D01*
X120587642Y-85796380D02*
X120111452Y-85796380D01*
X120111452Y-84796380D01*
X120587642Y-84796380D01*
X120968595Y-85748761D02*
X121111452Y-85796380D01*
X121349547Y-85796380D01*
X121444785Y-85748761D01*
X121492404Y-85701142D01*
X121540023Y-85605904D01*
X121540023Y-85510666D01*
X121492404Y-85415428D01*
X121444785Y-85367809D01*
X121349547Y-85320190D01*
X121159071Y-85272571D01*
X121063833Y-85224952D01*
X121016214Y-85177333D01*
X120968595Y-85082095D01*
X120968595Y-84986857D01*
X121016214Y-84891619D01*
X121063833Y-84844000D01*
X121159071Y-84796380D01*
X121397166Y-84796380D01*
X121540023Y-84844000D01*
X121825738Y-84796380D02*
X122397166Y-84796380D01*
X122111452Y-85796380D02*
X122111452Y-84796380D01*
X122920976Y-84796380D02*
X123111452Y-84796380D01*
X123206690Y-84844000D01*
X123301928Y-84939238D01*
X123349547Y-85129714D01*
X123349547Y-85463047D01*
X123301928Y-85653523D01*
X123206690Y-85748761D01*
X123111452Y-85796380D01*
X122920976Y-85796380D01*
X122825738Y-85748761D01*
X122730500Y-85653523D01*
X122682880Y-85463047D01*
X122682880Y-85129714D01*
X122730500Y-84939238D01*
X122825738Y-84844000D01*
X122920976Y-84796380D01*
X124349547Y-85796380D02*
X124016214Y-85320190D01*
X123778119Y-85796380D02*
X123778119Y-84796380D01*
X124159071Y-84796380D01*
X124254309Y-84844000D01*
X124301928Y-84891619D01*
X124349547Y-84986857D01*
X124349547Y-85129714D01*
X124301928Y-85224952D01*
X124254309Y-85272571D01*
X124159071Y-85320190D01*
X123778119Y-85320190D01*
X124778119Y-85272571D02*
X125111452Y-85272571D01*
X125254309Y-85796380D02*
X124778119Y-85796380D01*
X124778119Y-84796380D01*
X125254309Y-84796380D01*
X126778119Y-85272571D02*
X126920976Y-85320190D01*
X126968595Y-85367809D01*
X127016214Y-85463047D01*
X127016214Y-85605904D01*
X126968595Y-85701142D01*
X126920976Y-85748761D01*
X126825738Y-85796380D01*
X126444785Y-85796380D01*
X126444785Y-84796380D01*
X126778119Y-84796380D01*
X126873357Y-84844000D01*
X126920976Y-84891619D01*
X126968595Y-84986857D01*
X126968595Y-85082095D01*
X126920976Y-85177333D01*
X126873357Y-85224952D01*
X126778119Y-85272571D01*
X126444785Y-85272571D01*
X127397166Y-85510666D02*
X127873357Y-85510666D01*
X127301928Y-85796380D02*
X127635261Y-84796380D01*
X127968595Y-85796380D01*
X128873357Y-85701142D02*
X128825738Y-85748761D01*
X128682880Y-85796380D01*
X128587642Y-85796380D01*
X128444785Y-85748761D01*
X128349547Y-85653523D01*
X128301928Y-85558285D01*
X128254309Y-85367809D01*
X128254309Y-85224952D01*
X128301928Y-85034476D01*
X128349547Y-84939238D01*
X128444785Y-84844000D01*
X128587642Y-84796380D01*
X128682880Y-84796380D01*
X128825738Y-84844000D01*
X128873357Y-84891619D01*
X129301928Y-85796380D02*
X129301928Y-84796380D01*
X129873357Y-85796380D02*
X129444785Y-85224952D01*
X129873357Y-84796380D02*
X129301928Y-85367809D01*
X130301928Y-84796380D02*
X130301928Y-85605904D01*
X130349547Y-85701142D01*
X130397166Y-85748761D01*
X130492404Y-85796380D01*
X130682880Y-85796380D01*
X130778119Y-85748761D01*
X130825738Y-85701142D01*
X130873357Y-85605904D01*
X130873357Y-84796380D01*
X131349547Y-85796380D02*
X131349547Y-84796380D01*
X131730500Y-84796380D01*
X131825738Y-84844000D01*
X131873357Y-84891619D01*
X131920976Y-84986857D01*
X131920976Y-85129714D01*
X131873357Y-85224952D01*
X131825738Y-85272571D01*
X131730500Y-85320190D01*
X131349547Y-85320190D01*
X111968595Y-87446380D02*
X111968595Y-86446380D01*
X111968595Y-86922571D02*
X112540023Y-86922571D01*
X112540023Y-87446380D02*
X112540023Y-86446380D01*
X113159071Y-87446380D02*
X113063833Y-87398761D01*
X113016214Y-87351142D01*
X112968595Y-87255904D01*
X112968595Y-86970190D01*
X113016214Y-86874952D01*
X113063833Y-86827333D01*
X113159071Y-86779714D01*
X113301928Y-86779714D01*
X113397166Y-86827333D01*
X113444785Y-86874952D01*
X113492404Y-86970190D01*
X113492404Y-87255904D01*
X113444785Y-87351142D01*
X113397166Y-87398761D01*
X113301928Y-87446380D01*
X113159071Y-87446380D01*
X114063833Y-87446380D02*
X113968595Y-87398761D01*
X113920976Y-87303523D01*
X113920976Y-86446380D01*
X114873357Y-87446380D02*
X114873357Y-86446380D01*
X114873357Y-87398761D02*
X114778119Y-87446380D01*
X114587642Y-87446380D01*
X114492404Y-87398761D01*
X114444785Y-87351142D01*
X114397166Y-87255904D01*
X114397166Y-86970190D01*
X114444785Y-86874952D01*
X114492404Y-86827333D01*
X114587642Y-86779714D01*
X114778119Y-86779714D01*
X114873357Y-86827333D01*
X116587642Y-86446380D02*
X116111452Y-86446380D01*
X116063833Y-86922571D01*
X116111452Y-86874952D01*
X116206690Y-86827333D01*
X116444785Y-86827333D01*
X116540023Y-86874952D01*
X116587642Y-86922571D01*
X116635261Y-87017809D01*
X116635261Y-87255904D01*
X116587642Y-87351142D01*
X116540023Y-87398761D01*
X116444785Y-87446380D01*
X116206690Y-87446380D01*
X116111452Y-87398761D01*
X116063833Y-87351142D01*
X117016214Y-87398761D02*
X117111452Y-87446380D01*
X117301928Y-87446380D01*
X117397166Y-87398761D01*
X117444785Y-87303523D01*
X117444785Y-87255904D01*
X117397166Y-87160666D01*
X117301928Y-87113047D01*
X117159071Y-87113047D01*
X117063833Y-87065428D01*
X117016214Y-86970190D01*
X117016214Y-86922571D01*
X117063833Y-86827333D01*
X117159071Y-86779714D01*
X117301928Y-86779714D01*
X117397166Y-86827333D01*
X117873357Y-87351142D02*
X117920976Y-87398761D01*
X117873357Y-87446380D01*
X117825738Y-87398761D01*
X117873357Y-87351142D01*
X117873357Y-87446380D01*
X117873357Y-86827333D02*
X117920976Y-86874952D01*
X117873357Y-86922571D01*
X117825738Y-86874952D01*
X117873357Y-86827333D01*
X117873357Y-86922571D01*
X119682880Y-87446380D02*
X119349547Y-86970190D01*
X119111452Y-87446380D02*
X119111452Y-86446380D01*
X119492404Y-86446380D01*
X119587642Y-86494000D01*
X119635261Y-86541619D01*
X119682880Y-86636857D01*
X119682880Y-86779714D01*
X119635261Y-86874952D01*
X119587642Y-86922571D01*
X119492404Y-86970190D01*
X119111452Y-86970190D01*
X120111452Y-86922571D02*
X120444785Y-86922571D01*
X120587642Y-87446380D02*
X120111452Y-87446380D01*
X120111452Y-86446380D01*
X120587642Y-86446380D01*
X120968595Y-87398761D02*
X121111452Y-87446380D01*
X121349547Y-87446380D01*
X121444785Y-87398761D01*
X121492404Y-87351142D01*
X121540023Y-87255904D01*
X121540023Y-87160666D01*
X121492404Y-87065428D01*
X121444785Y-87017809D01*
X121349547Y-86970190D01*
X121159071Y-86922571D01*
X121063833Y-86874952D01*
X121016214Y-86827333D01*
X120968595Y-86732095D01*
X120968595Y-86636857D01*
X121016214Y-86541619D01*
X121063833Y-86494000D01*
X121159071Y-86446380D01*
X121397166Y-86446380D01*
X121540023Y-86494000D01*
X121825738Y-86446380D02*
X122397166Y-86446380D01*
X122111452Y-87446380D02*
X122111452Y-86446380D01*
X122920976Y-86446380D02*
X123111452Y-86446380D01*
X123206690Y-86494000D01*
X123301928Y-86589238D01*
X123349547Y-86779714D01*
X123349547Y-87113047D01*
X123301928Y-87303523D01*
X123206690Y-87398761D01*
X123111452Y-87446380D01*
X122920976Y-87446380D01*
X122825738Y-87398761D01*
X122730500Y-87303523D01*
X122682880Y-87113047D01*
X122682880Y-86779714D01*
X122730500Y-86589238D01*
X122825738Y-86494000D01*
X122920976Y-86446380D01*
X124349547Y-87446380D02*
X124016214Y-86970190D01*
X123778119Y-87446380D02*
X123778119Y-86446380D01*
X124159071Y-86446380D01*
X124254309Y-86494000D01*
X124301928Y-86541619D01*
X124349547Y-86636857D01*
X124349547Y-86779714D01*
X124301928Y-86874952D01*
X124254309Y-86922571D01*
X124159071Y-86970190D01*
X123778119Y-86970190D01*
X124778119Y-86922571D02*
X125111452Y-86922571D01*
X125254309Y-87446380D02*
X124778119Y-87446380D01*
X124778119Y-86446380D01*
X125254309Y-86446380D01*
X126635261Y-86446380D02*
X126825738Y-86446380D01*
X126920976Y-86494000D01*
X127016214Y-86589238D01*
X127063833Y-86779714D01*
X127063833Y-87113047D01*
X127016214Y-87303523D01*
X126920976Y-87398761D01*
X126825738Y-87446380D01*
X126635261Y-87446380D01*
X126540023Y-87398761D01*
X126444785Y-87303523D01*
X126397166Y-87113047D01*
X126397166Y-86779714D01*
X126444785Y-86589238D01*
X126540023Y-86494000D01*
X126635261Y-86446380D01*
X128063833Y-87446380D02*
X127730500Y-86970190D01*
X127492404Y-87446380D02*
X127492404Y-86446380D01*
X127873357Y-86446380D01*
X127968595Y-86494000D01*
X128016214Y-86541619D01*
X128063833Y-86636857D01*
X128063833Y-86779714D01*
X128016214Y-86874952D01*
X127968595Y-86922571D01*
X127873357Y-86970190D01*
X127492404Y-86970190D01*
X128492404Y-87446380D02*
X128492404Y-86446380D01*
X129492404Y-86494000D02*
X129397166Y-86446380D01*
X129254309Y-86446380D01*
X129111452Y-86494000D01*
X129016214Y-86589238D01*
X128968595Y-86684476D01*
X128920976Y-86874952D01*
X128920976Y-87017809D01*
X128968595Y-87208285D01*
X129016214Y-87303523D01*
X129111452Y-87398761D01*
X129254309Y-87446380D01*
X129349547Y-87446380D01*
X129492404Y-87398761D01*
X129540023Y-87351142D01*
X129540023Y-87017809D01*
X129349547Y-87017809D01*
X129968595Y-87446380D02*
X129968595Y-86446380D01*
X130444785Y-87446380D02*
X130444785Y-86446380D01*
X131016214Y-87446380D01*
X131016214Y-86446380D01*
X131444785Y-87160666D02*
X131920976Y-87160666D01*
X131349547Y-87446380D02*
X131682880Y-86446380D01*
X132016214Y-87446380D01*
X132825738Y-87446380D02*
X132349547Y-87446380D01*
X132349547Y-86446380D01*
X119340857Y-82393571D02*
X119483714Y-82441190D01*
X119531333Y-82488809D01*
X119578952Y-82584047D01*
X119578952Y-82726904D01*
X119531333Y-82822142D01*
X119483714Y-82869761D01*
X119388476Y-82917380D01*
X119007523Y-82917380D01*
X119007523Y-81917380D01*
X119340857Y-81917380D01*
X119436095Y-81965000D01*
X119483714Y-82012619D01*
X119531333Y-82107857D01*
X119531333Y-82203095D01*
X119483714Y-82298333D01*
X119436095Y-82345952D01*
X119340857Y-82393571D01*
X119007523Y-82393571D01*
X120007523Y-81917380D02*
X120007523Y-82726904D01*
X120055142Y-82822142D01*
X120102761Y-82869761D01*
X120198000Y-82917380D01*
X120388476Y-82917380D01*
X120483714Y-82869761D01*
X120531333Y-82822142D01*
X120578952Y-82726904D01*
X120578952Y-81917380D01*
X121007523Y-82869761D02*
X121150380Y-82917380D01*
X121388476Y-82917380D01*
X121483714Y-82869761D01*
X121531333Y-82822142D01*
X121578952Y-82726904D01*
X121578952Y-82631666D01*
X121531333Y-82536428D01*
X121483714Y-82488809D01*
X121388476Y-82441190D01*
X121198000Y-82393571D01*
X121102761Y-82345952D01*
X121055142Y-82298333D01*
X121007523Y-82203095D01*
X121007523Y-82107857D01*
X121055142Y-82012619D01*
X121102761Y-81965000D01*
X121198000Y-81917380D01*
X121436095Y-81917380D01*
X121578952Y-81965000D01*
X122198000Y-82441190D02*
X122198000Y-82917380D01*
X121864666Y-81917380D02*
X122198000Y-82441190D01*
X122531333Y-81917380D01*
X114112285Y-82817380D02*
X113778952Y-82341190D01*
X113540857Y-82817380D02*
X113540857Y-81817380D01*
X113921809Y-81817380D01*
X114017047Y-81865000D01*
X114064666Y-81912619D01*
X114112285Y-82007857D01*
X114112285Y-82150714D01*
X114064666Y-82245952D01*
X114017047Y-82293571D01*
X113921809Y-82341190D01*
X113540857Y-82341190D01*
X115255142Y-81769761D02*
X114398000Y-83055476D01*
X115493238Y-81817380D02*
X115731333Y-82817380D01*
X115921809Y-82103095D01*
X116112285Y-82817380D01*
X116350380Y-81817380D01*
D11*
X133780666Y-85172142D02*
X134447333Y-85172142D01*
X134733047Y-86219761D02*
X133780666Y-86219761D01*
X133780666Y-84219761D01*
X134733047Y-84219761D01*
X135399714Y-84219761D02*
X136733047Y-86219761D01*
X136733047Y-84219761D02*
X135399714Y-86219761D01*
X137494952Y-85457857D02*
X139018761Y-85457857D01*
X139780666Y-84219761D02*
X141018761Y-84219761D01*
X140352095Y-84981666D01*
X140637809Y-84981666D01*
X140828285Y-85076904D01*
X140923523Y-85172142D01*
X141018761Y-85362619D01*
X141018761Y-85838809D01*
X140923523Y-86029285D01*
X140828285Y-86124523D01*
X140637809Y-86219761D01*
X140066380Y-86219761D01*
X139875904Y-86124523D01*
X139780666Y-86029285D01*
X142923523Y-86219761D02*
X141780666Y-86219761D01*
X142352095Y-86219761D02*
X142352095Y-84219761D01*
X142161619Y-84505476D01*
X141971142Y-84695952D01*
X141780666Y-84791190D01*
X144637809Y-84886428D02*
X144637809Y-86219761D01*
X144161619Y-84124523D02*
X143685428Y-85553095D01*
X144923523Y-85553095D01*
X147209238Y-86219761D02*
X147209238Y-84219761D01*
X147971142Y-84219761D01*
X148161619Y-84315000D01*
X148256857Y-84410238D01*
X148352095Y-84600714D01*
X148352095Y-84886428D01*
X148256857Y-85076904D01*
X148161619Y-85172142D01*
X147971142Y-85267380D01*
X147209238Y-85267380D01*
X150352095Y-86219761D02*
X149685428Y-85267380D01*
X149209238Y-86219761D02*
X149209238Y-84219761D01*
X149971142Y-84219761D01*
X150161619Y-84315000D01*
X150256857Y-84410238D01*
X150352095Y-84600714D01*
X150352095Y-84886428D01*
X150256857Y-85076904D01*
X150161619Y-85172142D01*
X149971142Y-85267380D01*
X149209238Y-85267380D01*
X151590190Y-84219761D02*
X151971142Y-84219761D01*
X152161619Y-84315000D01*
X152352095Y-84505476D01*
X152447333Y-84886428D01*
X152447333Y-85553095D01*
X152352095Y-85934047D01*
X152161619Y-86124523D01*
X151971142Y-86219761D01*
X151590190Y-86219761D01*
X151399714Y-86124523D01*
X151209238Y-85934047D01*
X151114000Y-85553095D01*
X151114000Y-84886428D01*
X151209238Y-84505476D01*
X151399714Y-84315000D01*
X151590190Y-84219761D01*
X154352095Y-84315000D02*
X154161619Y-84219761D01*
X153875904Y-84219761D01*
X153590190Y-84315000D01*
X153399714Y-84505476D01*
X153304476Y-84695952D01*
X153209238Y-85076904D01*
X153209238Y-85362619D01*
X153304476Y-85743571D01*
X153399714Y-85934047D01*
X153590190Y-86124523D01*
X153875904Y-86219761D01*
X154066380Y-86219761D01*
X154352095Y-86124523D01*
X154447333Y-86029285D01*
X154447333Y-85362619D01*
X154066380Y-85362619D01*
X156447333Y-86219761D02*
X155780666Y-85267380D01*
X155304476Y-86219761D02*
X155304476Y-84219761D01*
X156066380Y-84219761D01*
X156256857Y-84315000D01*
X156352095Y-84410238D01*
X156447333Y-84600714D01*
X156447333Y-84886428D01*
X156352095Y-85076904D01*
X156256857Y-85172142D01*
X156066380Y-85267380D01*
X155304476Y-85267380D01*
X157209238Y-85648333D02*
X158161619Y-85648333D01*
X157018761Y-86219761D02*
X157685428Y-84219761D01*
X158352095Y-86219761D01*
X159018761Y-86219761D02*
X159018761Y-84219761D01*
X159685428Y-85648333D01*
X160352095Y-84219761D01*
X160352095Y-86219761D01*
X161304476Y-86219761D02*
X161304476Y-84219761D01*
X161971142Y-85648333D01*
X162637809Y-84219761D01*
X162637809Y-86219761D01*
X163590190Y-85172142D02*
X164256857Y-85172142D01*
X164542571Y-86219761D02*
X163590190Y-86219761D01*
X163590190Y-84219761D01*
X164542571Y-84219761D01*
X166542571Y-86219761D02*
X165875904Y-85267380D01*
X165399714Y-86219761D02*
X165399714Y-84219761D01*
X166161619Y-84219761D01*
X166352095Y-84315000D01*
X166447333Y-84410238D01*
X166542571Y-84600714D01*
X166542571Y-84886428D01*
X166447333Y-85076904D01*
X166352095Y-85172142D01*
X166161619Y-85267380D01*
X165399714Y-85267380D01*
D10*
X139390380Y-120999285D02*
X139390380Y-121570714D01*
X139390380Y-121285000D02*
X138390380Y-121285000D01*
X138533238Y-121380238D01*
X138628476Y-121475476D01*
X138676095Y-121570714D01*
D12*
%TO.C,SW11*%
X113618000Y-103570000D02*
X120078000Y-103570000D01*
X113618000Y-99040000D02*
X113618000Y-101640000D01*
X113618000Y-97110000D02*
X120078000Y-97110000D01*
X120078000Y-99040000D02*
X120078000Y-101640000D01*
X113618000Y-97140000D02*
X113618000Y-97110000D01*
X113618000Y-103570000D02*
X113618000Y-103540000D01*
X120078000Y-103570000D02*
X120078000Y-103540000D01*
X120078000Y-97110000D02*
X120078000Y-97140000D01*
%TO.C,D21*%
X118788000Y-77925000D02*
X121648000Y-77925000D01*
X118788000Y-76005000D02*
X118788000Y-77925000D01*
X121648000Y-76005000D02*
X118788000Y-76005000D01*
%TO.C,D11*%
X113038000Y-77975000D02*
X115898000Y-77975000D01*
X113038000Y-76055000D02*
X113038000Y-77975000D01*
X115898000Y-76055000D02*
X113038000Y-76055000D01*
%TO.C,SW1*%
X114523000Y-101390000D02*
X119023000Y-101390000D01*
X113273000Y-97390000D02*
X113273000Y-98890000D01*
X119023000Y-94890000D02*
X114523000Y-94890000D01*
X120273000Y-98890000D02*
X120273000Y-97390000D01*
%TO.C,D2*%
X119108000Y-78129000D02*
X119108000Y-78285000D01*
X119108000Y-80445000D02*
X119108000Y-80601000D01*
X121709130Y-80444837D02*
G75*
G02*
X119627039Y-80445000I-1041130J1079837D01*
G01*
X121709130Y-78285163D02*
G75*
G03*
X119627039Y-78285000I-1041130J-1079837D01*
G01*
X122340335Y-80443608D02*
G75*
G02*
X119108000Y-80600516I-1672335J1078608D01*
G01*
X122340335Y-78286392D02*
G75*
G03*
X119108000Y-78129484I-1672335J-1078608D01*
G01*
%TO.C,D1*%
X113258000Y-78179000D02*
X113258000Y-78335000D01*
X113258000Y-80495000D02*
X113258000Y-80651000D01*
X115859130Y-80494837D02*
G75*
G02*
X113777039Y-80495000I-1041130J1079837D01*
G01*
X115859130Y-78335163D02*
G75*
G03*
X113777039Y-78335000I-1041130J-1079837D01*
G01*
X116490335Y-80493608D02*
G75*
G02*
X113258000Y-80650516I-1672335J1078608D01*
G01*
X116490335Y-78336392D02*
G75*
G03*
X113258000Y-78179484I-1672335J-1078608D01*
G01*
%TO.C,J2*%
X170068000Y-115275000D02*
X172728000Y-115275000D01*
X170068000Y-97435000D02*
X170068000Y-115275000D01*
X172728000Y-97435000D02*
X172728000Y-115275000D01*
X170068000Y-97435000D02*
X172728000Y-97435000D01*
X170068000Y-96165000D02*
X170068000Y-94835000D01*
X170068000Y-94835000D02*
X171398000Y-94835000D01*
%TO.C,J1*%
X122768000Y-119735000D02*
X125428000Y-119735000D01*
X122768000Y-91735000D02*
X122768000Y-119735000D01*
X125428000Y-91735000D02*
X125428000Y-119735000D01*
X122768000Y-91735000D02*
X125428000Y-91735000D01*
X122768000Y-90465000D02*
X122768000Y-89135000D01*
X122768000Y-89135000D02*
X124098000Y-89135000D01*
D10*
%TO.C,P1*%
X137388000Y-122275000D02*
X137388000Y-125375000D01*
X138938000Y-122275000D02*
X137388000Y-122275000D01*
X140208000Y-125095000D02*
X140208000Y-122555000D01*
X137388000Y-125375000D02*
X138938000Y-125375000D01*
X157988000Y-122555000D02*
X140208000Y-122555000D01*
X157988000Y-125095000D02*
X157988000Y-122555000D01*
X140208000Y-125095000D02*
X157988000Y-125095000D01*
%TO.C,P2*%
X160248000Y-122275000D02*
X160248000Y-125375000D01*
X161798000Y-122275000D02*
X160248000Y-122275000D01*
X163068000Y-125095000D02*
X163068000Y-122555000D01*
X160248000Y-125375000D02*
X161798000Y-125375000D01*
X175768000Y-122555000D02*
X163068000Y-122555000D01*
X175768000Y-125095000D02*
X175768000Y-122555000D01*
X163068000Y-125095000D02*
X175768000Y-125095000D01*
%TO.C,P3*%
X128244000Y-74015000D02*
X128244000Y-77115000D01*
X129794000Y-74015000D02*
X128244000Y-74015000D01*
X131064000Y-76835000D02*
X131064000Y-74295000D01*
X128244000Y-77115000D02*
X129794000Y-77115000D01*
X153924000Y-74295000D02*
X131064000Y-74295000D01*
X153924000Y-76835000D02*
X153924000Y-74295000D01*
X131064000Y-76835000D02*
X153924000Y-76835000D01*
%TO.C,P4*%
X155168000Y-74015000D02*
X155168000Y-77115000D01*
X156718000Y-74015000D02*
X155168000Y-74015000D01*
X157988000Y-76835000D02*
X157988000Y-74295000D01*
X155168000Y-77115000D02*
X156718000Y-77115000D01*
X175768000Y-74295000D02*
X157988000Y-74295000D01*
X175768000Y-76835000D02*
X175768000Y-74295000D01*
X157988000Y-76835000D02*
X175768000Y-76835000D01*
%TO.C,P5*%
X127254000Y-123825000D02*
G75*
G03*
X127254000Y-123825000I-2286000J0D01*
G01*
%TO.C,P6*%
X179324000Y-118745000D02*
G75*
G03*
X179324000Y-118745000I-2286000J0D01*
G01*
%TO.C,P7*%
X128524000Y-75565000D02*
G75*
G03*
X128524000Y-75565000I-2286000J0D01*
G01*
%TO.C,P8*%
X179324000Y-90805000D02*
G75*
G03*
X179324000Y-90805000I-2286000J0D01*
G01*
%TO.C,SW1*%
X115464666Y-93769761D02*
X115607523Y-93817380D01*
X115845619Y-93817380D01*
X115940857Y-93769761D01*
X115988476Y-93722142D01*
X116036095Y-93626904D01*
X116036095Y-93531666D01*
X115988476Y-93436428D01*
X115940857Y-93388809D01*
X115845619Y-93341190D01*
X115655142Y-93293571D01*
X115559904Y-93245952D01*
X115512285Y-93198333D01*
X115464666Y-93103095D01*
X115464666Y-93007857D01*
X115512285Y-92912619D01*
X115559904Y-92865000D01*
X115655142Y-92817380D01*
X115893238Y-92817380D01*
X116036095Y-92865000D01*
X116369428Y-92817380D02*
X116607523Y-93817380D01*
X116798000Y-93103095D01*
X116988476Y-93817380D01*
X117226571Y-92817380D01*
X118131333Y-93817380D02*
X117559904Y-93817380D01*
X117845619Y-93817380D02*
X117845619Y-92817380D01*
X117750380Y-92960238D01*
X117655142Y-93055476D01*
X117559904Y-93103095D01*
%TO.C,D2*%
X119959904Y-75517380D02*
X119959904Y-74517380D01*
X120198000Y-74517380D01*
X120340857Y-74565000D01*
X120436095Y-74660238D01*
X120483714Y-74755476D01*
X120531333Y-74945952D01*
X120531333Y-75088809D01*
X120483714Y-75279285D01*
X120436095Y-75374523D01*
X120340857Y-75469761D01*
X120198000Y-75517380D01*
X119959904Y-75517380D01*
X120912285Y-74612619D02*
X120959904Y-74565000D01*
X121055142Y-74517380D01*
X121293238Y-74517380D01*
X121388476Y-74565000D01*
X121436095Y-74612619D01*
X121483714Y-74707857D01*
X121483714Y-74803095D01*
X121436095Y-74945952D01*
X120864666Y-75517380D01*
X121483714Y-75517380D01*
%TO.C,D1*%
X114059904Y-75517380D02*
X114059904Y-74517380D01*
X114298000Y-74517380D01*
X114440857Y-74565000D01*
X114536095Y-74660238D01*
X114583714Y-74755476D01*
X114631333Y-74945952D01*
X114631333Y-75088809D01*
X114583714Y-75279285D01*
X114536095Y-75374523D01*
X114440857Y-75469761D01*
X114298000Y-75517380D01*
X114059904Y-75517380D01*
X115583714Y-75517380D02*
X115012285Y-75517380D01*
X115298000Y-75517380D02*
X115298000Y-74517380D01*
X115202761Y-74660238D01*
X115107523Y-74755476D01*
X115012285Y-74803095D01*
%TO.C,J2*%
X171064666Y-93287380D02*
X171064666Y-94001666D01*
X171017047Y-94144523D01*
X170921809Y-94239761D01*
X170778952Y-94287380D01*
X170683714Y-94287380D01*
X171493238Y-93382619D02*
X171540857Y-93335000D01*
X171636095Y-93287380D01*
X171874190Y-93287380D01*
X171969428Y-93335000D01*
X172017047Y-93382619D01*
X172064666Y-93477857D01*
X172064666Y-93573095D01*
X172017047Y-93715952D01*
X171445619Y-94287380D01*
X172064666Y-94287380D01*
%TO.C,J1*%
X123764666Y-87587380D02*
X123764666Y-88301666D01*
X123717047Y-88444523D01*
X123621809Y-88539761D01*
X123478952Y-88587380D01*
X123383714Y-88587380D01*
X124764666Y-88587380D02*
X124193238Y-88587380D01*
X124478952Y-88587380D02*
X124478952Y-87587380D01*
X124383714Y-87730238D01*
X124288476Y-87825476D01*
X124193238Y-87873095D01*
%TO.C,P1*%
X147089904Y-121737380D02*
X147089904Y-120737380D01*
X147470857Y-120737380D01*
X147566095Y-120785000D01*
X147613714Y-120832619D01*
X147661333Y-120927857D01*
X147661333Y-121070714D01*
X147613714Y-121165952D01*
X147566095Y-121213571D01*
X147470857Y-121261190D01*
X147089904Y-121261190D01*
X148613714Y-121737380D02*
X148042285Y-121737380D01*
X148328000Y-121737380D02*
X148328000Y-120737380D01*
X148232761Y-120880238D01*
X148137523Y-120975476D01*
X148042285Y-121023095D01*
%TO.C,P2*%
X167663904Y-121737380D02*
X167663904Y-120737380D01*
X168044857Y-120737380D01*
X168140095Y-120785000D01*
X168187714Y-120832619D01*
X168235333Y-120927857D01*
X168235333Y-121070714D01*
X168187714Y-121165952D01*
X168140095Y-121213571D01*
X168044857Y-121261190D01*
X167663904Y-121261190D01*
X168616285Y-120832619D02*
X168663904Y-120785000D01*
X168759142Y-120737380D01*
X168997238Y-120737380D01*
X169092476Y-120785000D01*
X169140095Y-120832619D01*
X169187714Y-120927857D01*
X169187714Y-121023095D01*
X169140095Y-121165952D01*
X168568666Y-121737380D01*
X169187714Y-121737380D01*
%TO.C,P3*%
X140485904Y-78811380D02*
X140485904Y-77811380D01*
X140866857Y-77811380D01*
X140962095Y-77859000D01*
X141009714Y-77906619D01*
X141057333Y-78001857D01*
X141057333Y-78144714D01*
X141009714Y-78239952D01*
X140962095Y-78287571D01*
X140866857Y-78335190D01*
X140485904Y-78335190D01*
X141390666Y-77811380D02*
X142009714Y-77811380D01*
X141676380Y-78192333D01*
X141819238Y-78192333D01*
X141914476Y-78239952D01*
X141962095Y-78287571D01*
X142009714Y-78382809D01*
X142009714Y-78620904D01*
X141962095Y-78716142D01*
X141914476Y-78763761D01*
X141819238Y-78811380D01*
X141533523Y-78811380D01*
X141438285Y-78763761D01*
X141390666Y-78716142D01*
%TO.C,P4*%
X164869904Y-78811380D02*
X164869904Y-77811380D01*
X165250857Y-77811380D01*
X165346095Y-77859000D01*
X165393714Y-77906619D01*
X165441333Y-78001857D01*
X165441333Y-78144714D01*
X165393714Y-78239952D01*
X165346095Y-78287571D01*
X165250857Y-78335190D01*
X164869904Y-78335190D01*
X166298476Y-78144714D02*
X166298476Y-78811380D01*
X166060380Y-77763761D02*
X165822285Y-78478047D01*
X166441333Y-78478047D01*
%TD*%
M02*
