M48
; DRILL file {KiCad (5.1.10)-1} date 03/02/22 00:29:28
; FORMAT={-:-/ absolute / inch / decimal}
; #@! TF.CreationDate,2022-03-02T00:29:28+08:00
; #@! TF.GenerationSoftware,Kicad,Pcbnew,(5.1.10)-1
; #@! TF.FileFunction,Plated,1,2,PTH
FMAT,2
INCH
T1C0.0157
T2C0.0354
T3C0.0394
T4C0.0400
T5C0.0433
T6C0.1200
%
G90
G05
T1
X4.7558Y-3.3923
X4.7794Y-3.4789
X4.7794Y-3.5459
X4.9566Y-3.1915
X5.181Y-3.2427
X5.4478Y-3.163
X5.4487Y-3.5104
X5.5511Y-3.4937
X5.618Y-4.7663
X5.6298Y-4.2663
X5.7086Y-4.1876
X5.7873Y-4.1089
X5.8661Y-4.0301
X5.8779Y-4.7663
X5.9448Y-3.9514
X6.0235Y-3.8726
X6.1023Y-3.7939
X6.181Y-3.7152
X6.2598Y-3.6364
X6.3385Y-3.5577
X6.4881Y-3.5577
T2
X4.4704Y-3.1266
X4.5704Y-3.1266
X4.7007Y-3.1246
X4.8007Y-3.1246
T3
X4.7627Y-4.1846
X4.7627Y-4.2846
X4.7627Y-4.3846
X4.8857Y-3.5616
X4.8857Y-3.6616
X4.8857Y-3.7616
X4.8857Y-3.8616
X4.8857Y-3.9616
X4.8857Y-4.0616
X4.8857Y-4.1616
X4.8857Y-4.2616
X4.8857Y-4.3616
X4.8857Y-4.4616
X4.8857Y-4.5616
X4.8857Y-4.6616
X6.748Y-3.786
X6.748Y-3.886
X6.748Y-3.986
X6.748Y-4.086
X6.748Y-4.186
X6.748Y-4.286
X6.748Y-4.386
X6.748Y-4.486
T4
X5.11Y-2.975
X5.21Y-2.975
X5.31Y-2.975
X5.41Y-2.975
X5.47Y-4.875
X5.51Y-2.975
X5.57Y-4.875
X5.61Y-2.975
X5.67Y-4.875
X5.71Y-2.975
X5.77Y-4.875
X5.81Y-2.975
X5.87Y-4.875
X5.91Y-2.975
X5.97Y-4.875
X6.01Y-2.975
X6.07Y-4.875
X6.17Y-2.975
X6.17Y-4.875
X6.27Y-2.975
X6.37Y-2.975
X6.37Y-4.875
X6.47Y-2.975
X6.47Y-4.875
X6.57Y-2.975
X6.57Y-4.875
X6.67Y-2.975
X6.67Y-4.875
X6.77Y-2.975
X6.77Y-4.875
X6.87Y-2.975
X6.87Y-4.875
T5
X4.4694Y-3.7752
X4.4694Y-3.9524
X4.7253Y-3.7752
X4.7253Y-3.9524
T6
X4.92Y-4.875
X4.97Y-2.975
X6.97Y-3.575
X6.97Y-4.675
T0
M30
