%TF.GenerationSoftware,KiCad,Pcbnew,(5.1.10)-1*%
%TF.CreationDate,2022-03-02T00:29:21+08:00*%
%TF.ProjectId,r71ram_uno,72373172-616d-45f7-956e-6f2e6b696361,rev?*%
%TF.SameCoordinates,Original*%
%TF.FileFunction,Copper,L2,Bot*%
%TF.FilePolarity,Positive*%
%FSLAX46Y46*%
G04 Gerber Fmt 4.6, Leading zero omitted, Abs format (unit mm)*
G04 Created by KiCad (PCBNEW (5.1.10)-1) date 2022-03-02 00:29:21*
%MOMM*%
%LPD*%
G01*
G04 APERTURE LIST*
%TA.AperFunction,ComponentPad*%
%ADD10O,1.700000X1.700000*%
%TD*%
%TA.AperFunction,ComponentPad*%
%ADD11R,1.700000X1.700000*%
%TD*%
%TA.AperFunction,ComponentPad*%
%ADD12C,2.000000*%
%TD*%
%TA.AperFunction,ComponentPad*%
%ADD13C,1.800000*%
%TD*%
%TA.AperFunction,ComponentPad*%
%ADD14R,1.800000X1.800000*%
%TD*%
%TA.AperFunction,ComponentPad*%
%ADD15O,1.727200X2.032000*%
%TD*%
%TA.AperFunction,ComponentPad*%
%ADD16C,4.064000*%
%TD*%
%TA.AperFunction,ViaPad*%
%ADD17C,0.600000*%
%TD*%
%TA.AperFunction,Conductor*%
%ADD18C,0.500000*%
%TD*%
%TA.AperFunction,Conductor*%
%ADD19C,0.250000*%
%TD*%
%TA.AperFunction,Conductor*%
%ADD20C,0.254000*%
%TD*%
%TA.AperFunction,Conductor*%
%ADD21C,0.100000*%
%TD*%
G04 APERTURE END LIST*
D10*
%TO.P,J3,3*%
%TO.N,/13(SCK)*%
X120973000Y-111370000D03*
%TO.P,J3,2*%
%TO.N,/12(MISO)*%
X120973000Y-108830000D03*
D11*
%TO.P,J3,1*%
%TO.N,GND*%
X120973000Y-106290000D03*
%TD*%
%TO.P,R3,2*%
%TO.N,Net-(D2-Pad2)*%
%TA.AperFunction,SMDPad,CuDef*%
G36*
G01*
X134548000Y-79889999D02*
X134548000Y-80790001D01*
G75*
G02*
X134298001Y-81040000I-249999J0D01*
G01*
X133597999Y-81040000D01*
G75*
G02*
X133348000Y-80790001I0J249999D01*
G01*
X133348000Y-79889999D01*
G75*
G02*
X133597999Y-79640000I249999J0D01*
G01*
X134298001Y-79640000D01*
G75*
G02*
X134548000Y-79889999I0J-249999D01*
G01*
G37*
%TD.AperFunction*%
%TO.P,R3,1*%
%TO.N,+5V*%
%TA.AperFunction,SMDPad,CuDef*%
G36*
G01*
X136548000Y-79889999D02*
X136548000Y-80790001D01*
G75*
G02*
X136298001Y-81040000I-249999J0D01*
G01*
X135597999Y-81040000D01*
G75*
G02*
X135348000Y-80790001I0J249999D01*
G01*
X135348000Y-79889999D01*
G75*
G02*
X135597999Y-79640000I249999J0D01*
G01*
X136298001Y-79640000D01*
G75*
G02*
X136548000Y-79889999I0J-249999D01*
G01*
G37*
%TD.AperFunction*%
%TD*%
%TO.P,R2,2*%
%TO.N,Net-(D1-Pad2)*%
%TA.AperFunction,SMDPad,CuDef*%
G36*
G01*
X134498000Y-87914999D02*
X134498000Y-88815001D01*
G75*
G02*
X134248001Y-89065000I-249999J0D01*
G01*
X133547999Y-89065000D01*
G75*
G02*
X133298000Y-88815001I0J249999D01*
G01*
X133298000Y-87914999D01*
G75*
G02*
X133547999Y-87665000I249999J0D01*
G01*
X134248001Y-87665000D01*
G75*
G02*
X134498000Y-87914999I0J-249999D01*
G01*
G37*
%TD.AperFunction*%
%TO.P,R2,1*%
%TO.N,/10(\u002A\u002A/SS)*%
%TA.AperFunction,SMDPad,CuDef*%
G36*
G01*
X136498000Y-87914999D02*
X136498000Y-88815001D01*
G75*
G02*
X136248001Y-89065000I-249999J0D01*
G01*
X135547999Y-89065000D01*
G75*
G02*
X135298000Y-88815001I0J249999D01*
G01*
X135298000Y-87914999D01*
G75*
G02*
X135547999Y-87665000I249999J0D01*
G01*
X136248001Y-87665000D01*
G75*
G02*
X136498000Y-87914999I0J-249999D01*
G01*
G37*
%TD.AperFunction*%
%TD*%
%TO.P,C1,2*%
%TO.N,GND*%
%TA.AperFunction,SMDPad,CuDef*%
G36*
G01*
X128923000Y-116915000D02*
X127973000Y-116915000D01*
G75*
G02*
X127723000Y-116665000I0J250000D01*
G01*
X127723000Y-115990000D01*
G75*
G02*
X127973000Y-115740000I250000J0D01*
G01*
X128923000Y-115740000D01*
G75*
G02*
X129173000Y-115990000I0J-250000D01*
G01*
X129173000Y-116665000D01*
G75*
G02*
X128923000Y-116915000I-250000J0D01*
G01*
G37*
%TD.AperFunction*%
%TO.P,C1,1*%
%TO.N,+5V*%
%TA.AperFunction,SMDPad,CuDef*%
G36*
G01*
X128923000Y-118990000D02*
X127973000Y-118990000D01*
G75*
G02*
X127723000Y-118740000I0J250000D01*
G01*
X127723000Y-118065000D01*
G75*
G02*
X127973000Y-117815000I250000J0D01*
G01*
X128923000Y-117815000D01*
G75*
G02*
X129173000Y-118065000I0J-250000D01*
G01*
X129173000Y-118740000D01*
G75*
G02*
X128923000Y-118990000I-250000J0D01*
G01*
G37*
%TD.AperFunction*%
%TD*%
D12*
%TO.P,SW1,1*%
%TO.N,/A5(SCL)*%
X120023000Y-95890000D03*
%TO.P,SW1,2*%
%TO.N,GND*%
X120023000Y-100390000D03*
%TO.P,SW1,1*%
%TO.N,/A5(SCL)*%
X113523000Y-95890000D03*
%TO.P,SW1,2*%
%TO.N,GND*%
X113523000Y-100390000D03*
%TD*%
D13*
%TO.P,D2,2*%
%TO.N,Net-(D2-Pad2)*%
X121938000Y-79365000D03*
D14*
%TO.P,D2,1*%
%TO.N,/11(\u002A\u002A/MOSI)*%
X119398000Y-79365000D03*
%TD*%
D13*
%TO.P,D1,2*%
%TO.N,Net-(D1-Pad2)*%
X116088000Y-79415000D03*
D14*
%TO.P,D1,1*%
%TO.N,GND*%
X113548000Y-79415000D03*
%TD*%
D10*
%TO.P,J2,8*%
%TO.N,GND*%
X171398000Y-113945000D03*
%TO.P,J2,7*%
%TO.N,Net-(J2-Pad7)*%
X171398000Y-111405000D03*
%TO.P,J2,6*%
%TO.N,+5V*%
X171398000Y-108865000D03*
%TO.P,J2,5*%
%TO.N,/A2*%
X171398000Y-106325000D03*
%TO.P,J2,4*%
%TO.N,/A1*%
X171398000Y-103785000D03*
%TO.P,J2,3*%
%TO.N,/A0*%
X171398000Y-101245000D03*
%TO.P,J2,2*%
%TO.N,/A3*%
X171398000Y-98705000D03*
D11*
%TO.P,J2,1*%
%TO.N,/A4*%
X171398000Y-96165000D03*
%TD*%
D10*
%TO.P,J1,12*%
%TO.N,+5V*%
X124098000Y-118405000D03*
%TO.P,J1,11*%
%TO.N,/11(\u002A\u002A/MOSI)*%
X124098000Y-115865000D03*
%TO.P,J1,10*%
%TO.N,/9(\u002A\u002A)*%
X124098000Y-113325000D03*
%TO.P,J1,9*%
%TO.N,/8*%
X124098000Y-110785000D03*
%TO.P,J1,8*%
%TO.N,/7*%
X124098000Y-108245000D03*
%TO.P,J1,7*%
%TO.N,/6(\u002A\u002A)*%
X124098000Y-105705000D03*
%TO.P,J1,6*%
%TO.N,/5(\u002A\u002A)*%
X124098000Y-103165000D03*
%TO.P,J1,5*%
%TO.N,/4*%
X124098000Y-100625000D03*
%TO.P,J1,4*%
%TO.N,/3(\u002A\u002A)*%
X124098000Y-98085000D03*
%TO.P,J1,3*%
%TO.N,/2*%
X124098000Y-95545000D03*
%TO.P,J1,2*%
%TO.N,/1(Tx)*%
X124098000Y-93005000D03*
D11*
%TO.P,J1,1*%
%TO.N,/0(Rx)*%
X124098000Y-90465000D03*
%TD*%
D15*
%TO.P,P1,1*%
%TO.N,Net-(P1-Pad1)*%
X138938000Y-123825000D03*
%TO.P,P1,2*%
%TO.N,/IOREF*%
X141478000Y-123825000D03*
%TO.P,P1,3*%
%TO.N,/Reset*%
X144018000Y-123825000D03*
%TO.P,P1,4*%
%TO.N,+3V3*%
X146558000Y-123825000D03*
%TO.P,P1,5*%
%TO.N,+5V*%
X149098000Y-123825000D03*
%TO.P,P1,6*%
%TO.N,GND*%
X151638000Y-123825000D03*
%TO.P,P1,7*%
X154178000Y-123825000D03*
%TO.P,P1,8*%
%TO.N,/Vin*%
X156718000Y-123825000D03*
%TD*%
%TO.P,P2,1*%
%TO.N,/A0*%
X161798000Y-123825000D03*
%TO.P,P2,2*%
%TO.N,/A1*%
X164338000Y-123825000D03*
%TO.P,P2,3*%
%TO.N,/A2*%
X166878000Y-123825000D03*
%TO.P,P2,4*%
%TO.N,/A3*%
X169418000Y-123825000D03*
%TO.P,P2,5*%
%TO.N,/A4*%
X171958000Y-123825000D03*
%TO.P,P2,6*%
%TO.N,/A5*%
X174498000Y-123825000D03*
%TD*%
%TO.P,P3,1*%
%TO.N,/A5(SCL)*%
X129794000Y-75565000D03*
%TO.P,P3,2*%
%TO.N,/A4(SDA)*%
X132334000Y-75565000D03*
%TO.P,P3,3*%
%TO.N,/AREF*%
X134874000Y-75565000D03*
%TO.P,P3,4*%
%TO.N,GND*%
X137414000Y-75565000D03*
%TO.P,P3,5*%
%TO.N,/13(SCK)*%
X139954000Y-75565000D03*
%TO.P,P3,6*%
%TO.N,/12(MISO)*%
X142494000Y-75565000D03*
%TO.P,P3,7*%
%TO.N,/11(\u002A\u002A/MOSI)*%
X145034000Y-75565000D03*
%TO.P,P3,8*%
%TO.N,/10(\u002A\u002A/SS)*%
X147574000Y-75565000D03*
%TO.P,P3,9*%
%TO.N,/9(\u002A\u002A)*%
X150114000Y-75565000D03*
%TO.P,P3,10*%
%TO.N,/8*%
X152654000Y-75565000D03*
%TD*%
%TO.P,P4,1*%
%TO.N,/7*%
X156718000Y-75565000D03*
%TO.P,P4,2*%
%TO.N,/6(\u002A\u002A)*%
X159258000Y-75565000D03*
%TO.P,P4,3*%
%TO.N,/5(\u002A\u002A)*%
X161798000Y-75565000D03*
%TO.P,P4,4*%
%TO.N,/4*%
X164338000Y-75565000D03*
%TO.P,P4,5*%
%TO.N,/3(\u002A\u002A)*%
X166878000Y-75565000D03*
%TO.P,P4,6*%
%TO.N,/2*%
X169418000Y-75565000D03*
%TO.P,P4,7*%
%TO.N,/1(Tx)*%
X171958000Y-75565000D03*
%TO.P,P4,8*%
%TO.N,/0(Rx)*%
X174498000Y-75565000D03*
%TD*%
D16*
%TO.P,P5,1*%
%TO.N,Net-(P5-Pad1)*%
X124968000Y-123825000D03*
%TD*%
%TO.P,P6,1*%
%TO.N,Net-(P6-Pad1)*%
X177038000Y-118745000D03*
%TD*%
%TO.P,P7,1*%
%TO.N,Net-(P7-Pad1)*%
X126238000Y-75565000D03*
%TD*%
%TO.P,P8,1*%
%TO.N,Net-(P8-Pad1)*%
X177038000Y-90805000D03*
%TD*%
D17*
%TO.N,+5V*%
X138373000Y-80340000D03*
X140998000Y-88740000D03*
%TO.N,GND*%
X125898000Y-81065000D03*
X120798000Y-86165000D03*
X164798000Y-90365000D03*
X131598000Y-82365000D03*
X138398000Y-89165000D03*
X142698000Y-121065000D03*
X149298000Y-121065000D03*
%TO.N,/9(\u002A\u002A)*%
X142998000Y-108365000D03*
%TO.N,/8*%
X144998000Y-106365000D03*
%TO.N,/7*%
X146998000Y-104365000D03*
%TO.N,/6(\u002A\u002A)*%
X148998000Y-102365000D03*
%TO.N,/5(\u002A\u002A)*%
X150998000Y-100365000D03*
%TO.N,/4*%
X152998000Y-98365000D03*
%TO.N,/3(\u002A\u002A)*%
X154998000Y-96365000D03*
%TO.N,/2*%
X156998000Y-94365000D03*
%TO.N,/1(Tx)*%
X158998000Y-92365000D03*
%TO.N,/0(Rx)*%
X160998000Y-90365000D03*
%TO.N,/13(SCK)*%
X121398000Y-88365000D03*
%TO.N,/12(MISO)*%
X121398000Y-90065000D03*
%TD*%
D18*
%TO.N,+5V*%
X149098000Y-123825000D02*
X143675500Y-118402500D01*
X124100500Y-118402500D02*
X124098000Y-118405000D01*
X128448000Y-118402500D02*
X124100500Y-118402500D01*
D19*
X135948000Y-80340000D02*
X138373000Y-80340000D01*
X138373000Y-80340000D02*
X138373000Y-80340000D01*
D18*
X138660500Y-118402500D02*
X128448000Y-118402500D01*
D19*
X164058000Y-108865000D02*
X149098000Y-123825000D01*
X171598000Y-108865000D02*
X164058000Y-108865000D01*
X140998000Y-118365000D02*
X140960500Y-118402500D01*
D18*
X140960500Y-118402500D02*
X138660500Y-118402500D01*
D19*
X140998000Y-88740000D02*
X140998000Y-118365000D01*
D18*
X143675500Y-118402500D02*
X140960500Y-118402500D01*
D19*
%TO.N,/9(\u002A\u002A)*%
X150114000Y-75565000D02*
X150114000Y-76249000D01*
X150114000Y-76249000D02*
X142998000Y-83365000D01*
X142998000Y-83365000D02*
X142998000Y-108365000D01*
%TO.N,/8*%
X152654000Y-75565000D02*
X152654000Y-76709000D01*
X144998000Y-84365000D02*
X144998000Y-106365000D01*
X152654000Y-76709000D02*
X144998000Y-84365000D01*
%TO.N,/7*%
X156718000Y-75565000D02*
X146998000Y-85285000D01*
X146998000Y-85285000D02*
X146998000Y-104365000D01*
%TO.N,/6(\u002A\u002A)*%
X159258000Y-75565000D02*
X148998000Y-85825000D01*
X148998000Y-85825000D02*
X148998000Y-102365000D01*
%TO.N,/5(\u002A\u002A)*%
X150998000Y-86365000D02*
X150998000Y-100365000D01*
X161798000Y-75565000D02*
X150998000Y-86365000D01*
%TO.N,/4*%
X152998000Y-86905000D02*
X152998000Y-98365000D01*
X164338000Y-75565000D02*
X152998000Y-86905000D01*
%TO.N,/3(\u002A\u002A)*%
X154998000Y-87445000D02*
X154998000Y-96365000D01*
X166878000Y-75565000D02*
X154998000Y-87445000D01*
%TO.N,/2*%
X156998000Y-87985000D02*
X156998000Y-94365000D01*
X169418000Y-75565000D02*
X156998000Y-87985000D01*
%TO.N,/1(Tx)*%
X171958000Y-75565000D02*
X158998000Y-88525000D01*
X158998000Y-88525000D02*
X158998000Y-92365000D01*
%TO.N,/0(Rx)*%
X174498000Y-75565000D02*
X174498000Y-76865000D01*
X174498000Y-76865000D02*
X160998000Y-90365000D01*
%TO.N,/13(SCK)*%
X121398000Y-88365000D02*
X118198000Y-91565000D01*
X118198000Y-108595000D02*
X120973000Y-111370000D01*
X118198000Y-91565000D02*
X118198000Y-108595000D01*
%TO.N,/10(\u002A\u002A/SS)*%
X135898000Y-87241000D02*
X147574000Y-75565000D01*
X135898000Y-88365000D02*
X135898000Y-87241000D01*
%TO.N,/12(MISO)*%
X118697999Y-106554999D02*
X120973000Y-108830000D01*
X118697999Y-92765001D02*
X118697999Y-106554999D01*
X121398000Y-90065000D02*
X118697999Y-92765001D01*
%TO.N,/11(\u002A\u002A/MOSI)*%
X126598000Y-113365000D02*
X126598000Y-99365000D01*
X126598000Y-99365000D02*
X134972990Y-90990010D01*
X124098000Y-115865000D02*
X126598000Y-113365000D01*
X136334000Y-84265000D02*
X145034000Y-75565000D01*
X134972990Y-90990010D02*
X134972990Y-85651410D01*
X136334000Y-84290400D02*
X134972990Y-85651410D01*
X136334000Y-84265000D02*
X136334000Y-84290400D01*
X125656410Y-85651410D02*
X134972990Y-85651410D01*
X119398000Y-79393000D02*
X125656410Y-85651410D01*
X119398000Y-79365000D02*
X119398000Y-79393000D01*
%TO.N,/A4*%
X171958000Y-123825000D02*
X172773001Y-123009999D01*
X171398000Y-96165000D02*
X173898000Y-98665000D01*
X173898000Y-121885000D02*
X172773001Y-123009999D01*
X173898000Y-98665000D02*
X173898000Y-121885000D01*
%TO.N,Net-(D1-Pad2)*%
X118488020Y-81815020D02*
X116088000Y-79415000D01*
X125038000Y-88365000D02*
X118488020Y-81815020D01*
X133898000Y-88365000D02*
X125038000Y-88365000D01*
%TO.N,Net-(D2-Pad2)*%
X122913000Y-80340000D02*
X121938000Y-79365000D01*
X133948000Y-84215000D02*
X133898000Y-84265000D01*
X133948000Y-80340000D02*
X133948000Y-84215000D01*
X126838000Y-84265000D02*
X122913000Y-80340000D01*
X133898000Y-84265000D02*
X126838000Y-84265000D01*
%TD*%
D20*
%TO.N,GND*%
X124166406Y-73864887D02*
X123874536Y-74301702D01*
X123673492Y-74787065D01*
X123571000Y-75302323D01*
X123571000Y-75827677D01*
X123673492Y-76342935D01*
X123874536Y-76828298D01*
X124166406Y-77265113D01*
X124537887Y-77636594D01*
X124974702Y-77928464D01*
X125460065Y-78129508D01*
X125975323Y-78232000D01*
X126500677Y-78232000D01*
X127015935Y-78129508D01*
X127501298Y-77928464D01*
X127938113Y-77636594D01*
X128309594Y-77265113D01*
X128601464Y-76828298D01*
X128657001Y-76694219D01*
X128729203Y-76782197D01*
X128957395Y-76969469D01*
X129217737Y-77108625D01*
X129500224Y-77194316D01*
X129794000Y-77223251D01*
X130087777Y-77194316D01*
X130370264Y-77108625D01*
X130630606Y-76969469D01*
X130858797Y-76782197D01*
X131046069Y-76554006D01*
X131064000Y-76520459D01*
X131081931Y-76554006D01*
X131269203Y-76782197D01*
X131497395Y-76969469D01*
X131757737Y-77108625D01*
X132040224Y-77194316D01*
X132334000Y-77223251D01*
X132627777Y-77194316D01*
X132910264Y-77108625D01*
X133170606Y-76969469D01*
X133398797Y-76782197D01*
X133586069Y-76554006D01*
X133604000Y-76520459D01*
X133621931Y-76554006D01*
X133809203Y-76782197D01*
X134037395Y-76969469D01*
X134297737Y-77108625D01*
X134580224Y-77194316D01*
X134874000Y-77223251D01*
X135167777Y-77194316D01*
X135450264Y-77108625D01*
X135710606Y-76969469D01*
X135938797Y-76782197D01*
X136126069Y-76554006D01*
X136147424Y-76514053D01*
X136295514Y-76716729D01*
X136511965Y-76915733D01*
X136763081Y-77068686D01*
X137039211Y-77169709D01*
X137054974Y-77172358D01*
X137287000Y-77051217D01*
X137287000Y-75692000D01*
X137267000Y-75692000D01*
X137267000Y-75438000D01*
X137287000Y-75438000D01*
X137287000Y-74078783D01*
X137054974Y-73957642D01*
X137039211Y-73960291D01*
X136763081Y-74061314D01*
X136511965Y-74214267D01*
X136295514Y-74413271D01*
X136147424Y-74615947D01*
X136126069Y-74575994D01*
X135938797Y-74347803D01*
X135710605Y-74160531D01*
X135450263Y-74021375D01*
X135167776Y-73935684D01*
X134874000Y-73906749D01*
X134580223Y-73935684D01*
X134297736Y-74021375D01*
X134037394Y-74160531D01*
X133809203Y-74347803D01*
X133621931Y-74575995D01*
X133604000Y-74609541D01*
X133586069Y-74575994D01*
X133398797Y-74347803D01*
X133170605Y-74160531D01*
X132910263Y-74021375D01*
X132627776Y-73935684D01*
X132334000Y-73906749D01*
X132040223Y-73935684D01*
X131757736Y-74021375D01*
X131497394Y-74160531D01*
X131269203Y-74347803D01*
X131081931Y-74575995D01*
X131064000Y-74609541D01*
X131046069Y-74575994D01*
X130858797Y-74347803D01*
X130630605Y-74160531D01*
X130370263Y-74021375D01*
X130087776Y-73935684D01*
X129794000Y-73906749D01*
X129500223Y-73935684D01*
X129217736Y-74021375D01*
X128957394Y-74160531D01*
X128729203Y-74347803D01*
X128657001Y-74435781D01*
X128601464Y-74301702D01*
X128309594Y-73864887D01*
X128179707Y-73735000D01*
X175219909Y-73735000D01*
X176328001Y-74843093D01*
X176328000Y-85944125D01*
X176324565Y-85979000D01*
X176328000Y-86013875D01*
X176328000Y-86013876D01*
X176338273Y-86118183D01*
X176378872Y-86252019D01*
X176444800Y-86375362D01*
X176533525Y-86483474D01*
X176560617Y-86505708D01*
X178868001Y-88813093D01*
X178868001Y-88863294D01*
X178738113Y-88733406D01*
X178301298Y-88441536D01*
X177815935Y-88240492D01*
X177300677Y-88138000D01*
X176775323Y-88138000D01*
X176260065Y-88240492D01*
X175774702Y-88441536D01*
X175337887Y-88733406D01*
X174966406Y-89104887D01*
X174674536Y-89541702D01*
X174473492Y-90027065D01*
X174371000Y-90542323D01*
X174371000Y-91067677D01*
X174473492Y-91582935D01*
X174674536Y-92068298D01*
X174966406Y-92505113D01*
X175337887Y-92876594D01*
X175774702Y-93168464D01*
X176260065Y-93369508D01*
X176775323Y-93472000D01*
X177300677Y-93472000D01*
X177815935Y-93369508D01*
X178301298Y-93168464D01*
X178738113Y-92876594D01*
X178868001Y-92746706D01*
X178868000Y-116803293D01*
X178738113Y-116673406D01*
X178301298Y-116381536D01*
X177815935Y-116180492D01*
X177300677Y-116078000D01*
X176775323Y-116078000D01*
X176260065Y-116180492D01*
X175774702Y-116381536D01*
X175337887Y-116673406D01*
X174966406Y-117044887D01*
X174674536Y-117481702D01*
X174658000Y-117521623D01*
X174658000Y-98702323D01*
X174661676Y-98665000D01*
X174658000Y-98627677D01*
X174658000Y-98627667D01*
X174647003Y-98516014D01*
X174603546Y-98372753D01*
X174550179Y-98272911D01*
X174532974Y-98240723D01*
X174461799Y-98153997D01*
X174438001Y-98124999D01*
X174409004Y-98101202D01*
X172886072Y-96578271D01*
X172886072Y-95315000D01*
X172873812Y-95190518D01*
X172837502Y-95070820D01*
X172778537Y-94960506D01*
X172699185Y-94863815D01*
X172602494Y-94784463D01*
X172492180Y-94725498D01*
X172372482Y-94689188D01*
X172248000Y-94676928D01*
X170548000Y-94676928D01*
X170423518Y-94689188D01*
X170303820Y-94725498D01*
X170193506Y-94784463D01*
X170096815Y-94863815D01*
X170017463Y-94960506D01*
X169958498Y-95070820D01*
X169922188Y-95190518D01*
X169909928Y-95315000D01*
X169909928Y-97015000D01*
X169922188Y-97139482D01*
X169958498Y-97259180D01*
X170017463Y-97369494D01*
X170096815Y-97466185D01*
X170193506Y-97545537D01*
X170303820Y-97604502D01*
X170376380Y-97626513D01*
X170244525Y-97758368D01*
X170082010Y-98001589D01*
X169970068Y-98271842D01*
X169913000Y-98558740D01*
X169913000Y-98851260D01*
X169970068Y-99138158D01*
X170082010Y-99408411D01*
X170244525Y-99651632D01*
X170451368Y-99858475D01*
X170625760Y-99975000D01*
X170451368Y-100091525D01*
X170244525Y-100298368D01*
X170082010Y-100541589D01*
X169970068Y-100811842D01*
X169913000Y-101098740D01*
X169913000Y-101391260D01*
X169970068Y-101678158D01*
X170082010Y-101948411D01*
X170244525Y-102191632D01*
X170451368Y-102398475D01*
X170625760Y-102515000D01*
X170451368Y-102631525D01*
X170244525Y-102838368D01*
X170082010Y-103081589D01*
X169970068Y-103351842D01*
X169913000Y-103638740D01*
X169913000Y-103931260D01*
X169970068Y-104218158D01*
X170082010Y-104488411D01*
X170244525Y-104731632D01*
X170451368Y-104938475D01*
X170625760Y-105055000D01*
X170451368Y-105171525D01*
X170244525Y-105378368D01*
X170082010Y-105621589D01*
X169970068Y-105891842D01*
X169913000Y-106178740D01*
X169913000Y-106471260D01*
X169970068Y-106758158D01*
X170082010Y-107028411D01*
X170244525Y-107271632D01*
X170451368Y-107478475D01*
X170625760Y-107595000D01*
X170451368Y-107711525D01*
X170244525Y-107918368D01*
X170119822Y-108105000D01*
X164095323Y-108105000D01*
X164058000Y-108101324D01*
X164020677Y-108105000D01*
X164020667Y-108105000D01*
X163909014Y-108115997D01*
X163765753Y-108159454D01*
X163633723Y-108230026D01*
X163581468Y-108272911D01*
X163517999Y-108324999D01*
X163494201Y-108353997D01*
X149591830Y-122256369D01*
X149391776Y-122195684D01*
X149098000Y-122166749D01*
X148804223Y-122195684D01*
X148739804Y-122215225D01*
X144332034Y-117807456D01*
X144304317Y-117773683D01*
X144169559Y-117663089D01*
X144015813Y-117580911D01*
X143848990Y-117530305D01*
X143718977Y-117517500D01*
X143718969Y-117517500D01*
X143675500Y-117513219D01*
X143632031Y-117517500D01*
X141758000Y-117517500D01*
X141758000Y-89285535D01*
X141826586Y-89182889D01*
X141897068Y-89012729D01*
X141933000Y-88832089D01*
X141933000Y-88647911D01*
X141897068Y-88467271D01*
X141826586Y-88297111D01*
X141724262Y-88143972D01*
X141594028Y-88013738D01*
X141440889Y-87911414D01*
X141270729Y-87840932D01*
X141090089Y-87805000D01*
X140905911Y-87805000D01*
X140725271Y-87840932D01*
X140555111Y-87911414D01*
X140401972Y-88013738D01*
X140271738Y-88143972D01*
X140169414Y-88297111D01*
X140098932Y-88467271D01*
X140063000Y-88647911D01*
X140063000Y-88832089D01*
X140098932Y-89012729D01*
X140169414Y-89182889D01*
X140238000Y-89285535D01*
X140238001Y-117517500D01*
X129616995Y-117517500D01*
X129550962Y-117437038D01*
X129544406Y-117431658D01*
X129624185Y-117366185D01*
X129703537Y-117269494D01*
X129762502Y-117159180D01*
X129798812Y-117039482D01*
X129811072Y-116915000D01*
X129808000Y-116613250D01*
X129649250Y-116454500D01*
X128575000Y-116454500D01*
X128575000Y-116474500D01*
X128321000Y-116474500D01*
X128321000Y-116454500D01*
X127246750Y-116454500D01*
X127088000Y-116613250D01*
X127084928Y-116915000D01*
X127097188Y-117039482D01*
X127133498Y-117159180D01*
X127192463Y-117269494D01*
X127271815Y-117366185D01*
X127351594Y-117431658D01*
X127345038Y-117437038D01*
X127279005Y-117517500D01*
X125290986Y-117517500D01*
X125251475Y-117458368D01*
X125044632Y-117251525D01*
X124870240Y-117135000D01*
X125044632Y-117018475D01*
X125251475Y-116811632D01*
X125413990Y-116568411D01*
X125525932Y-116298158D01*
X125583000Y-116011260D01*
X125583000Y-115740000D01*
X127084928Y-115740000D01*
X127088000Y-116041750D01*
X127246750Y-116200500D01*
X128321000Y-116200500D01*
X128321000Y-115263750D01*
X128575000Y-115263750D01*
X128575000Y-116200500D01*
X129649250Y-116200500D01*
X129808000Y-116041750D01*
X129811072Y-115740000D01*
X129798812Y-115615518D01*
X129762502Y-115495820D01*
X129703537Y-115385506D01*
X129624185Y-115288815D01*
X129527494Y-115209463D01*
X129417180Y-115150498D01*
X129297482Y-115114188D01*
X129173000Y-115101928D01*
X128733750Y-115105000D01*
X128575000Y-115263750D01*
X128321000Y-115263750D01*
X128162250Y-115105000D01*
X127723000Y-115101928D01*
X127598518Y-115114188D01*
X127478820Y-115150498D01*
X127368506Y-115209463D01*
X127271815Y-115288815D01*
X127192463Y-115385506D01*
X127133498Y-115495820D01*
X127097188Y-115615518D01*
X127084928Y-115740000D01*
X125583000Y-115740000D01*
X125583000Y-115718740D01*
X125539209Y-115498592D01*
X127109004Y-113928798D01*
X127138001Y-113905001D01*
X127209401Y-113818000D01*
X127232974Y-113789277D01*
X127303546Y-113657247D01*
X127324518Y-113588110D01*
X127347003Y-113513986D01*
X127358000Y-113402333D01*
X127358000Y-113402323D01*
X127361676Y-113365000D01*
X127358000Y-113327677D01*
X127358000Y-99679801D01*
X135483999Y-91553804D01*
X135512991Y-91530011D01*
X135536785Y-91501018D01*
X135536789Y-91501014D01*
X135607963Y-91414287D01*
X135607964Y-91414286D01*
X135678536Y-91282257D01*
X135721993Y-91138996D01*
X135732990Y-91027343D01*
X135732990Y-91027334D01*
X135736666Y-90990011D01*
X135732990Y-90952688D01*
X135732990Y-89703072D01*
X136248001Y-89703072D01*
X136421255Y-89686008D01*
X136587851Y-89635472D01*
X136741387Y-89553405D01*
X136875962Y-89442962D01*
X136986405Y-89308387D01*
X137068472Y-89154851D01*
X137119008Y-88988255D01*
X137136072Y-88815001D01*
X137136072Y-87914999D01*
X137119008Y-87741745D01*
X137068472Y-87575149D01*
X136986405Y-87421613D01*
X136898861Y-87314940D01*
X147080171Y-77133631D01*
X147280224Y-77194316D01*
X147574000Y-77223251D01*
X147867777Y-77194316D01*
X148150264Y-77108625D01*
X148213228Y-77074970D01*
X142487003Y-82801196D01*
X142457999Y-82824999D01*
X142402871Y-82892174D01*
X142363026Y-82940724D01*
X142292455Y-83072753D01*
X142292454Y-83072754D01*
X142248997Y-83216015D01*
X142238000Y-83327668D01*
X142238000Y-83327678D01*
X142234324Y-83365000D01*
X142238000Y-83402322D01*
X142238001Y-107819463D01*
X142169414Y-107922111D01*
X142098932Y-108092271D01*
X142063000Y-108272911D01*
X142063000Y-108457089D01*
X142098932Y-108637729D01*
X142169414Y-108807889D01*
X142271738Y-108961028D01*
X142401972Y-109091262D01*
X142555111Y-109193586D01*
X142725271Y-109264068D01*
X142905911Y-109300000D01*
X143090089Y-109300000D01*
X143270729Y-109264068D01*
X143440889Y-109193586D01*
X143594028Y-109091262D01*
X143724262Y-108961028D01*
X143826586Y-108807889D01*
X143897068Y-108637729D01*
X143933000Y-108457089D01*
X143933000Y-108272911D01*
X143897068Y-108092271D01*
X143826586Y-107922111D01*
X143758000Y-107819465D01*
X143758000Y-83679801D01*
X150225537Y-77212265D01*
X150407777Y-77194316D01*
X150690264Y-77108625D01*
X150950606Y-76969469D01*
X151178797Y-76782197D01*
X151366069Y-76554006D01*
X151384000Y-76520459D01*
X151401931Y-76554006D01*
X151551699Y-76736499D01*
X144487003Y-83801196D01*
X144457999Y-83824999D01*
X144424249Y-83866124D01*
X144363026Y-83940724D01*
X144332329Y-83998154D01*
X144292454Y-84072754D01*
X144248997Y-84216015D01*
X144238000Y-84327668D01*
X144238000Y-84327678D01*
X144234324Y-84365000D01*
X144238000Y-84402322D01*
X144238001Y-105819463D01*
X144169414Y-105922111D01*
X144098932Y-106092271D01*
X144063000Y-106272911D01*
X144063000Y-106457089D01*
X144098932Y-106637729D01*
X144169414Y-106807889D01*
X144271738Y-106961028D01*
X144401972Y-107091262D01*
X144555111Y-107193586D01*
X144725271Y-107264068D01*
X144905911Y-107300000D01*
X145090089Y-107300000D01*
X145270729Y-107264068D01*
X145440889Y-107193586D01*
X145594028Y-107091262D01*
X145724262Y-106961028D01*
X145826586Y-106807889D01*
X145897068Y-106637729D01*
X145933000Y-106457089D01*
X145933000Y-106272911D01*
X145897068Y-106092271D01*
X145826586Y-105922111D01*
X145758000Y-105819465D01*
X145758000Y-104272911D01*
X146063000Y-104272911D01*
X146063000Y-104457089D01*
X146098932Y-104637729D01*
X146169414Y-104807889D01*
X146271738Y-104961028D01*
X146401972Y-105091262D01*
X146555111Y-105193586D01*
X146725271Y-105264068D01*
X146905911Y-105300000D01*
X147090089Y-105300000D01*
X147270729Y-105264068D01*
X147440889Y-105193586D01*
X147594028Y-105091262D01*
X147724262Y-104961028D01*
X147826586Y-104807889D01*
X147897068Y-104637729D01*
X147933000Y-104457089D01*
X147933000Y-104272911D01*
X147897068Y-104092271D01*
X147826586Y-103922111D01*
X147758000Y-103819465D01*
X147758000Y-85599801D01*
X156224171Y-77133631D01*
X156424224Y-77194316D01*
X156542257Y-77205941D01*
X148487003Y-85261196D01*
X148457999Y-85284999D01*
X148429380Y-85319872D01*
X148363026Y-85400724D01*
X148345248Y-85433985D01*
X148292454Y-85532754D01*
X148248997Y-85676015D01*
X148238000Y-85787668D01*
X148238000Y-85787678D01*
X148234324Y-85825000D01*
X148238000Y-85862322D01*
X148238001Y-101819463D01*
X148169414Y-101922111D01*
X148098932Y-102092271D01*
X148063000Y-102272911D01*
X148063000Y-102457089D01*
X148098932Y-102637729D01*
X148169414Y-102807889D01*
X148271738Y-102961028D01*
X148401972Y-103091262D01*
X148555111Y-103193586D01*
X148725271Y-103264068D01*
X148905911Y-103300000D01*
X149090089Y-103300000D01*
X149270729Y-103264068D01*
X149440889Y-103193586D01*
X149594028Y-103091262D01*
X149724262Y-102961028D01*
X149826586Y-102807889D01*
X149897068Y-102637729D01*
X149933000Y-102457089D01*
X149933000Y-102272911D01*
X149897068Y-102092271D01*
X149826586Y-101922111D01*
X149758000Y-101819465D01*
X149758000Y-86139801D01*
X158764171Y-77133631D01*
X158964224Y-77194316D01*
X159082256Y-77205941D01*
X150487003Y-85801196D01*
X150457999Y-85824999D01*
X150402871Y-85892174D01*
X150363026Y-85940724D01*
X150323925Y-86013876D01*
X150292454Y-86072754D01*
X150248997Y-86216015D01*
X150238000Y-86327668D01*
X150238000Y-86327678D01*
X150234324Y-86365000D01*
X150238000Y-86402322D01*
X150238001Y-99819463D01*
X150169414Y-99922111D01*
X150098932Y-100092271D01*
X150063000Y-100272911D01*
X150063000Y-100457089D01*
X150098932Y-100637729D01*
X150169414Y-100807889D01*
X150271738Y-100961028D01*
X150401972Y-101091262D01*
X150555111Y-101193586D01*
X150725271Y-101264068D01*
X150905911Y-101300000D01*
X151090089Y-101300000D01*
X151270729Y-101264068D01*
X151440889Y-101193586D01*
X151594028Y-101091262D01*
X151724262Y-100961028D01*
X151826586Y-100807889D01*
X151897068Y-100637729D01*
X151933000Y-100457089D01*
X151933000Y-100272911D01*
X151897068Y-100092271D01*
X151826586Y-99922111D01*
X151758000Y-99819465D01*
X151758000Y-86679801D01*
X161304172Y-77133631D01*
X161504224Y-77194316D01*
X161622257Y-77205941D01*
X152487003Y-86341196D01*
X152457999Y-86364999D01*
X152428937Y-86400412D01*
X152363026Y-86480724D01*
X152333772Y-86535454D01*
X152292454Y-86612754D01*
X152248997Y-86756015D01*
X152238000Y-86867668D01*
X152238000Y-86867678D01*
X152234324Y-86905000D01*
X152238000Y-86942322D01*
X152238001Y-97819463D01*
X152169414Y-97922111D01*
X152098932Y-98092271D01*
X152063000Y-98272911D01*
X152063000Y-98457089D01*
X152098932Y-98637729D01*
X152169414Y-98807889D01*
X152271738Y-98961028D01*
X152401972Y-99091262D01*
X152555111Y-99193586D01*
X152725271Y-99264068D01*
X152905911Y-99300000D01*
X153090089Y-99300000D01*
X153270729Y-99264068D01*
X153440889Y-99193586D01*
X153594028Y-99091262D01*
X153724262Y-98961028D01*
X153826586Y-98807889D01*
X153897068Y-98637729D01*
X153933000Y-98457089D01*
X153933000Y-98272911D01*
X153897068Y-98092271D01*
X153826586Y-97922111D01*
X153758000Y-97819465D01*
X153758000Y-87219801D01*
X163844171Y-77133631D01*
X164044224Y-77194316D01*
X164162257Y-77205941D01*
X154487003Y-86881196D01*
X154457999Y-86904999D01*
X154422091Y-86948754D01*
X154363026Y-87020724D01*
X154324920Y-87092015D01*
X154292454Y-87152754D01*
X154248997Y-87296015D01*
X154238000Y-87407668D01*
X154238000Y-87407678D01*
X154234324Y-87445000D01*
X154238000Y-87482322D01*
X154238001Y-95819463D01*
X154169414Y-95922111D01*
X154098932Y-96092271D01*
X154063000Y-96272911D01*
X154063000Y-96457089D01*
X154098932Y-96637729D01*
X154169414Y-96807889D01*
X154271738Y-96961028D01*
X154401972Y-97091262D01*
X154555111Y-97193586D01*
X154725271Y-97264068D01*
X154905911Y-97300000D01*
X155090089Y-97300000D01*
X155270729Y-97264068D01*
X155440889Y-97193586D01*
X155594028Y-97091262D01*
X155724262Y-96961028D01*
X155826586Y-96807889D01*
X155897068Y-96637729D01*
X155933000Y-96457089D01*
X155933000Y-96272911D01*
X155897068Y-96092271D01*
X155826586Y-95922111D01*
X155758000Y-95819465D01*
X155758000Y-87759801D01*
X166384171Y-77133631D01*
X166584224Y-77194316D01*
X166702256Y-77205941D01*
X156487003Y-87421196D01*
X156457999Y-87444999D01*
X156402871Y-87512174D01*
X156363026Y-87560724D01*
X156305324Y-87668676D01*
X156292454Y-87692754D01*
X156248997Y-87836015D01*
X156238000Y-87947668D01*
X156238000Y-87947678D01*
X156234324Y-87985000D01*
X156238000Y-88022323D01*
X156238001Y-93819463D01*
X156169414Y-93922111D01*
X156098932Y-94092271D01*
X156063000Y-94272911D01*
X156063000Y-94457089D01*
X156098932Y-94637729D01*
X156169414Y-94807889D01*
X156271738Y-94961028D01*
X156401972Y-95091262D01*
X156555111Y-95193586D01*
X156725271Y-95264068D01*
X156905911Y-95300000D01*
X157090089Y-95300000D01*
X157270729Y-95264068D01*
X157440889Y-95193586D01*
X157594028Y-95091262D01*
X157724262Y-94961028D01*
X157826586Y-94807889D01*
X157897068Y-94637729D01*
X157933000Y-94457089D01*
X157933000Y-94272911D01*
X157897068Y-94092271D01*
X157826586Y-93922111D01*
X157758000Y-93819465D01*
X157758000Y-88299801D01*
X168924172Y-77133631D01*
X169124224Y-77194316D01*
X169242257Y-77205941D01*
X158487003Y-87961196D01*
X158457999Y-87984999D01*
X158433768Y-88014525D01*
X158363026Y-88100724D01*
X158313168Y-88194002D01*
X158292454Y-88232754D01*
X158248997Y-88376015D01*
X158238000Y-88487668D01*
X158238000Y-88487678D01*
X158234324Y-88525000D01*
X158238000Y-88562323D01*
X158238001Y-91819463D01*
X158169414Y-91922111D01*
X158098932Y-92092271D01*
X158063000Y-92272911D01*
X158063000Y-92457089D01*
X158098932Y-92637729D01*
X158169414Y-92807889D01*
X158271738Y-92961028D01*
X158401972Y-93091262D01*
X158555111Y-93193586D01*
X158725271Y-93264068D01*
X158905911Y-93300000D01*
X159090089Y-93300000D01*
X159270729Y-93264068D01*
X159440889Y-93193586D01*
X159594028Y-93091262D01*
X159724262Y-92961028D01*
X159826586Y-92807889D01*
X159897068Y-92637729D01*
X159933000Y-92457089D01*
X159933000Y-92272911D01*
X159897068Y-92092271D01*
X159826586Y-91922111D01*
X159758000Y-91819465D01*
X159758000Y-88839801D01*
X171464171Y-77133631D01*
X171664224Y-77194316D01*
X171958000Y-77223251D01*
X172251777Y-77194316D01*
X172534264Y-77108625D01*
X172794606Y-76969469D01*
X173022797Y-76782197D01*
X173210069Y-76554006D01*
X173228000Y-76520459D01*
X173245931Y-76554006D01*
X173433203Y-76782197D01*
X173473187Y-76815011D01*
X160846352Y-89441847D01*
X160725271Y-89465932D01*
X160555111Y-89536414D01*
X160401972Y-89638738D01*
X160271738Y-89768972D01*
X160169414Y-89922111D01*
X160098932Y-90092271D01*
X160063000Y-90272911D01*
X160063000Y-90457089D01*
X160098932Y-90637729D01*
X160169414Y-90807889D01*
X160271738Y-90961028D01*
X160401972Y-91091262D01*
X160555111Y-91193586D01*
X160725271Y-91264068D01*
X160905911Y-91300000D01*
X161090089Y-91300000D01*
X161270729Y-91264068D01*
X161440889Y-91193586D01*
X161594028Y-91091262D01*
X161724262Y-90961028D01*
X161826586Y-90807889D01*
X161897068Y-90637729D01*
X161921153Y-90516648D01*
X175009003Y-77428799D01*
X175038001Y-77405001D01*
X175088085Y-77343974D01*
X175132974Y-77289277D01*
X175203546Y-77157247D01*
X175235709Y-77051217D01*
X175246167Y-77016740D01*
X175334606Y-76969469D01*
X175562797Y-76782197D01*
X175750069Y-76554006D01*
X175889225Y-76293663D01*
X175974916Y-76011176D01*
X175996600Y-75791018D01*
X175996600Y-75338981D01*
X175974916Y-75118823D01*
X175889225Y-74836336D01*
X175750069Y-74575994D01*
X175562797Y-74347803D01*
X175334605Y-74160531D01*
X175074263Y-74021375D01*
X174791776Y-73935684D01*
X174498000Y-73906749D01*
X174204223Y-73935684D01*
X173921736Y-74021375D01*
X173661394Y-74160531D01*
X173433203Y-74347803D01*
X173245931Y-74575995D01*
X173228000Y-74609541D01*
X173210069Y-74575994D01*
X173022797Y-74347803D01*
X172794605Y-74160531D01*
X172534263Y-74021375D01*
X172251776Y-73935684D01*
X171958000Y-73906749D01*
X171664223Y-73935684D01*
X171381736Y-74021375D01*
X171121394Y-74160531D01*
X170893203Y-74347803D01*
X170705931Y-74575995D01*
X170688000Y-74609541D01*
X170670069Y-74575994D01*
X170482797Y-74347803D01*
X170254605Y-74160531D01*
X169994263Y-74021375D01*
X169711776Y-73935684D01*
X169418000Y-73906749D01*
X169124223Y-73935684D01*
X168841736Y-74021375D01*
X168581394Y-74160531D01*
X168353203Y-74347803D01*
X168165931Y-74575995D01*
X168148000Y-74609541D01*
X168130069Y-74575994D01*
X167942797Y-74347803D01*
X167714605Y-74160531D01*
X167454263Y-74021375D01*
X167171776Y-73935684D01*
X166878000Y-73906749D01*
X166584223Y-73935684D01*
X166301736Y-74021375D01*
X166041394Y-74160531D01*
X165813203Y-74347803D01*
X165625931Y-74575995D01*
X165608000Y-74609541D01*
X165590069Y-74575994D01*
X165402797Y-74347803D01*
X165174605Y-74160531D01*
X164914263Y-74021375D01*
X164631776Y-73935684D01*
X164338000Y-73906749D01*
X164044223Y-73935684D01*
X163761736Y-74021375D01*
X163501394Y-74160531D01*
X163273203Y-74347803D01*
X163085931Y-74575995D01*
X163068000Y-74609541D01*
X163050069Y-74575994D01*
X162862797Y-74347803D01*
X162634605Y-74160531D01*
X162374263Y-74021375D01*
X162091776Y-73935684D01*
X161798000Y-73906749D01*
X161504223Y-73935684D01*
X161221736Y-74021375D01*
X160961394Y-74160531D01*
X160733203Y-74347803D01*
X160545931Y-74575995D01*
X160528000Y-74609541D01*
X160510069Y-74575994D01*
X160322797Y-74347803D01*
X160094605Y-74160531D01*
X159834263Y-74021375D01*
X159551776Y-73935684D01*
X159258000Y-73906749D01*
X158964223Y-73935684D01*
X158681736Y-74021375D01*
X158421394Y-74160531D01*
X158193203Y-74347803D01*
X158005931Y-74575995D01*
X157988000Y-74609541D01*
X157970069Y-74575994D01*
X157782797Y-74347803D01*
X157554605Y-74160531D01*
X157294263Y-74021375D01*
X157011776Y-73935684D01*
X156718000Y-73906749D01*
X156424223Y-73935684D01*
X156141736Y-74021375D01*
X155881394Y-74160531D01*
X155653203Y-74347803D01*
X155465931Y-74575995D01*
X155326775Y-74836337D01*
X155241084Y-75118824D01*
X155219400Y-75338982D01*
X155219400Y-75791019D01*
X155237133Y-75971065D01*
X146487003Y-84721196D01*
X146457999Y-84744999D01*
X146411710Y-84801403D01*
X146363026Y-84860724D01*
X146307822Y-84964003D01*
X146292454Y-84992754D01*
X146248997Y-85136015D01*
X146238000Y-85247668D01*
X146238000Y-85247678D01*
X146234324Y-85285000D01*
X146238000Y-85322322D01*
X146238001Y-103819463D01*
X146169414Y-103922111D01*
X146098932Y-104092271D01*
X146063000Y-104272911D01*
X145758000Y-104272911D01*
X145758000Y-84679801D01*
X153165003Y-77272799D01*
X153194001Y-77249001D01*
X153238880Y-77194316D01*
X153288974Y-77133277D01*
X153330904Y-77054832D01*
X153490606Y-76969469D01*
X153718797Y-76782197D01*
X153906069Y-76554006D01*
X154045225Y-76293663D01*
X154130916Y-76011176D01*
X154152600Y-75791018D01*
X154152600Y-75338981D01*
X154130916Y-75118823D01*
X154045225Y-74836336D01*
X153906069Y-74575994D01*
X153718797Y-74347803D01*
X153490605Y-74160531D01*
X153230263Y-74021375D01*
X152947776Y-73935684D01*
X152654000Y-73906749D01*
X152360223Y-73935684D01*
X152077736Y-74021375D01*
X151817394Y-74160531D01*
X151589203Y-74347803D01*
X151401931Y-74575995D01*
X151384000Y-74609541D01*
X151366069Y-74575994D01*
X151178797Y-74347803D01*
X150950605Y-74160531D01*
X150690263Y-74021375D01*
X150407776Y-73935684D01*
X150114000Y-73906749D01*
X149820223Y-73935684D01*
X149537736Y-74021375D01*
X149277394Y-74160531D01*
X149049203Y-74347803D01*
X148861931Y-74575995D01*
X148844000Y-74609541D01*
X148826069Y-74575994D01*
X148638797Y-74347803D01*
X148410605Y-74160531D01*
X148150263Y-74021375D01*
X147867776Y-73935684D01*
X147574000Y-73906749D01*
X147280223Y-73935684D01*
X146997736Y-74021375D01*
X146737394Y-74160531D01*
X146509203Y-74347803D01*
X146321931Y-74575995D01*
X146304000Y-74609541D01*
X146286069Y-74575994D01*
X146098797Y-74347803D01*
X145870605Y-74160531D01*
X145610263Y-74021375D01*
X145327776Y-73935684D01*
X145034000Y-73906749D01*
X144740223Y-73935684D01*
X144457736Y-74021375D01*
X144197394Y-74160531D01*
X143969203Y-74347803D01*
X143781931Y-74575995D01*
X143764000Y-74609541D01*
X143746069Y-74575994D01*
X143558797Y-74347803D01*
X143330605Y-74160531D01*
X143070263Y-74021375D01*
X142787776Y-73935684D01*
X142494000Y-73906749D01*
X142200223Y-73935684D01*
X141917736Y-74021375D01*
X141657394Y-74160531D01*
X141429203Y-74347803D01*
X141241931Y-74575995D01*
X141224000Y-74609541D01*
X141206069Y-74575994D01*
X141018797Y-74347803D01*
X140790605Y-74160531D01*
X140530263Y-74021375D01*
X140247776Y-73935684D01*
X139954000Y-73906749D01*
X139660223Y-73935684D01*
X139377736Y-74021375D01*
X139117394Y-74160531D01*
X138889203Y-74347803D01*
X138701931Y-74575995D01*
X138680576Y-74615947D01*
X138532486Y-74413271D01*
X138316035Y-74214267D01*
X138064919Y-74061314D01*
X137788789Y-73960291D01*
X137773026Y-73957642D01*
X137541000Y-74078783D01*
X137541000Y-75438000D01*
X137561000Y-75438000D01*
X137561000Y-75692000D01*
X137541000Y-75692000D01*
X137541000Y-77051217D01*
X137773026Y-77172358D01*
X137788789Y-77169709D01*
X138064919Y-77068686D01*
X138316035Y-76915733D01*
X138532486Y-76716729D01*
X138680576Y-76514053D01*
X138701931Y-76554006D01*
X138889203Y-76782197D01*
X139117395Y-76969469D01*
X139377737Y-77108625D01*
X139660224Y-77194316D01*
X139954000Y-77223251D01*
X140247777Y-77194316D01*
X140530264Y-77108625D01*
X140790606Y-76969469D01*
X141018797Y-76782197D01*
X141206069Y-76554006D01*
X141224000Y-76520459D01*
X141241931Y-76554006D01*
X141429203Y-76782197D01*
X141657395Y-76969469D01*
X141917737Y-77108625D01*
X142200224Y-77194316D01*
X142318257Y-77205941D01*
X139302739Y-80221460D01*
X139272068Y-80067271D01*
X139201586Y-79897111D01*
X139099262Y-79743972D01*
X138969028Y-79613738D01*
X138815889Y-79511414D01*
X138645729Y-79440932D01*
X138465089Y-79405000D01*
X138280911Y-79405000D01*
X138100271Y-79440932D01*
X137930111Y-79511414D01*
X137827465Y-79580000D01*
X137127527Y-79580000D01*
X137118472Y-79550149D01*
X137036405Y-79396613D01*
X136925962Y-79262038D01*
X136791387Y-79151595D01*
X136637851Y-79069528D01*
X136471255Y-79018992D01*
X136298001Y-79001928D01*
X135597999Y-79001928D01*
X135424745Y-79018992D01*
X135258149Y-79069528D01*
X135104613Y-79151595D01*
X134970038Y-79262038D01*
X134948000Y-79288891D01*
X134925962Y-79262038D01*
X134791387Y-79151595D01*
X134637851Y-79069528D01*
X134471255Y-79018992D01*
X134298001Y-79001928D01*
X133597999Y-79001928D01*
X133424745Y-79018992D01*
X133258149Y-79069528D01*
X133104613Y-79151595D01*
X132970038Y-79262038D01*
X132859595Y-79396613D01*
X132777528Y-79550149D01*
X132726992Y-79716745D01*
X132709928Y-79889999D01*
X132709928Y-80790001D01*
X132726992Y-80963255D01*
X132777528Y-81129851D01*
X132859595Y-81283387D01*
X132970038Y-81417962D01*
X133104613Y-81528405D01*
X133188000Y-81572977D01*
X133188001Y-83505000D01*
X127152802Y-83505000D01*
X123476804Y-79829003D01*
X123476799Y-79828997D01*
X123421731Y-79773930D01*
X123473000Y-79516184D01*
X123473000Y-79213816D01*
X123414011Y-78917257D01*
X123298299Y-78637905D01*
X123130312Y-78386495D01*
X122916505Y-78172688D01*
X122665095Y-78004701D01*
X122385743Y-77888989D01*
X122089184Y-77830000D01*
X121786816Y-77830000D01*
X121490257Y-77888989D01*
X121210905Y-78004701D01*
X120959495Y-78172688D01*
X120893056Y-78239127D01*
X120887502Y-78220820D01*
X120828537Y-78110506D01*
X120749185Y-78013815D01*
X120652494Y-77934463D01*
X120542180Y-77875498D01*
X120422482Y-77839188D01*
X120298000Y-77826928D01*
X118498000Y-77826928D01*
X118373518Y-77839188D01*
X118253820Y-77875498D01*
X118143506Y-77934463D01*
X118046815Y-78013815D01*
X117967463Y-78110506D01*
X117908498Y-78220820D01*
X117872188Y-78340518D01*
X117859928Y-78465000D01*
X117859928Y-80112126D01*
X117571731Y-79823930D01*
X117623000Y-79566184D01*
X117623000Y-79263816D01*
X117564011Y-78967257D01*
X117448299Y-78687905D01*
X117280312Y-78436495D01*
X117066505Y-78222688D01*
X116815095Y-78054701D01*
X116535743Y-77938989D01*
X116239184Y-77880000D01*
X115936816Y-77880000D01*
X115640257Y-77938989D01*
X115360905Y-78054701D01*
X115109495Y-78222688D01*
X115043056Y-78289127D01*
X115037502Y-78270820D01*
X114978537Y-78160506D01*
X114899185Y-78063815D01*
X114802494Y-77984463D01*
X114692180Y-77925498D01*
X114572482Y-77889188D01*
X114448000Y-77876928D01*
X113833750Y-77880000D01*
X113675000Y-78038750D01*
X113675000Y-79288000D01*
X113695000Y-79288000D01*
X113695000Y-79542000D01*
X113675000Y-79542000D01*
X113675000Y-80791250D01*
X113833750Y-80950000D01*
X114448000Y-80953072D01*
X114572482Y-80940812D01*
X114692180Y-80904502D01*
X114802494Y-80845537D01*
X114899185Y-80766185D01*
X114978537Y-80669494D01*
X115037502Y-80559180D01*
X115043056Y-80540873D01*
X115109495Y-80607312D01*
X115360905Y-80775299D01*
X115640257Y-80891011D01*
X115936816Y-80950000D01*
X116239184Y-80950000D01*
X116496930Y-80898731D01*
X117977017Y-82378819D01*
X117977023Y-82378824D01*
X124474201Y-88876003D01*
X124497999Y-88905001D01*
X124526997Y-88928799D01*
X124585642Y-88976928D01*
X123248000Y-88976928D01*
X123123518Y-88989188D01*
X123003820Y-89025498D01*
X122893506Y-89084463D01*
X122796815Y-89163815D01*
X122717463Y-89260506D01*
X122658498Y-89370820D01*
X122622188Y-89490518D01*
X122609928Y-89615000D01*
X122609928Y-91315000D01*
X122622188Y-91439482D01*
X122658498Y-91559180D01*
X122717463Y-91669494D01*
X122796815Y-91766185D01*
X122893506Y-91845537D01*
X123003820Y-91904502D01*
X123076380Y-91926513D01*
X122944525Y-92058368D01*
X122782010Y-92301589D01*
X122670068Y-92571842D01*
X122613000Y-92858740D01*
X122613000Y-93151260D01*
X122670068Y-93438158D01*
X122782010Y-93708411D01*
X122944525Y-93951632D01*
X123151368Y-94158475D01*
X123325760Y-94275000D01*
X123151368Y-94391525D01*
X122944525Y-94598368D01*
X122782010Y-94841589D01*
X122670068Y-95111842D01*
X122613000Y-95398740D01*
X122613000Y-95691260D01*
X122670068Y-95978158D01*
X122782010Y-96248411D01*
X122944525Y-96491632D01*
X123151368Y-96698475D01*
X123325760Y-96815000D01*
X123151368Y-96931525D01*
X122944525Y-97138368D01*
X122782010Y-97381589D01*
X122670068Y-97651842D01*
X122613000Y-97938740D01*
X122613000Y-98231260D01*
X122670068Y-98518158D01*
X122782010Y-98788411D01*
X122944525Y-99031632D01*
X123151368Y-99238475D01*
X123325760Y-99355000D01*
X123151368Y-99471525D01*
X122944525Y-99678368D01*
X122782010Y-99921589D01*
X122670068Y-100191842D01*
X122613000Y-100478740D01*
X122613000Y-100771260D01*
X122670068Y-101058158D01*
X122782010Y-101328411D01*
X122944525Y-101571632D01*
X123151368Y-101778475D01*
X123325760Y-101895000D01*
X123151368Y-102011525D01*
X122944525Y-102218368D01*
X122782010Y-102461589D01*
X122670068Y-102731842D01*
X122613000Y-103018740D01*
X122613000Y-103311260D01*
X122670068Y-103598158D01*
X122782010Y-103868411D01*
X122944525Y-104111632D01*
X123151368Y-104318475D01*
X123325760Y-104435000D01*
X123151368Y-104551525D01*
X122944525Y-104758368D01*
X122782010Y-105001589D01*
X122670068Y-105271842D01*
X122613000Y-105558740D01*
X122613000Y-105851260D01*
X122670068Y-106138158D01*
X122782010Y-106408411D01*
X122944525Y-106651632D01*
X123151368Y-106858475D01*
X123325760Y-106975000D01*
X123151368Y-107091525D01*
X122944525Y-107298368D01*
X122782010Y-107541589D01*
X122670068Y-107811842D01*
X122613000Y-108098740D01*
X122613000Y-108391260D01*
X122670068Y-108678158D01*
X122782010Y-108948411D01*
X122944525Y-109191632D01*
X123151368Y-109398475D01*
X123325760Y-109515000D01*
X123151368Y-109631525D01*
X122944525Y-109838368D01*
X122782010Y-110081589D01*
X122670068Y-110351842D01*
X122613000Y-110638740D01*
X122613000Y-110931260D01*
X122670068Y-111218158D01*
X122782010Y-111488411D01*
X122944525Y-111731632D01*
X123151368Y-111938475D01*
X123325760Y-112055000D01*
X123151368Y-112171525D01*
X122944525Y-112378368D01*
X122782010Y-112621589D01*
X122670068Y-112891842D01*
X122613000Y-113178740D01*
X122613000Y-113471260D01*
X122670068Y-113758158D01*
X122782010Y-114028411D01*
X122944525Y-114271632D01*
X123151368Y-114478475D01*
X123325760Y-114595000D01*
X123151368Y-114711525D01*
X122944525Y-114918368D01*
X122782010Y-115161589D01*
X122670068Y-115431842D01*
X122613000Y-115718740D01*
X122613000Y-116011260D01*
X122670068Y-116298158D01*
X122782010Y-116568411D01*
X122944525Y-116811632D01*
X123151368Y-117018475D01*
X123325760Y-117135000D01*
X123151368Y-117251525D01*
X122944525Y-117458368D01*
X122782010Y-117701589D01*
X122670068Y-117971842D01*
X122613000Y-118258740D01*
X122613000Y-118551260D01*
X122670068Y-118838158D01*
X122782010Y-119108411D01*
X122944525Y-119351632D01*
X123151368Y-119558475D01*
X123394589Y-119720990D01*
X123664842Y-119832932D01*
X123951740Y-119890000D01*
X124244260Y-119890000D01*
X124531158Y-119832932D01*
X124801411Y-119720990D01*
X125044632Y-119558475D01*
X125251475Y-119351632D01*
X125294327Y-119287500D01*
X127279005Y-119287500D01*
X127345038Y-119367962D01*
X127479614Y-119478405D01*
X127633150Y-119560472D01*
X127799746Y-119611008D01*
X127973000Y-119628072D01*
X128923000Y-119628072D01*
X129096254Y-119611008D01*
X129262850Y-119560472D01*
X129416386Y-119478405D01*
X129550962Y-119367962D01*
X129616995Y-119287500D01*
X143308922Y-119287500D01*
X146228072Y-122206650D01*
X145981736Y-122281375D01*
X145721394Y-122420531D01*
X145493203Y-122607803D01*
X145305931Y-122835995D01*
X145288000Y-122869541D01*
X145270069Y-122835994D01*
X145082797Y-122607803D01*
X144854605Y-122420531D01*
X144594263Y-122281375D01*
X144311776Y-122195684D01*
X144018000Y-122166749D01*
X143724223Y-122195684D01*
X143441736Y-122281375D01*
X143181394Y-122420531D01*
X142953203Y-122607803D01*
X142765931Y-122835995D01*
X142748000Y-122869541D01*
X142730069Y-122835994D01*
X142542797Y-122607803D01*
X142314605Y-122420531D01*
X142054263Y-122281375D01*
X141771776Y-122195684D01*
X141478000Y-122166749D01*
X141184223Y-122195684D01*
X140901736Y-122281375D01*
X140641394Y-122420531D01*
X140413203Y-122607803D01*
X140225931Y-122835995D01*
X140208000Y-122869541D01*
X140190069Y-122835994D01*
X140002797Y-122607803D01*
X139774605Y-122420531D01*
X139514263Y-122281375D01*
X139231776Y-122195684D01*
X138938000Y-122166749D01*
X138644223Y-122195684D01*
X138361736Y-122281375D01*
X138101394Y-122420531D01*
X137873203Y-122607803D01*
X137685931Y-122835995D01*
X137546775Y-123096337D01*
X137461084Y-123378824D01*
X137439400Y-123598982D01*
X137439400Y-124051019D01*
X137461084Y-124271177D01*
X137546775Y-124553664D01*
X137685931Y-124814006D01*
X137873203Y-125042197D01*
X138101395Y-125229469D01*
X138361737Y-125368625D01*
X138644224Y-125454316D01*
X138938000Y-125483251D01*
X139231777Y-125454316D01*
X139514264Y-125368625D01*
X139774606Y-125229469D01*
X140002797Y-125042197D01*
X140190069Y-124814006D01*
X140208000Y-124780459D01*
X140225931Y-124814006D01*
X140413203Y-125042197D01*
X140641395Y-125229469D01*
X140901737Y-125368625D01*
X141184224Y-125454316D01*
X141478000Y-125483251D01*
X141771777Y-125454316D01*
X142054264Y-125368625D01*
X142314606Y-125229469D01*
X142542797Y-125042197D01*
X142730069Y-124814006D01*
X142748000Y-124780459D01*
X142765931Y-124814006D01*
X142953203Y-125042197D01*
X143181395Y-125229469D01*
X143441737Y-125368625D01*
X143724224Y-125454316D01*
X144018000Y-125483251D01*
X144311777Y-125454316D01*
X144594264Y-125368625D01*
X144854606Y-125229469D01*
X145082797Y-125042197D01*
X145270069Y-124814006D01*
X145288000Y-124780459D01*
X145305931Y-124814006D01*
X145493203Y-125042197D01*
X145721395Y-125229469D01*
X145981737Y-125368625D01*
X146264224Y-125454316D01*
X146558000Y-125483251D01*
X146851777Y-125454316D01*
X147134264Y-125368625D01*
X147394606Y-125229469D01*
X147622797Y-125042197D01*
X147810069Y-124814006D01*
X147828000Y-124780459D01*
X147845931Y-124814006D01*
X148033203Y-125042197D01*
X148261395Y-125229469D01*
X148521737Y-125368625D01*
X148804224Y-125454316D01*
X149098000Y-125483251D01*
X149391777Y-125454316D01*
X149674264Y-125368625D01*
X149934606Y-125229469D01*
X150162797Y-125042197D01*
X150350069Y-124814006D01*
X150371424Y-124774053D01*
X150519514Y-124976729D01*
X150735965Y-125175733D01*
X150987081Y-125328686D01*
X151263211Y-125429709D01*
X151278974Y-125432358D01*
X151511000Y-125311217D01*
X151511000Y-123952000D01*
X151765000Y-123952000D01*
X151765000Y-125311217D01*
X151997026Y-125432358D01*
X152012789Y-125429709D01*
X152288919Y-125328686D01*
X152540035Y-125175733D01*
X152756486Y-124976729D01*
X152908000Y-124769367D01*
X153059514Y-124976729D01*
X153275965Y-125175733D01*
X153527081Y-125328686D01*
X153803211Y-125429709D01*
X153818974Y-125432358D01*
X154051000Y-125311217D01*
X154051000Y-123952000D01*
X151765000Y-123952000D01*
X151511000Y-123952000D01*
X151491000Y-123952000D01*
X151491000Y-123698000D01*
X151511000Y-123698000D01*
X151511000Y-123678000D01*
X151765000Y-123678000D01*
X151765000Y-123698000D01*
X154051000Y-123698000D01*
X154051000Y-122338783D01*
X154305000Y-122338783D01*
X154305000Y-123698000D01*
X154325000Y-123698000D01*
X154325000Y-123952000D01*
X154305000Y-123952000D01*
X154305000Y-125311217D01*
X154537026Y-125432358D01*
X154552789Y-125429709D01*
X154828919Y-125328686D01*
X155080035Y-125175733D01*
X155296486Y-124976729D01*
X155444576Y-124774053D01*
X155465931Y-124814006D01*
X155653203Y-125042197D01*
X155881395Y-125229469D01*
X156141737Y-125368625D01*
X156424224Y-125454316D01*
X156718000Y-125483251D01*
X157011777Y-125454316D01*
X157294264Y-125368625D01*
X157554606Y-125229469D01*
X157782797Y-125042197D01*
X157970069Y-124814006D01*
X158109225Y-124553663D01*
X158194916Y-124271176D01*
X158216600Y-124051018D01*
X158216600Y-123598981D01*
X158194916Y-123378823D01*
X158109225Y-123096336D01*
X157970069Y-122835994D01*
X157782797Y-122607803D01*
X157554605Y-122420531D01*
X157294263Y-122281375D01*
X157011776Y-122195684D01*
X156718000Y-122166749D01*
X156424223Y-122195684D01*
X156141736Y-122281375D01*
X155881394Y-122420531D01*
X155653203Y-122607803D01*
X155465931Y-122835995D01*
X155444576Y-122875947D01*
X155296486Y-122673271D01*
X155080035Y-122474267D01*
X154828919Y-122321314D01*
X154552789Y-122220291D01*
X154537026Y-122217642D01*
X154305000Y-122338783D01*
X154051000Y-122338783D01*
X153818974Y-122217642D01*
X153803211Y-122220291D01*
X153527081Y-122321314D01*
X153275965Y-122474267D01*
X153059514Y-122673271D01*
X152908000Y-122880633D01*
X152756486Y-122673271D01*
X152540035Y-122474267D01*
X152288919Y-122321314D01*
X152012789Y-122220291D01*
X151997026Y-122217642D01*
X151765002Y-122338782D01*
X151765002Y-122232799D01*
X159695911Y-114301890D01*
X169956524Y-114301890D01*
X170001175Y-114449099D01*
X170126359Y-114711920D01*
X170300412Y-114945269D01*
X170516645Y-115140178D01*
X170766748Y-115289157D01*
X171041109Y-115386481D01*
X171271000Y-115265814D01*
X171271000Y-114072000D01*
X171525000Y-114072000D01*
X171525000Y-115265814D01*
X171754891Y-115386481D01*
X172029252Y-115289157D01*
X172279355Y-115140178D01*
X172495588Y-114945269D01*
X172669641Y-114711920D01*
X172794825Y-114449099D01*
X172839476Y-114301890D01*
X172718155Y-114072000D01*
X171525000Y-114072000D01*
X171271000Y-114072000D01*
X170077845Y-114072000D01*
X169956524Y-114301890D01*
X159695911Y-114301890D01*
X164372802Y-109625000D01*
X170119822Y-109625000D01*
X170244525Y-109811632D01*
X170451368Y-110018475D01*
X170625760Y-110135000D01*
X170451368Y-110251525D01*
X170244525Y-110458368D01*
X170082010Y-110701589D01*
X169970068Y-110971842D01*
X169913000Y-111258740D01*
X169913000Y-111551260D01*
X169970068Y-111838158D01*
X170082010Y-112108411D01*
X170244525Y-112351632D01*
X170451368Y-112558475D01*
X170633534Y-112680195D01*
X170516645Y-112749822D01*
X170300412Y-112944731D01*
X170126359Y-113178080D01*
X170001175Y-113440901D01*
X169956524Y-113588110D01*
X170077845Y-113818000D01*
X171271000Y-113818000D01*
X171271000Y-113798000D01*
X171525000Y-113798000D01*
X171525000Y-113818000D01*
X172718155Y-113818000D01*
X172839476Y-113588110D01*
X172794825Y-113440901D01*
X172669641Y-113178080D01*
X172495588Y-112944731D01*
X172279355Y-112749822D01*
X172162466Y-112680195D01*
X172344632Y-112558475D01*
X172551475Y-112351632D01*
X172713990Y-112108411D01*
X172825932Y-111838158D01*
X172883000Y-111551260D01*
X172883000Y-111258740D01*
X172825932Y-110971842D01*
X172713990Y-110701589D01*
X172551475Y-110458368D01*
X172344632Y-110251525D01*
X172170240Y-110135000D01*
X172344632Y-110018475D01*
X172551475Y-109811632D01*
X172713990Y-109568411D01*
X172825932Y-109298158D01*
X172883000Y-109011260D01*
X172883000Y-108718740D01*
X172825932Y-108431842D01*
X172713990Y-108161589D01*
X172551475Y-107918368D01*
X172344632Y-107711525D01*
X172170240Y-107595000D01*
X172344632Y-107478475D01*
X172551475Y-107271632D01*
X172713990Y-107028411D01*
X172825932Y-106758158D01*
X172883000Y-106471260D01*
X172883000Y-106178740D01*
X172825932Y-105891842D01*
X172713990Y-105621589D01*
X172551475Y-105378368D01*
X172344632Y-105171525D01*
X172170240Y-105055000D01*
X172344632Y-104938475D01*
X172551475Y-104731632D01*
X172713990Y-104488411D01*
X172825932Y-104218158D01*
X172883000Y-103931260D01*
X172883000Y-103638740D01*
X172825932Y-103351842D01*
X172713990Y-103081589D01*
X172551475Y-102838368D01*
X172344632Y-102631525D01*
X172170240Y-102515000D01*
X172344632Y-102398475D01*
X172551475Y-102191632D01*
X172713990Y-101948411D01*
X172825932Y-101678158D01*
X172883000Y-101391260D01*
X172883000Y-101098740D01*
X172825932Y-100811842D01*
X172713990Y-100541589D01*
X172551475Y-100298368D01*
X172344632Y-100091525D01*
X172170240Y-99975000D01*
X172344632Y-99858475D01*
X172551475Y-99651632D01*
X172713990Y-99408411D01*
X172825932Y-99138158D01*
X172883000Y-98851260D01*
X172883000Y-98724802D01*
X173138000Y-98979802D01*
X173138001Y-121570197D01*
X172451830Y-122256369D01*
X172251776Y-122195684D01*
X171958000Y-122166749D01*
X171664223Y-122195684D01*
X171381736Y-122281375D01*
X171121394Y-122420531D01*
X170893203Y-122607803D01*
X170705931Y-122835995D01*
X170688000Y-122869541D01*
X170670069Y-122835994D01*
X170482797Y-122607803D01*
X170254605Y-122420531D01*
X169994263Y-122281375D01*
X169711776Y-122195684D01*
X169418000Y-122166749D01*
X169124223Y-122195684D01*
X168841736Y-122281375D01*
X168581394Y-122420531D01*
X168353203Y-122607803D01*
X168165931Y-122835995D01*
X168148000Y-122869541D01*
X168130069Y-122835994D01*
X167942797Y-122607803D01*
X167714605Y-122420531D01*
X167454263Y-122281375D01*
X167171776Y-122195684D01*
X166878000Y-122166749D01*
X166584223Y-122195684D01*
X166301736Y-122281375D01*
X166041394Y-122420531D01*
X165813203Y-122607803D01*
X165625931Y-122835995D01*
X165608000Y-122869541D01*
X165590069Y-122835994D01*
X165402797Y-122607803D01*
X165174605Y-122420531D01*
X164914263Y-122281375D01*
X164631776Y-122195684D01*
X164338000Y-122166749D01*
X164044223Y-122195684D01*
X163761736Y-122281375D01*
X163501394Y-122420531D01*
X163273203Y-122607803D01*
X163085931Y-122835995D01*
X163068000Y-122869541D01*
X163050069Y-122835994D01*
X162862797Y-122607803D01*
X162634605Y-122420531D01*
X162374263Y-122281375D01*
X162091776Y-122195684D01*
X161798000Y-122166749D01*
X161504223Y-122195684D01*
X161221736Y-122281375D01*
X160961394Y-122420531D01*
X160733203Y-122607803D01*
X160545931Y-122835995D01*
X160406775Y-123096337D01*
X160321084Y-123378824D01*
X160299400Y-123598982D01*
X160299400Y-124051019D01*
X160321084Y-124271177D01*
X160406775Y-124553664D01*
X160545931Y-124814006D01*
X160733203Y-125042197D01*
X160961395Y-125229469D01*
X161221737Y-125368625D01*
X161504224Y-125454316D01*
X161798000Y-125483251D01*
X162091777Y-125454316D01*
X162374264Y-125368625D01*
X162634606Y-125229469D01*
X162862797Y-125042197D01*
X163050069Y-124814006D01*
X163068000Y-124780459D01*
X163085931Y-124814006D01*
X163273203Y-125042197D01*
X163501395Y-125229469D01*
X163761737Y-125368625D01*
X164044224Y-125454316D01*
X164338000Y-125483251D01*
X164631777Y-125454316D01*
X164914264Y-125368625D01*
X165174606Y-125229469D01*
X165402797Y-125042197D01*
X165590069Y-124814006D01*
X165608000Y-124780459D01*
X165625931Y-124814006D01*
X165813203Y-125042197D01*
X166041395Y-125229469D01*
X166301737Y-125368625D01*
X166584224Y-125454316D01*
X166878000Y-125483251D01*
X167171777Y-125454316D01*
X167454264Y-125368625D01*
X167714606Y-125229469D01*
X167942797Y-125042197D01*
X168130069Y-124814006D01*
X168148000Y-124780459D01*
X168165931Y-124814006D01*
X168353203Y-125042197D01*
X168581395Y-125229469D01*
X168841737Y-125368625D01*
X169124224Y-125454316D01*
X169418000Y-125483251D01*
X169711777Y-125454316D01*
X169994264Y-125368625D01*
X170254606Y-125229469D01*
X170482797Y-125042197D01*
X170670069Y-124814006D01*
X170688000Y-124780459D01*
X170705931Y-124814006D01*
X170893203Y-125042197D01*
X171121395Y-125229469D01*
X171381737Y-125368625D01*
X171664224Y-125454316D01*
X171958000Y-125483251D01*
X172251777Y-125454316D01*
X172534264Y-125368625D01*
X172794606Y-125229469D01*
X173022797Y-125042197D01*
X173210069Y-124814006D01*
X173228000Y-124780459D01*
X173245931Y-124814006D01*
X173433203Y-125042197D01*
X173661395Y-125229469D01*
X173921737Y-125368625D01*
X174204224Y-125454316D01*
X174498000Y-125483251D01*
X174791777Y-125454316D01*
X175074264Y-125368625D01*
X175334606Y-125229469D01*
X175562797Y-125042197D01*
X175750069Y-124814006D01*
X175889225Y-124553663D01*
X175974916Y-124271176D01*
X175996600Y-124051018D01*
X175996600Y-123598981D01*
X175974916Y-123378823D01*
X175889225Y-123096336D01*
X175750069Y-122835994D01*
X175562797Y-122607803D01*
X175334605Y-122420531D01*
X175074263Y-122281375D01*
X174791776Y-122195684D01*
X174603576Y-122177148D01*
X174647003Y-122033986D01*
X174658000Y-121922333D01*
X174658000Y-121922323D01*
X174661676Y-121885000D01*
X174658000Y-121847677D01*
X174658000Y-119968377D01*
X174674536Y-120008298D01*
X174966406Y-120445113D01*
X175337887Y-120816594D01*
X175774702Y-121108464D01*
X176260065Y-121309508D01*
X176775323Y-121412000D01*
X177300677Y-121412000D01*
X177815935Y-121309508D01*
X178301298Y-121108464D01*
X178738113Y-120816594D01*
X178868000Y-120686707D01*
X178868000Y-120990908D01*
X176560617Y-123298292D01*
X176533526Y-123320525D01*
X176511293Y-123347616D01*
X176444801Y-123428637D01*
X176378872Y-123551981D01*
X176338274Y-123685816D01*
X176324565Y-123825000D01*
X176328001Y-123859885D01*
X176328000Y-125655000D01*
X126909707Y-125655000D01*
X127039594Y-125525113D01*
X127331464Y-125088298D01*
X127532508Y-124602935D01*
X127635000Y-124087677D01*
X127635000Y-123562323D01*
X127532508Y-123047065D01*
X127331464Y-122561702D01*
X127039594Y-122124887D01*
X126668113Y-121753406D01*
X126231298Y-121461536D01*
X125745935Y-121260492D01*
X125230677Y-121158000D01*
X124705323Y-121158000D01*
X124190065Y-121260492D01*
X123704702Y-121461536D01*
X123267887Y-121753406D01*
X122896406Y-122124887D01*
X122604536Y-122561702D01*
X122403492Y-123047065D01*
X122301000Y-123562323D01*
X122301000Y-124087677D01*
X122403492Y-124602935D01*
X122604536Y-125088298D01*
X122896406Y-125525113D01*
X123026293Y-125655000D01*
X111708000Y-125655000D01*
X111708000Y-101525413D01*
X112567192Y-101525413D01*
X112662956Y-101789814D01*
X112952571Y-101930704D01*
X113264108Y-102012384D01*
X113585595Y-102031718D01*
X113904675Y-101987961D01*
X114209088Y-101882795D01*
X114383044Y-101789814D01*
X114478808Y-101525413D01*
X113523000Y-100569605D01*
X112567192Y-101525413D01*
X111708000Y-101525413D01*
X111708000Y-100452595D01*
X111881282Y-100452595D01*
X111925039Y-100771675D01*
X112030205Y-101076088D01*
X112123186Y-101250044D01*
X112387587Y-101345808D01*
X113343395Y-100390000D01*
X113702605Y-100390000D01*
X114658413Y-101345808D01*
X114922814Y-101250044D01*
X115063704Y-100960429D01*
X115145384Y-100648892D01*
X115164718Y-100327405D01*
X115120961Y-100008325D01*
X115015795Y-99703912D01*
X114922814Y-99529956D01*
X114658413Y-99434192D01*
X113702605Y-100390000D01*
X113343395Y-100390000D01*
X112387587Y-99434192D01*
X112123186Y-99529956D01*
X111982296Y-99819571D01*
X111900616Y-100131108D01*
X111881282Y-100452595D01*
X111708000Y-100452595D01*
X111708000Y-99254587D01*
X112567192Y-99254587D01*
X113523000Y-100210395D01*
X114478808Y-99254587D01*
X114383044Y-98990186D01*
X114093429Y-98849296D01*
X113781892Y-98767616D01*
X113460405Y-98748282D01*
X113141325Y-98792039D01*
X112836912Y-98897205D01*
X112662956Y-98990186D01*
X112567192Y-99254587D01*
X111708000Y-99254587D01*
X111708000Y-95728967D01*
X111888000Y-95728967D01*
X111888000Y-96051033D01*
X111950832Y-96366912D01*
X112074082Y-96664463D01*
X112253013Y-96932252D01*
X112480748Y-97159987D01*
X112748537Y-97338918D01*
X113046088Y-97462168D01*
X113361967Y-97525000D01*
X113684033Y-97525000D01*
X113999912Y-97462168D01*
X114297463Y-97338918D01*
X114565252Y-97159987D01*
X114792987Y-96932252D01*
X114971918Y-96664463D01*
X115095168Y-96366912D01*
X115158000Y-96051033D01*
X115158000Y-95728967D01*
X115095168Y-95413088D01*
X114971918Y-95115537D01*
X114792987Y-94847748D01*
X114565252Y-94620013D01*
X114297463Y-94441082D01*
X113999912Y-94317832D01*
X113684033Y-94255000D01*
X113361967Y-94255000D01*
X113046088Y-94317832D01*
X112748537Y-94441082D01*
X112480748Y-94620013D01*
X112253013Y-94847748D01*
X112074082Y-95115537D01*
X111950832Y-95413088D01*
X111888000Y-95728967D01*
X111708000Y-95728967D01*
X111708000Y-91565000D01*
X117434324Y-91565000D01*
X117438000Y-91602322D01*
X117438001Y-108557667D01*
X117434324Y-108595000D01*
X117438001Y-108632333D01*
X117446512Y-108718740D01*
X117448998Y-108743985D01*
X117492454Y-108887246D01*
X117563026Y-109019276D01*
X117605103Y-109070546D01*
X117658000Y-109135001D01*
X117686998Y-109158799D01*
X119531790Y-111003592D01*
X119488000Y-111223740D01*
X119488000Y-111516260D01*
X119545068Y-111803158D01*
X119657010Y-112073411D01*
X119819525Y-112316632D01*
X120026368Y-112523475D01*
X120269589Y-112685990D01*
X120539842Y-112797932D01*
X120826740Y-112855000D01*
X121119260Y-112855000D01*
X121406158Y-112797932D01*
X121676411Y-112685990D01*
X121919632Y-112523475D01*
X122126475Y-112316632D01*
X122288990Y-112073411D01*
X122400932Y-111803158D01*
X122458000Y-111516260D01*
X122458000Y-111223740D01*
X122400932Y-110936842D01*
X122288990Y-110666589D01*
X122126475Y-110423368D01*
X121919632Y-110216525D01*
X121745240Y-110100000D01*
X121919632Y-109983475D01*
X122126475Y-109776632D01*
X122288990Y-109533411D01*
X122400932Y-109263158D01*
X122458000Y-108976260D01*
X122458000Y-108683740D01*
X122400932Y-108396842D01*
X122288990Y-108126589D01*
X122126475Y-107883368D01*
X121994620Y-107751513D01*
X122067180Y-107729502D01*
X122177494Y-107670537D01*
X122274185Y-107591185D01*
X122353537Y-107494494D01*
X122412502Y-107384180D01*
X122448812Y-107264482D01*
X122461072Y-107140000D01*
X122458000Y-106575750D01*
X122299250Y-106417000D01*
X121100000Y-106417000D01*
X121100000Y-106437000D01*
X120846000Y-106437000D01*
X120846000Y-106417000D01*
X120826000Y-106417000D01*
X120826000Y-106163000D01*
X120846000Y-106163000D01*
X120846000Y-104963750D01*
X121100000Y-104963750D01*
X121100000Y-106163000D01*
X122299250Y-106163000D01*
X122458000Y-106004250D01*
X122461072Y-105440000D01*
X122448812Y-105315518D01*
X122412502Y-105195820D01*
X122353537Y-105085506D01*
X122274185Y-104988815D01*
X122177494Y-104909463D01*
X122067180Y-104850498D01*
X121947482Y-104814188D01*
X121823000Y-104801928D01*
X121258750Y-104805000D01*
X121100000Y-104963750D01*
X120846000Y-104963750D01*
X120687250Y-104805000D01*
X120123000Y-104801928D01*
X119998518Y-104814188D01*
X119878820Y-104850498D01*
X119768506Y-104909463D01*
X119671815Y-104988815D01*
X119592463Y-105085506D01*
X119533498Y-105195820D01*
X119497188Y-105315518D01*
X119484928Y-105440000D01*
X119488000Y-106004250D01*
X119646748Y-106162998D01*
X119488000Y-106162998D01*
X119488000Y-106270199D01*
X119457999Y-106240198D01*
X119457999Y-101932127D01*
X119764108Y-102012384D01*
X120085595Y-102031718D01*
X120404675Y-101987961D01*
X120709088Y-101882795D01*
X120883044Y-101789814D01*
X120978808Y-101525413D01*
X120023000Y-100569605D01*
X120008858Y-100583748D01*
X119829253Y-100404143D01*
X119843395Y-100390000D01*
X120202605Y-100390000D01*
X121158413Y-101345808D01*
X121422814Y-101250044D01*
X121563704Y-100960429D01*
X121645384Y-100648892D01*
X121664718Y-100327405D01*
X121620961Y-100008325D01*
X121515795Y-99703912D01*
X121422814Y-99529956D01*
X121158413Y-99434192D01*
X120202605Y-100390000D01*
X119843395Y-100390000D01*
X119829253Y-100375858D01*
X120008858Y-100196253D01*
X120023000Y-100210395D01*
X120978808Y-99254587D01*
X120883044Y-98990186D01*
X120593429Y-98849296D01*
X120281892Y-98767616D01*
X119960405Y-98748282D01*
X119641325Y-98792039D01*
X119457999Y-98855373D01*
X119457999Y-97425680D01*
X119546088Y-97462168D01*
X119861967Y-97525000D01*
X120184033Y-97525000D01*
X120499912Y-97462168D01*
X120797463Y-97338918D01*
X121065252Y-97159987D01*
X121292987Y-96932252D01*
X121471918Y-96664463D01*
X121595168Y-96366912D01*
X121658000Y-96051033D01*
X121658000Y-95728967D01*
X121595168Y-95413088D01*
X121471918Y-95115537D01*
X121292987Y-94847748D01*
X121065252Y-94620013D01*
X120797463Y-94441082D01*
X120499912Y-94317832D01*
X120184033Y-94255000D01*
X119861967Y-94255000D01*
X119546088Y-94317832D01*
X119457999Y-94354320D01*
X119457999Y-93079802D01*
X121549649Y-90988153D01*
X121670729Y-90964068D01*
X121840889Y-90893586D01*
X121994028Y-90791262D01*
X122124262Y-90661028D01*
X122226586Y-90507889D01*
X122297068Y-90337729D01*
X122333000Y-90157089D01*
X122333000Y-89972911D01*
X122297068Y-89792271D01*
X122226586Y-89622111D01*
X122124262Y-89468972D01*
X121994028Y-89338738D01*
X121840889Y-89236414D01*
X121789191Y-89215000D01*
X121840889Y-89193586D01*
X121994028Y-89091262D01*
X122124262Y-88961028D01*
X122226586Y-88807889D01*
X122297068Y-88637729D01*
X122333000Y-88457089D01*
X122333000Y-88272911D01*
X122297068Y-88092271D01*
X122226586Y-87922111D01*
X122124262Y-87768972D01*
X121994028Y-87638738D01*
X121840889Y-87536414D01*
X121670729Y-87465932D01*
X121490089Y-87430000D01*
X121305911Y-87430000D01*
X121125271Y-87465932D01*
X120955111Y-87536414D01*
X120801972Y-87638738D01*
X120671738Y-87768972D01*
X120569414Y-87922111D01*
X120498932Y-88092271D01*
X120474848Y-88213350D01*
X117687003Y-91001196D01*
X117657999Y-91024999D01*
X117620620Y-91070546D01*
X117563026Y-91140724D01*
X117497097Y-91264068D01*
X117492454Y-91272754D01*
X117448997Y-91416015D01*
X117438000Y-91527668D01*
X117438000Y-91527678D01*
X117434324Y-91565000D01*
X111708000Y-91565000D01*
X111708000Y-80315000D01*
X112009928Y-80315000D01*
X112022188Y-80439482D01*
X112058498Y-80559180D01*
X112117463Y-80669494D01*
X112196815Y-80766185D01*
X112293506Y-80845537D01*
X112403820Y-80904502D01*
X112523518Y-80940812D01*
X112648000Y-80953072D01*
X113262250Y-80950000D01*
X113421000Y-80791250D01*
X113421000Y-79542000D01*
X112171750Y-79542000D01*
X112013000Y-79700750D01*
X112009928Y-80315000D01*
X111708000Y-80315000D01*
X111708000Y-78515000D01*
X112009928Y-78515000D01*
X112013000Y-79129250D01*
X112171750Y-79288000D01*
X113421000Y-79288000D01*
X113421000Y-78038750D01*
X113262250Y-77880000D01*
X112648000Y-77876928D01*
X112523518Y-77889188D01*
X112403820Y-77925498D01*
X112293506Y-77984463D01*
X112196815Y-78063815D01*
X112117463Y-78160506D01*
X112058498Y-78270820D01*
X112022188Y-78390518D01*
X112009928Y-78515000D01*
X111708000Y-78515000D01*
X111708000Y-73735000D01*
X124296293Y-73735000D01*
X124166406Y-73864887D01*
%TA.AperFunction,Conductor*%
D21*
G36*
X124166406Y-73864887D02*
G01*
X123874536Y-74301702D01*
X123673492Y-74787065D01*
X123571000Y-75302323D01*
X123571000Y-75827677D01*
X123673492Y-76342935D01*
X123874536Y-76828298D01*
X124166406Y-77265113D01*
X124537887Y-77636594D01*
X124974702Y-77928464D01*
X125460065Y-78129508D01*
X125975323Y-78232000D01*
X126500677Y-78232000D01*
X127015935Y-78129508D01*
X127501298Y-77928464D01*
X127938113Y-77636594D01*
X128309594Y-77265113D01*
X128601464Y-76828298D01*
X128657001Y-76694219D01*
X128729203Y-76782197D01*
X128957395Y-76969469D01*
X129217737Y-77108625D01*
X129500224Y-77194316D01*
X129794000Y-77223251D01*
X130087777Y-77194316D01*
X130370264Y-77108625D01*
X130630606Y-76969469D01*
X130858797Y-76782197D01*
X131046069Y-76554006D01*
X131064000Y-76520459D01*
X131081931Y-76554006D01*
X131269203Y-76782197D01*
X131497395Y-76969469D01*
X131757737Y-77108625D01*
X132040224Y-77194316D01*
X132334000Y-77223251D01*
X132627777Y-77194316D01*
X132910264Y-77108625D01*
X133170606Y-76969469D01*
X133398797Y-76782197D01*
X133586069Y-76554006D01*
X133604000Y-76520459D01*
X133621931Y-76554006D01*
X133809203Y-76782197D01*
X134037395Y-76969469D01*
X134297737Y-77108625D01*
X134580224Y-77194316D01*
X134874000Y-77223251D01*
X135167777Y-77194316D01*
X135450264Y-77108625D01*
X135710606Y-76969469D01*
X135938797Y-76782197D01*
X136126069Y-76554006D01*
X136147424Y-76514053D01*
X136295514Y-76716729D01*
X136511965Y-76915733D01*
X136763081Y-77068686D01*
X137039211Y-77169709D01*
X137054974Y-77172358D01*
X137287000Y-77051217D01*
X137287000Y-75692000D01*
X137267000Y-75692000D01*
X137267000Y-75438000D01*
X137287000Y-75438000D01*
X137287000Y-74078783D01*
X137054974Y-73957642D01*
X137039211Y-73960291D01*
X136763081Y-74061314D01*
X136511965Y-74214267D01*
X136295514Y-74413271D01*
X136147424Y-74615947D01*
X136126069Y-74575994D01*
X135938797Y-74347803D01*
X135710605Y-74160531D01*
X135450263Y-74021375D01*
X135167776Y-73935684D01*
X134874000Y-73906749D01*
X134580223Y-73935684D01*
X134297736Y-74021375D01*
X134037394Y-74160531D01*
X133809203Y-74347803D01*
X133621931Y-74575995D01*
X133604000Y-74609541D01*
X133586069Y-74575994D01*
X133398797Y-74347803D01*
X133170605Y-74160531D01*
X132910263Y-74021375D01*
X132627776Y-73935684D01*
X132334000Y-73906749D01*
X132040223Y-73935684D01*
X131757736Y-74021375D01*
X131497394Y-74160531D01*
X131269203Y-74347803D01*
X131081931Y-74575995D01*
X131064000Y-74609541D01*
X131046069Y-74575994D01*
X130858797Y-74347803D01*
X130630605Y-74160531D01*
X130370263Y-74021375D01*
X130087776Y-73935684D01*
X129794000Y-73906749D01*
X129500223Y-73935684D01*
X129217736Y-74021375D01*
X128957394Y-74160531D01*
X128729203Y-74347803D01*
X128657001Y-74435781D01*
X128601464Y-74301702D01*
X128309594Y-73864887D01*
X128179707Y-73735000D01*
X175219909Y-73735000D01*
X176328001Y-74843093D01*
X176328000Y-85944125D01*
X176324565Y-85979000D01*
X176328000Y-86013875D01*
X176328000Y-86013876D01*
X176338273Y-86118183D01*
X176378872Y-86252019D01*
X176444800Y-86375362D01*
X176533525Y-86483474D01*
X176560617Y-86505708D01*
X178868001Y-88813093D01*
X178868001Y-88863294D01*
X178738113Y-88733406D01*
X178301298Y-88441536D01*
X177815935Y-88240492D01*
X177300677Y-88138000D01*
X176775323Y-88138000D01*
X176260065Y-88240492D01*
X175774702Y-88441536D01*
X175337887Y-88733406D01*
X174966406Y-89104887D01*
X174674536Y-89541702D01*
X174473492Y-90027065D01*
X174371000Y-90542323D01*
X174371000Y-91067677D01*
X174473492Y-91582935D01*
X174674536Y-92068298D01*
X174966406Y-92505113D01*
X175337887Y-92876594D01*
X175774702Y-93168464D01*
X176260065Y-93369508D01*
X176775323Y-93472000D01*
X177300677Y-93472000D01*
X177815935Y-93369508D01*
X178301298Y-93168464D01*
X178738113Y-92876594D01*
X178868001Y-92746706D01*
X178868000Y-116803293D01*
X178738113Y-116673406D01*
X178301298Y-116381536D01*
X177815935Y-116180492D01*
X177300677Y-116078000D01*
X176775323Y-116078000D01*
X176260065Y-116180492D01*
X175774702Y-116381536D01*
X175337887Y-116673406D01*
X174966406Y-117044887D01*
X174674536Y-117481702D01*
X174658000Y-117521623D01*
X174658000Y-98702323D01*
X174661676Y-98665000D01*
X174658000Y-98627677D01*
X174658000Y-98627667D01*
X174647003Y-98516014D01*
X174603546Y-98372753D01*
X174550179Y-98272911D01*
X174532974Y-98240723D01*
X174461799Y-98153997D01*
X174438001Y-98124999D01*
X174409004Y-98101202D01*
X172886072Y-96578271D01*
X172886072Y-95315000D01*
X172873812Y-95190518D01*
X172837502Y-95070820D01*
X172778537Y-94960506D01*
X172699185Y-94863815D01*
X172602494Y-94784463D01*
X172492180Y-94725498D01*
X172372482Y-94689188D01*
X172248000Y-94676928D01*
X170548000Y-94676928D01*
X170423518Y-94689188D01*
X170303820Y-94725498D01*
X170193506Y-94784463D01*
X170096815Y-94863815D01*
X170017463Y-94960506D01*
X169958498Y-95070820D01*
X169922188Y-95190518D01*
X169909928Y-95315000D01*
X169909928Y-97015000D01*
X169922188Y-97139482D01*
X169958498Y-97259180D01*
X170017463Y-97369494D01*
X170096815Y-97466185D01*
X170193506Y-97545537D01*
X170303820Y-97604502D01*
X170376380Y-97626513D01*
X170244525Y-97758368D01*
X170082010Y-98001589D01*
X169970068Y-98271842D01*
X169913000Y-98558740D01*
X169913000Y-98851260D01*
X169970068Y-99138158D01*
X170082010Y-99408411D01*
X170244525Y-99651632D01*
X170451368Y-99858475D01*
X170625760Y-99975000D01*
X170451368Y-100091525D01*
X170244525Y-100298368D01*
X170082010Y-100541589D01*
X169970068Y-100811842D01*
X169913000Y-101098740D01*
X169913000Y-101391260D01*
X169970068Y-101678158D01*
X170082010Y-101948411D01*
X170244525Y-102191632D01*
X170451368Y-102398475D01*
X170625760Y-102515000D01*
X170451368Y-102631525D01*
X170244525Y-102838368D01*
X170082010Y-103081589D01*
X169970068Y-103351842D01*
X169913000Y-103638740D01*
X169913000Y-103931260D01*
X169970068Y-104218158D01*
X170082010Y-104488411D01*
X170244525Y-104731632D01*
X170451368Y-104938475D01*
X170625760Y-105055000D01*
X170451368Y-105171525D01*
X170244525Y-105378368D01*
X170082010Y-105621589D01*
X169970068Y-105891842D01*
X169913000Y-106178740D01*
X169913000Y-106471260D01*
X169970068Y-106758158D01*
X170082010Y-107028411D01*
X170244525Y-107271632D01*
X170451368Y-107478475D01*
X170625760Y-107595000D01*
X170451368Y-107711525D01*
X170244525Y-107918368D01*
X170119822Y-108105000D01*
X164095323Y-108105000D01*
X164058000Y-108101324D01*
X164020677Y-108105000D01*
X164020667Y-108105000D01*
X163909014Y-108115997D01*
X163765753Y-108159454D01*
X163633723Y-108230026D01*
X163581468Y-108272911D01*
X163517999Y-108324999D01*
X163494201Y-108353997D01*
X149591830Y-122256369D01*
X149391776Y-122195684D01*
X149098000Y-122166749D01*
X148804223Y-122195684D01*
X148739804Y-122215225D01*
X144332034Y-117807456D01*
X144304317Y-117773683D01*
X144169559Y-117663089D01*
X144015813Y-117580911D01*
X143848990Y-117530305D01*
X143718977Y-117517500D01*
X143718969Y-117517500D01*
X143675500Y-117513219D01*
X143632031Y-117517500D01*
X141758000Y-117517500D01*
X141758000Y-89285535D01*
X141826586Y-89182889D01*
X141897068Y-89012729D01*
X141933000Y-88832089D01*
X141933000Y-88647911D01*
X141897068Y-88467271D01*
X141826586Y-88297111D01*
X141724262Y-88143972D01*
X141594028Y-88013738D01*
X141440889Y-87911414D01*
X141270729Y-87840932D01*
X141090089Y-87805000D01*
X140905911Y-87805000D01*
X140725271Y-87840932D01*
X140555111Y-87911414D01*
X140401972Y-88013738D01*
X140271738Y-88143972D01*
X140169414Y-88297111D01*
X140098932Y-88467271D01*
X140063000Y-88647911D01*
X140063000Y-88832089D01*
X140098932Y-89012729D01*
X140169414Y-89182889D01*
X140238000Y-89285535D01*
X140238001Y-117517500D01*
X129616995Y-117517500D01*
X129550962Y-117437038D01*
X129544406Y-117431658D01*
X129624185Y-117366185D01*
X129703537Y-117269494D01*
X129762502Y-117159180D01*
X129798812Y-117039482D01*
X129811072Y-116915000D01*
X129808000Y-116613250D01*
X129649250Y-116454500D01*
X128575000Y-116454500D01*
X128575000Y-116474500D01*
X128321000Y-116474500D01*
X128321000Y-116454500D01*
X127246750Y-116454500D01*
X127088000Y-116613250D01*
X127084928Y-116915000D01*
X127097188Y-117039482D01*
X127133498Y-117159180D01*
X127192463Y-117269494D01*
X127271815Y-117366185D01*
X127351594Y-117431658D01*
X127345038Y-117437038D01*
X127279005Y-117517500D01*
X125290986Y-117517500D01*
X125251475Y-117458368D01*
X125044632Y-117251525D01*
X124870240Y-117135000D01*
X125044632Y-117018475D01*
X125251475Y-116811632D01*
X125413990Y-116568411D01*
X125525932Y-116298158D01*
X125583000Y-116011260D01*
X125583000Y-115740000D01*
X127084928Y-115740000D01*
X127088000Y-116041750D01*
X127246750Y-116200500D01*
X128321000Y-116200500D01*
X128321000Y-115263750D01*
X128575000Y-115263750D01*
X128575000Y-116200500D01*
X129649250Y-116200500D01*
X129808000Y-116041750D01*
X129811072Y-115740000D01*
X129798812Y-115615518D01*
X129762502Y-115495820D01*
X129703537Y-115385506D01*
X129624185Y-115288815D01*
X129527494Y-115209463D01*
X129417180Y-115150498D01*
X129297482Y-115114188D01*
X129173000Y-115101928D01*
X128733750Y-115105000D01*
X128575000Y-115263750D01*
X128321000Y-115263750D01*
X128162250Y-115105000D01*
X127723000Y-115101928D01*
X127598518Y-115114188D01*
X127478820Y-115150498D01*
X127368506Y-115209463D01*
X127271815Y-115288815D01*
X127192463Y-115385506D01*
X127133498Y-115495820D01*
X127097188Y-115615518D01*
X127084928Y-115740000D01*
X125583000Y-115740000D01*
X125583000Y-115718740D01*
X125539209Y-115498592D01*
X127109004Y-113928798D01*
X127138001Y-113905001D01*
X127209401Y-113818000D01*
X127232974Y-113789277D01*
X127303546Y-113657247D01*
X127324518Y-113588110D01*
X127347003Y-113513986D01*
X127358000Y-113402333D01*
X127358000Y-113402323D01*
X127361676Y-113365000D01*
X127358000Y-113327677D01*
X127358000Y-99679801D01*
X135483999Y-91553804D01*
X135512991Y-91530011D01*
X135536785Y-91501018D01*
X135536789Y-91501014D01*
X135607963Y-91414287D01*
X135607964Y-91414286D01*
X135678536Y-91282257D01*
X135721993Y-91138996D01*
X135732990Y-91027343D01*
X135732990Y-91027334D01*
X135736666Y-90990011D01*
X135732990Y-90952688D01*
X135732990Y-89703072D01*
X136248001Y-89703072D01*
X136421255Y-89686008D01*
X136587851Y-89635472D01*
X136741387Y-89553405D01*
X136875962Y-89442962D01*
X136986405Y-89308387D01*
X137068472Y-89154851D01*
X137119008Y-88988255D01*
X137136072Y-88815001D01*
X137136072Y-87914999D01*
X137119008Y-87741745D01*
X137068472Y-87575149D01*
X136986405Y-87421613D01*
X136898861Y-87314940D01*
X147080171Y-77133631D01*
X147280224Y-77194316D01*
X147574000Y-77223251D01*
X147867777Y-77194316D01*
X148150264Y-77108625D01*
X148213228Y-77074970D01*
X142487003Y-82801196D01*
X142457999Y-82824999D01*
X142402871Y-82892174D01*
X142363026Y-82940724D01*
X142292455Y-83072753D01*
X142292454Y-83072754D01*
X142248997Y-83216015D01*
X142238000Y-83327668D01*
X142238000Y-83327678D01*
X142234324Y-83365000D01*
X142238000Y-83402322D01*
X142238001Y-107819463D01*
X142169414Y-107922111D01*
X142098932Y-108092271D01*
X142063000Y-108272911D01*
X142063000Y-108457089D01*
X142098932Y-108637729D01*
X142169414Y-108807889D01*
X142271738Y-108961028D01*
X142401972Y-109091262D01*
X142555111Y-109193586D01*
X142725271Y-109264068D01*
X142905911Y-109300000D01*
X143090089Y-109300000D01*
X143270729Y-109264068D01*
X143440889Y-109193586D01*
X143594028Y-109091262D01*
X143724262Y-108961028D01*
X143826586Y-108807889D01*
X143897068Y-108637729D01*
X143933000Y-108457089D01*
X143933000Y-108272911D01*
X143897068Y-108092271D01*
X143826586Y-107922111D01*
X143758000Y-107819465D01*
X143758000Y-83679801D01*
X150225537Y-77212265D01*
X150407777Y-77194316D01*
X150690264Y-77108625D01*
X150950606Y-76969469D01*
X151178797Y-76782197D01*
X151366069Y-76554006D01*
X151384000Y-76520459D01*
X151401931Y-76554006D01*
X151551699Y-76736499D01*
X144487003Y-83801196D01*
X144457999Y-83824999D01*
X144424249Y-83866124D01*
X144363026Y-83940724D01*
X144332329Y-83998154D01*
X144292454Y-84072754D01*
X144248997Y-84216015D01*
X144238000Y-84327668D01*
X144238000Y-84327678D01*
X144234324Y-84365000D01*
X144238000Y-84402322D01*
X144238001Y-105819463D01*
X144169414Y-105922111D01*
X144098932Y-106092271D01*
X144063000Y-106272911D01*
X144063000Y-106457089D01*
X144098932Y-106637729D01*
X144169414Y-106807889D01*
X144271738Y-106961028D01*
X144401972Y-107091262D01*
X144555111Y-107193586D01*
X144725271Y-107264068D01*
X144905911Y-107300000D01*
X145090089Y-107300000D01*
X145270729Y-107264068D01*
X145440889Y-107193586D01*
X145594028Y-107091262D01*
X145724262Y-106961028D01*
X145826586Y-106807889D01*
X145897068Y-106637729D01*
X145933000Y-106457089D01*
X145933000Y-106272911D01*
X145897068Y-106092271D01*
X145826586Y-105922111D01*
X145758000Y-105819465D01*
X145758000Y-104272911D01*
X146063000Y-104272911D01*
X146063000Y-104457089D01*
X146098932Y-104637729D01*
X146169414Y-104807889D01*
X146271738Y-104961028D01*
X146401972Y-105091262D01*
X146555111Y-105193586D01*
X146725271Y-105264068D01*
X146905911Y-105300000D01*
X147090089Y-105300000D01*
X147270729Y-105264068D01*
X147440889Y-105193586D01*
X147594028Y-105091262D01*
X147724262Y-104961028D01*
X147826586Y-104807889D01*
X147897068Y-104637729D01*
X147933000Y-104457089D01*
X147933000Y-104272911D01*
X147897068Y-104092271D01*
X147826586Y-103922111D01*
X147758000Y-103819465D01*
X147758000Y-85599801D01*
X156224171Y-77133631D01*
X156424224Y-77194316D01*
X156542257Y-77205941D01*
X148487003Y-85261196D01*
X148457999Y-85284999D01*
X148429380Y-85319872D01*
X148363026Y-85400724D01*
X148345248Y-85433985D01*
X148292454Y-85532754D01*
X148248997Y-85676015D01*
X148238000Y-85787668D01*
X148238000Y-85787678D01*
X148234324Y-85825000D01*
X148238000Y-85862322D01*
X148238001Y-101819463D01*
X148169414Y-101922111D01*
X148098932Y-102092271D01*
X148063000Y-102272911D01*
X148063000Y-102457089D01*
X148098932Y-102637729D01*
X148169414Y-102807889D01*
X148271738Y-102961028D01*
X148401972Y-103091262D01*
X148555111Y-103193586D01*
X148725271Y-103264068D01*
X148905911Y-103300000D01*
X149090089Y-103300000D01*
X149270729Y-103264068D01*
X149440889Y-103193586D01*
X149594028Y-103091262D01*
X149724262Y-102961028D01*
X149826586Y-102807889D01*
X149897068Y-102637729D01*
X149933000Y-102457089D01*
X149933000Y-102272911D01*
X149897068Y-102092271D01*
X149826586Y-101922111D01*
X149758000Y-101819465D01*
X149758000Y-86139801D01*
X158764171Y-77133631D01*
X158964224Y-77194316D01*
X159082256Y-77205941D01*
X150487003Y-85801196D01*
X150457999Y-85824999D01*
X150402871Y-85892174D01*
X150363026Y-85940724D01*
X150323925Y-86013876D01*
X150292454Y-86072754D01*
X150248997Y-86216015D01*
X150238000Y-86327668D01*
X150238000Y-86327678D01*
X150234324Y-86365000D01*
X150238000Y-86402322D01*
X150238001Y-99819463D01*
X150169414Y-99922111D01*
X150098932Y-100092271D01*
X150063000Y-100272911D01*
X150063000Y-100457089D01*
X150098932Y-100637729D01*
X150169414Y-100807889D01*
X150271738Y-100961028D01*
X150401972Y-101091262D01*
X150555111Y-101193586D01*
X150725271Y-101264068D01*
X150905911Y-101300000D01*
X151090089Y-101300000D01*
X151270729Y-101264068D01*
X151440889Y-101193586D01*
X151594028Y-101091262D01*
X151724262Y-100961028D01*
X151826586Y-100807889D01*
X151897068Y-100637729D01*
X151933000Y-100457089D01*
X151933000Y-100272911D01*
X151897068Y-100092271D01*
X151826586Y-99922111D01*
X151758000Y-99819465D01*
X151758000Y-86679801D01*
X161304172Y-77133631D01*
X161504224Y-77194316D01*
X161622257Y-77205941D01*
X152487003Y-86341196D01*
X152457999Y-86364999D01*
X152428937Y-86400412D01*
X152363026Y-86480724D01*
X152333772Y-86535454D01*
X152292454Y-86612754D01*
X152248997Y-86756015D01*
X152238000Y-86867668D01*
X152238000Y-86867678D01*
X152234324Y-86905000D01*
X152238000Y-86942322D01*
X152238001Y-97819463D01*
X152169414Y-97922111D01*
X152098932Y-98092271D01*
X152063000Y-98272911D01*
X152063000Y-98457089D01*
X152098932Y-98637729D01*
X152169414Y-98807889D01*
X152271738Y-98961028D01*
X152401972Y-99091262D01*
X152555111Y-99193586D01*
X152725271Y-99264068D01*
X152905911Y-99300000D01*
X153090089Y-99300000D01*
X153270729Y-99264068D01*
X153440889Y-99193586D01*
X153594028Y-99091262D01*
X153724262Y-98961028D01*
X153826586Y-98807889D01*
X153897068Y-98637729D01*
X153933000Y-98457089D01*
X153933000Y-98272911D01*
X153897068Y-98092271D01*
X153826586Y-97922111D01*
X153758000Y-97819465D01*
X153758000Y-87219801D01*
X163844171Y-77133631D01*
X164044224Y-77194316D01*
X164162257Y-77205941D01*
X154487003Y-86881196D01*
X154457999Y-86904999D01*
X154422091Y-86948754D01*
X154363026Y-87020724D01*
X154324920Y-87092015D01*
X154292454Y-87152754D01*
X154248997Y-87296015D01*
X154238000Y-87407668D01*
X154238000Y-87407678D01*
X154234324Y-87445000D01*
X154238000Y-87482322D01*
X154238001Y-95819463D01*
X154169414Y-95922111D01*
X154098932Y-96092271D01*
X154063000Y-96272911D01*
X154063000Y-96457089D01*
X154098932Y-96637729D01*
X154169414Y-96807889D01*
X154271738Y-96961028D01*
X154401972Y-97091262D01*
X154555111Y-97193586D01*
X154725271Y-97264068D01*
X154905911Y-97300000D01*
X155090089Y-97300000D01*
X155270729Y-97264068D01*
X155440889Y-97193586D01*
X155594028Y-97091262D01*
X155724262Y-96961028D01*
X155826586Y-96807889D01*
X155897068Y-96637729D01*
X155933000Y-96457089D01*
X155933000Y-96272911D01*
X155897068Y-96092271D01*
X155826586Y-95922111D01*
X155758000Y-95819465D01*
X155758000Y-87759801D01*
X166384171Y-77133631D01*
X166584224Y-77194316D01*
X166702256Y-77205941D01*
X156487003Y-87421196D01*
X156457999Y-87444999D01*
X156402871Y-87512174D01*
X156363026Y-87560724D01*
X156305324Y-87668676D01*
X156292454Y-87692754D01*
X156248997Y-87836015D01*
X156238000Y-87947668D01*
X156238000Y-87947678D01*
X156234324Y-87985000D01*
X156238000Y-88022323D01*
X156238001Y-93819463D01*
X156169414Y-93922111D01*
X156098932Y-94092271D01*
X156063000Y-94272911D01*
X156063000Y-94457089D01*
X156098932Y-94637729D01*
X156169414Y-94807889D01*
X156271738Y-94961028D01*
X156401972Y-95091262D01*
X156555111Y-95193586D01*
X156725271Y-95264068D01*
X156905911Y-95300000D01*
X157090089Y-95300000D01*
X157270729Y-95264068D01*
X157440889Y-95193586D01*
X157594028Y-95091262D01*
X157724262Y-94961028D01*
X157826586Y-94807889D01*
X157897068Y-94637729D01*
X157933000Y-94457089D01*
X157933000Y-94272911D01*
X157897068Y-94092271D01*
X157826586Y-93922111D01*
X157758000Y-93819465D01*
X157758000Y-88299801D01*
X168924172Y-77133631D01*
X169124224Y-77194316D01*
X169242257Y-77205941D01*
X158487003Y-87961196D01*
X158457999Y-87984999D01*
X158433768Y-88014525D01*
X158363026Y-88100724D01*
X158313168Y-88194002D01*
X158292454Y-88232754D01*
X158248997Y-88376015D01*
X158238000Y-88487668D01*
X158238000Y-88487678D01*
X158234324Y-88525000D01*
X158238000Y-88562323D01*
X158238001Y-91819463D01*
X158169414Y-91922111D01*
X158098932Y-92092271D01*
X158063000Y-92272911D01*
X158063000Y-92457089D01*
X158098932Y-92637729D01*
X158169414Y-92807889D01*
X158271738Y-92961028D01*
X158401972Y-93091262D01*
X158555111Y-93193586D01*
X158725271Y-93264068D01*
X158905911Y-93300000D01*
X159090089Y-93300000D01*
X159270729Y-93264068D01*
X159440889Y-93193586D01*
X159594028Y-93091262D01*
X159724262Y-92961028D01*
X159826586Y-92807889D01*
X159897068Y-92637729D01*
X159933000Y-92457089D01*
X159933000Y-92272911D01*
X159897068Y-92092271D01*
X159826586Y-91922111D01*
X159758000Y-91819465D01*
X159758000Y-88839801D01*
X171464171Y-77133631D01*
X171664224Y-77194316D01*
X171958000Y-77223251D01*
X172251777Y-77194316D01*
X172534264Y-77108625D01*
X172794606Y-76969469D01*
X173022797Y-76782197D01*
X173210069Y-76554006D01*
X173228000Y-76520459D01*
X173245931Y-76554006D01*
X173433203Y-76782197D01*
X173473187Y-76815011D01*
X160846352Y-89441847D01*
X160725271Y-89465932D01*
X160555111Y-89536414D01*
X160401972Y-89638738D01*
X160271738Y-89768972D01*
X160169414Y-89922111D01*
X160098932Y-90092271D01*
X160063000Y-90272911D01*
X160063000Y-90457089D01*
X160098932Y-90637729D01*
X160169414Y-90807889D01*
X160271738Y-90961028D01*
X160401972Y-91091262D01*
X160555111Y-91193586D01*
X160725271Y-91264068D01*
X160905911Y-91300000D01*
X161090089Y-91300000D01*
X161270729Y-91264068D01*
X161440889Y-91193586D01*
X161594028Y-91091262D01*
X161724262Y-90961028D01*
X161826586Y-90807889D01*
X161897068Y-90637729D01*
X161921153Y-90516648D01*
X175009003Y-77428799D01*
X175038001Y-77405001D01*
X175088085Y-77343974D01*
X175132974Y-77289277D01*
X175203546Y-77157247D01*
X175235709Y-77051217D01*
X175246167Y-77016740D01*
X175334606Y-76969469D01*
X175562797Y-76782197D01*
X175750069Y-76554006D01*
X175889225Y-76293663D01*
X175974916Y-76011176D01*
X175996600Y-75791018D01*
X175996600Y-75338981D01*
X175974916Y-75118823D01*
X175889225Y-74836336D01*
X175750069Y-74575994D01*
X175562797Y-74347803D01*
X175334605Y-74160531D01*
X175074263Y-74021375D01*
X174791776Y-73935684D01*
X174498000Y-73906749D01*
X174204223Y-73935684D01*
X173921736Y-74021375D01*
X173661394Y-74160531D01*
X173433203Y-74347803D01*
X173245931Y-74575995D01*
X173228000Y-74609541D01*
X173210069Y-74575994D01*
X173022797Y-74347803D01*
X172794605Y-74160531D01*
X172534263Y-74021375D01*
X172251776Y-73935684D01*
X171958000Y-73906749D01*
X171664223Y-73935684D01*
X171381736Y-74021375D01*
X171121394Y-74160531D01*
X170893203Y-74347803D01*
X170705931Y-74575995D01*
X170688000Y-74609541D01*
X170670069Y-74575994D01*
X170482797Y-74347803D01*
X170254605Y-74160531D01*
X169994263Y-74021375D01*
X169711776Y-73935684D01*
X169418000Y-73906749D01*
X169124223Y-73935684D01*
X168841736Y-74021375D01*
X168581394Y-74160531D01*
X168353203Y-74347803D01*
X168165931Y-74575995D01*
X168148000Y-74609541D01*
X168130069Y-74575994D01*
X167942797Y-74347803D01*
X167714605Y-74160531D01*
X167454263Y-74021375D01*
X167171776Y-73935684D01*
X166878000Y-73906749D01*
X166584223Y-73935684D01*
X166301736Y-74021375D01*
X166041394Y-74160531D01*
X165813203Y-74347803D01*
X165625931Y-74575995D01*
X165608000Y-74609541D01*
X165590069Y-74575994D01*
X165402797Y-74347803D01*
X165174605Y-74160531D01*
X164914263Y-74021375D01*
X164631776Y-73935684D01*
X164338000Y-73906749D01*
X164044223Y-73935684D01*
X163761736Y-74021375D01*
X163501394Y-74160531D01*
X163273203Y-74347803D01*
X163085931Y-74575995D01*
X163068000Y-74609541D01*
X163050069Y-74575994D01*
X162862797Y-74347803D01*
X162634605Y-74160531D01*
X162374263Y-74021375D01*
X162091776Y-73935684D01*
X161798000Y-73906749D01*
X161504223Y-73935684D01*
X161221736Y-74021375D01*
X160961394Y-74160531D01*
X160733203Y-74347803D01*
X160545931Y-74575995D01*
X160528000Y-74609541D01*
X160510069Y-74575994D01*
X160322797Y-74347803D01*
X160094605Y-74160531D01*
X159834263Y-74021375D01*
X159551776Y-73935684D01*
X159258000Y-73906749D01*
X158964223Y-73935684D01*
X158681736Y-74021375D01*
X158421394Y-74160531D01*
X158193203Y-74347803D01*
X158005931Y-74575995D01*
X157988000Y-74609541D01*
X157970069Y-74575994D01*
X157782797Y-74347803D01*
X157554605Y-74160531D01*
X157294263Y-74021375D01*
X157011776Y-73935684D01*
X156718000Y-73906749D01*
X156424223Y-73935684D01*
X156141736Y-74021375D01*
X155881394Y-74160531D01*
X155653203Y-74347803D01*
X155465931Y-74575995D01*
X155326775Y-74836337D01*
X155241084Y-75118824D01*
X155219400Y-75338982D01*
X155219400Y-75791019D01*
X155237133Y-75971065D01*
X146487003Y-84721196D01*
X146457999Y-84744999D01*
X146411710Y-84801403D01*
X146363026Y-84860724D01*
X146307822Y-84964003D01*
X146292454Y-84992754D01*
X146248997Y-85136015D01*
X146238000Y-85247668D01*
X146238000Y-85247678D01*
X146234324Y-85285000D01*
X146238000Y-85322322D01*
X146238001Y-103819463D01*
X146169414Y-103922111D01*
X146098932Y-104092271D01*
X146063000Y-104272911D01*
X145758000Y-104272911D01*
X145758000Y-84679801D01*
X153165003Y-77272799D01*
X153194001Y-77249001D01*
X153238880Y-77194316D01*
X153288974Y-77133277D01*
X153330904Y-77054832D01*
X153490606Y-76969469D01*
X153718797Y-76782197D01*
X153906069Y-76554006D01*
X154045225Y-76293663D01*
X154130916Y-76011176D01*
X154152600Y-75791018D01*
X154152600Y-75338981D01*
X154130916Y-75118823D01*
X154045225Y-74836336D01*
X153906069Y-74575994D01*
X153718797Y-74347803D01*
X153490605Y-74160531D01*
X153230263Y-74021375D01*
X152947776Y-73935684D01*
X152654000Y-73906749D01*
X152360223Y-73935684D01*
X152077736Y-74021375D01*
X151817394Y-74160531D01*
X151589203Y-74347803D01*
X151401931Y-74575995D01*
X151384000Y-74609541D01*
X151366069Y-74575994D01*
X151178797Y-74347803D01*
X150950605Y-74160531D01*
X150690263Y-74021375D01*
X150407776Y-73935684D01*
X150114000Y-73906749D01*
X149820223Y-73935684D01*
X149537736Y-74021375D01*
X149277394Y-74160531D01*
X149049203Y-74347803D01*
X148861931Y-74575995D01*
X148844000Y-74609541D01*
X148826069Y-74575994D01*
X148638797Y-74347803D01*
X148410605Y-74160531D01*
X148150263Y-74021375D01*
X147867776Y-73935684D01*
X147574000Y-73906749D01*
X147280223Y-73935684D01*
X146997736Y-74021375D01*
X146737394Y-74160531D01*
X146509203Y-74347803D01*
X146321931Y-74575995D01*
X146304000Y-74609541D01*
X146286069Y-74575994D01*
X146098797Y-74347803D01*
X145870605Y-74160531D01*
X145610263Y-74021375D01*
X145327776Y-73935684D01*
X145034000Y-73906749D01*
X144740223Y-73935684D01*
X144457736Y-74021375D01*
X144197394Y-74160531D01*
X143969203Y-74347803D01*
X143781931Y-74575995D01*
X143764000Y-74609541D01*
X143746069Y-74575994D01*
X143558797Y-74347803D01*
X143330605Y-74160531D01*
X143070263Y-74021375D01*
X142787776Y-73935684D01*
X142494000Y-73906749D01*
X142200223Y-73935684D01*
X141917736Y-74021375D01*
X141657394Y-74160531D01*
X141429203Y-74347803D01*
X141241931Y-74575995D01*
X141224000Y-74609541D01*
X141206069Y-74575994D01*
X141018797Y-74347803D01*
X140790605Y-74160531D01*
X140530263Y-74021375D01*
X140247776Y-73935684D01*
X139954000Y-73906749D01*
X139660223Y-73935684D01*
X139377736Y-74021375D01*
X139117394Y-74160531D01*
X138889203Y-74347803D01*
X138701931Y-74575995D01*
X138680576Y-74615947D01*
X138532486Y-74413271D01*
X138316035Y-74214267D01*
X138064919Y-74061314D01*
X137788789Y-73960291D01*
X137773026Y-73957642D01*
X137541000Y-74078783D01*
X137541000Y-75438000D01*
X137561000Y-75438000D01*
X137561000Y-75692000D01*
X137541000Y-75692000D01*
X137541000Y-77051217D01*
X137773026Y-77172358D01*
X137788789Y-77169709D01*
X138064919Y-77068686D01*
X138316035Y-76915733D01*
X138532486Y-76716729D01*
X138680576Y-76514053D01*
X138701931Y-76554006D01*
X138889203Y-76782197D01*
X139117395Y-76969469D01*
X139377737Y-77108625D01*
X139660224Y-77194316D01*
X139954000Y-77223251D01*
X140247777Y-77194316D01*
X140530264Y-77108625D01*
X140790606Y-76969469D01*
X141018797Y-76782197D01*
X141206069Y-76554006D01*
X141224000Y-76520459D01*
X141241931Y-76554006D01*
X141429203Y-76782197D01*
X141657395Y-76969469D01*
X141917737Y-77108625D01*
X142200224Y-77194316D01*
X142318257Y-77205941D01*
X139302739Y-80221460D01*
X139272068Y-80067271D01*
X139201586Y-79897111D01*
X139099262Y-79743972D01*
X138969028Y-79613738D01*
X138815889Y-79511414D01*
X138645729Y-79440932D01*
X138465089Y-79405000D01*
X138280911Y-79405000D01*
X138100271Y-79440932D01*
X137930111Y-79511414D01*
X137827465Y-79580000D01*
X137127527Y-79580000D01*
X137118472Y-79550149D01*
X137036405Y-79396613D01*
X136925962Y-79262038D01*
X136791387Y-79151595D01*
X136637851Y-79069528D01*
X136471255Y-79018992D01*
X136298001Y-79001928D01*
X135597999Y-79001928D01*
X135424745Y-79018992D01*
X135258149Y-79069528D01*
X135104613Y-79151595D01*
X134970038Y-79262038D01*
X134948000Y-79288891D01*
X134925962Y-79262038D01*
X134791387Y-79151595D01*
X134637851Y-79069528D01*
X134471255Y-79018992D01*
X134298001Y-79001928D01*
X133597999Y-79001928D01*
X133424745Y-79018992D01*
X133258149Y-79069528D01*
X133104613Y-79151595D01*
X132970038Y-79262038D01*
X132859595Y-79396613D01*
X132777528Y-79550149D01*
X132726992Y-79716745D01*
X132709928Y-79889999D01*
X132709928Y-80790001D01*
X132726992Y-80963255D01*
X132777528Y-81129851D01*
X132859595Y-81283387D01*
X132970038Y-81417962D01*
X133104613Y-81528405D01*
X133188000Y-81572977D01*
X133188001Y-83505000D01*
X127152802Y-83505000D01*
X123476804Y-79829003D01*
X123476799Y-79828997D01*
X123421731Y-79773930D01*
X123473000Y-79516184D01*
X123473000Y-79213816D01*
X123414011Y-78917257D01*
X123298299Y-78637905D01*
X123130312Y-78386495D01*
X122916505Y-78172688D01*
X122665095Y-78004701D01*
X122385743Y-77888989D01*
X122089184Y-77830000D01*
X121786816Y-77830000D01*
X121490257Y-77888989D01*
X121210905Y-78004701D01*
X120959495Y-78172688D01*
X120893056Y-78239127D01*
X120887502Y-78220820D01*
X120828537Y-78110506D01*
X120749185Y-78013815D01*
X120652494Y-77934463D01*
X120542180Y-77875498D01*
X120422482Y-77839188D01*
X120298000Y-77826928D01*
X118498000Y-77826928D01*
X118373518Y-77839188D01*
X118253820Y-77875498D01*
X118143506Y-77934463D01*
X118046815Y-78013815D01*
X117967463Y-78110506D01*
X117908498Y-78220820D01*
X117872188Y-78340518D01*
X117859928Y-78465000D01*
X117859928Y-80112126D01*
X117571731Y-79823930D01*
X117623000Y-79566184D01*
X117623000Y-79263816D01*
X117564011Y-78967257D01*
X117448299Y-78687905D01*
X117280312Y-78436495D01*
X117066505Y-78222688D01*
X116815095Y-78054701D01*
X116535743Y-77938989D01*
X116239184Y-77880000D01*
X115936816Y-77880000D01*
X115640257Y-77938989D01*
X115360905Y-78054701D01*
X115109495Y-78222688D01*
X115043056Y-78289127D01*
X115037502Y-78270820D01*
X114978537Y-78160506D01*
X114899185Y-78063815D01*
X114802494Y-77984463D01*
X114692180Y-77925498D01*
X114572482Y-77889188D01*
X114448000Y-77876928D01*
X113833750Y-77880000D01*
X113675000Y-78038750D01*
X113675000Y-79288000D01*
X113695000Y-79288000D01*
X113695000Y-79542000D01*
X113675000Y-79542000D01*
X113675000Y-80791250D01*
X113833750Y-80950000D01*
X114448000Y-80953072D01*
X114572482Y-80940812D01*
X114692180Y-80904502D01*
X114802494Y-80845537D01*
X114899185Y-80766185D01*
X114978537Y-80669494D01*
X115037502Y-80559180D01*
X115043056Y-80540873D01*
X115109495Y-80607312D01*
X115360905Y-80775299D01*
X115640257Y-80891011D01*
X115936816Y-80950000D01*
X116239184Y-80950000D01*
X116496930Y-80898731D01*
X117977017Y-82378819D01*
X117977023Y-82378824D01*
X124474201Y-88876003D01*
X124497999Y-88905001D01*
X124526997Y-88928799D01*
X124585642Y-88976928D01*
X123248000Y-88976928D01*
X123123518Y-88989188D01*
X123003820Y-89025498D01*
X122893506Y-89084463D01*
X122796815Y-89163815D01*
X122717463Y-89260506D01*
X122658498Y-89370820D01*
X122622188Y-89490518D01*
X122609928Y-89615000D01*
X122609928Y-91315000D01*
X122622188Y-91439482D01*
X122658498Y-91559180D01*
X122717463Y-91669494D01*
X122796815Y-91766185D01*
X122893506Y-91845537D01*
X123003820Y-91904502D01*
X123076380Y-91926513D01*
X122944525Y-92058368D01*
X122782010Y-92301589D01*
X122670068Y-92571842D01*
X122613000Y-92858740D01*
X122613000Y-93151260D01*
X122670068Y-93438158D01*
X122782010Y-93708411D01*
X122944525Y-93951632D01*
X123151368Y-94158475D01*
X123325760Y-94275000D01*
X123151368Y-94391525D01*
X122944525Y-94598368D01*
X122782010Y-94841589D01*
X122670068Y-95111842D01*
X122613000Y-95398740D01*
X122613000Y-95691260D01*
X122670068Y-95978158D01*
X122782010Y-96248411D01*
X122944525Y-96491632D01*
X123151368Y-96698475D01*
X123325760Y-96815000D01*
X123151368Y-96931525D01*
X122944525Y-97138368D01*
X122782010Y-97381589D01*
X122670068Y-97651842D01*
X122613000Y-97938740D01*
X122613000Y-98231260D01*
X122670068Y-98518158D01*
X122782010Y-98788411D01*
X122944525Y-99031632D01*
X123151368Y-99238475D01*
X123325760Y-99355000D01*
X123151368Y-99471525D01*
X122944525Y-99678368D01*
X122782010Y-99921589D01*
X122670068Y-100191842D01*
X122613000Y-100478740D01*
X122613000Y-100771260D01*
X122670068Y-101058158D01*
X122782010Y-101328411D01*
X122944525Y-101571632D01*
X123151368Y-101778475D01*
X123325760Y-101895000D01*
X123151368Y-102011525D01*
X122944525Y-102218368D01*
X122782010Y-102461589D01*
X122670068Y-102731842D01*
X122613000Y-103018740D01*
X122613000Y-103311260D01*
X122670068Y-103598158D01*
X122782010Y-103868411D01*
X122944525Y-104111632D01*
X123151368Y-104318475D01*
X123325760Y-104435000D01*
X123151368Y-104551525D01*
X122944525Y-104758368D01*
X122782010Y-105001589D01*
X122670068Y-105271842D01*
X122613000Y-105558740D01*
X122613000Y-105851260D01*
X122670068Y-106138158D01*
X122782010Y-106408411D01*
X122944525Y-106651632D01*
X123151368Y-106858475D01*
X123325760Y-106975000D01*
X123151368Y-107091525D01*
X122944525Y-107298368D01*
X122782010Y-107541589D01*
X122670068Y-107811842D01*
X122613000Y-108098740D01*
X122613000Y-108391260D01*
X122670068Y-108678158D01*
X122782010Y-108948411D01*
X122944525Y-109191632D01*
X123151368Y-109398475D01*
X123325760Y-109515000D01*
X123151368Y-109631525D01*
X122944525Y-109838368D01*
X122782010Y-110081589D01*
X122670068Y-110351842D01*
X122613000Y-110638740D01*
X122613000Y-110931260D01*
X122670068Y-111218158D01*
X122782010Y-111488411D01*
X122944525Y-111731632D01*
X123151368Y-111938475D01*
X123325760Y-112055000D01*
X123151368Y-112171525D01*
X122944525Y-112378368D01*
X122782010Y-112621589D01*
X122670068Y-112891842D01*
X122613000Y-113178740D01*
X122613000Y-113471260D01*
X122670068Y-113758158D01*
X122782010Y-114028411D01*
X122944525Y-114271632D01*
X123151368Y-114478475D01*
X123325760Y-114595000D01*
X123151368Y-114711525D01*
X122944525Y-114918368D01*
X122782010Y-115161589D01*
X122670068Y-115431842D01*
X122613000Y-115718740D01*
X122613000Y-116011260D01*
X122670068Y-116298158D01*
X122782010Y-116568411D01*
X122944525Y-116811632D01*
X123151368Y-117018475D01*
X123325760Y-117135000D01*
X123151368Y-117251525D01*
X122944525Y-117458368D01*
X122782010Y-117701589D01*
X122670068Y-117971842D01*
X122613000Y-118258740D01*
X122613000Y-118551260D01*
X122670068Y-118838158D01*
X122782010Y-119108411D01*
X122944525Y-119351632D01*
X123151368Y-119558475D01*
X123394589Y-119720990D01*
X123664842Y-119832932D01*
X123951740Y-119890000D01*
X124244260Y-119890000D01*
X124531158Y-119832932D01*
X124801411Y-119720990D01*
X125044632Y-119558475D01*
X125251475Y-119351632D01*
X125294327Y-119287500D01*
X127279005Y-119287500D01*
X127345038Y-119367962D01*
X127479614Y-119478405D01*
X127633150Y-119560472D01*
X127799746Y-119611008D01*
X127973000Y-119628072D01*
X128923000Y-119628072D01*
X129096254Y-119611008D01*
X129262850Y-119560472D01*
X129416386Y-119478405D01*
X129550962Y-119367962D01*
X129616995Y-119287500D01*
X143308922Y-119287500D01*
X146228072Y-122206650D01*
X145981736Y-122281375D01*
X145721394Y-122420531D01*
X145493203Y-122607803D01*
X145305931Y-122835995D01*
X145288000Y-122869541D01*
X145270069Y-122835994D01*
X145082797Y-122607803D01*
X144854605Y-122420531D01*
X144594263Y-122281375D01*
X144311776Y-122195684D01*
X144018000Y-122166749D01*
X143724223Y-122195684D01*
X143441736Y-122281375D01*
X143181394Y-122420531D01*
X142953203Y-122607803D01*
X142765931Y-122835995D01*
X142748000Y-122869541D01*
X142730069Y-122835994D01*
X142542797Y-122607803D01*
X142314605Y-122420531D01*
X142054263Y-122281375D01*
X141771776Y-122195684D01*
X141478000Y-122166749D01*
X141184223Y-122195684D01*
X140901736Y-122281375D01*
X140641394Y-122420531D01*
X140413203Y-122607803D01*
X140225931Y-122835995D01*
X140208000Y-122869541D01*
X140190069Y-122835994D01*
X140002797Y-122607803D01*
X139774605Y-122420531D01*
X139514263Y-122281375D01*
X139231776Y-122195684D01*
X138938000Y-122166749D01*
X138644223Y-122195684D01*
X138361736Y-122281375D01*
X138101394Y-122420531D01*
X137873203Y-122607803D01*
X137685931Y-122835995D01*
X137546775Y-123096337D01*
X137461084Y-123378824D01*
X137439400Y-123598982D01*
X137439400Y-124051019D01*
X137461084Y-124271177D01*
X137546775Y-124553664D01*
X137685931Y-124814006D01*
X137873203Y-125042197D01*
X138101395Y-125229469D01*
X138361737Y-125368625D01*
X138644224Y-125454316D01*
X138938000Y-125483251D01*
X139231777Y-125454316D01*
X139514264Y-125368625D01*
X139774606Y-125229469D01*
X140002797Y-125042197D01*
X140190069Y-124814006D01*
X140208000Y-124780459D01*
X140225931Y-124814006D01*
X140413203Y-125042197D01*
X140641395Y-125229469D01*
X140901737Y-125368625D01*
X141184224Y-125454316D01*
X141478000Y-125483251D01*
X141771777Y-125454316D01*
X142054264Y-125368625D01*
X142314606Y-125229469D01*
X142542797Y-125042197D01*
X142730069Y-124814006D01*
X142748000Y-124780459D01*
X142765931Y-124814006D01*
X142953203Y-125042197D01*
X143181395Y-125229469D01*
X143441737Y-125368625D01*
X143724224Y-125454316D01*
X144018000Y-125483251D01*
X144311777Y-125454316D01*
X144594264Y-125368625D01*
X144854606Y-125229469D01*
X145082797Y-125042197D01*
X145270069Y-124814006D01*
X145288000Y-124780459D01*
X145305931Y-124814006D01*
X145493203Y-125042197D01*
X145721395Y-125229469D01*
X145981737Y-125368625D01*
X146264224Y-125454316D01*
X146558000Y-125483251D01*
X146851777Y-125454316D01*
X147134264Y-125368625D01*
X147394606Y-125229469D01*
X147622797Y-125042197D01*
X147810069Y-124814006D01*
X147828000Y-124780459D01*
X147845931Y-124814006D01*
X148033203Y-125042197D01*
X148261395Y-125229469D01*
X148521737Y-125368625D01*
X148804224Y-125454316D01*
X149098000Y-125483251D01*
X149391777Y-125454316D01*
X149674264Y-125368625D01*
X149934606Y-125229469D01*
X150162797Y-125042197D01*
X150350069Y-124814006D01*
X150371424Y-124774053D01*
X150519514Y-124976729D01*
X150735965Y-125175733D01*
X150987081Y-125328686D01*
X151263211Y-125429709D01*
X151278974Y-125432358D01*
X151511000Y-125311217D01*
X151511000Y-123952000D01*
X151765000Y-123952000D01*
X151765000Y-125311217D01*
X151997026Y-125432358D01*
X152012789Y-125429709D01*
X152288919Y-125328686D01*
X152540035Y-125175733D01*
X152756486Y-124976729D01*
X152908000Y-124769367D01*
X153059514Y-124976729D01*
X153275965Y-125175733D01*
X153527081Y-125328686D01*
X153803211Y-125429709D01*
X153818974Y-125432358D01*
X154051000Y-125311217D01*
X154051000Y-123952000D01*
X151765000Y-123952000D01*
X151511000Y-123952000D01*
X151491000Y-123952000D01*
X151491000Y-123698000D01*
X151511000Y-123698000D01*
X151511000Y-123678000D01*
X151765000Y-123678000D01*
X151765000Y-123698000D01*
X154051000Y-123698000D01*
X154051000Y-122338783D01*
X154305000Y-122338783D01*
X154305000Y-123698000D01*
X154325000Y-123698000D01*
X154325000Y-123952000D01*
X154305000Y-123952000D01*
X154305000Y-125311217D01*
X154537026Y-125432358D01*
X154552789Y-125429709D01*
X154828919Y-125328686D01*
X155080035Y-125175733D01*
X155296486Y-124976729D01*
X155444576Y-124774053D01*
X155465931Y-124814006D01*
X155653203Y-125042197D01*
X155881395Y-125229469D01*
X156141737Y-125368625D01*
X156424224Y-125454316D01*
X156718000Y-125483251D01*
X157011777Y-125454316D01*
X157294264Y-125368625D01*
X157554606Y-125229469D01*
X157782797Y-125042197D01*
X157970069Y-124814006D01*
X158109225Y-124553663D01*
X158194916Y-124271176D01*
X158216600Y-124051018D01*
X158216600Y-123598981D01*
X158194916Y-123378823D01*
X158109225Y-123096336D01*
X157970069Y-122835994D01*
X157782797Y-122607803D01*
X157554605Y-122420531D01*
X157294263Y-122281375D01*
X157011776Y-122195684D01*
X156718000Y-122166749D01*
X156424223Y-122195684D01*
X156141736Y-122281375D01*
X155881394Y-122420531D01*
X155653203Y-122607803D01*
X155465931Y-122835995D01*
X155444576Y-122875947D01*
X155296486Y-122673271D01*
X155080035Y-122474267D01*
X154828919Y-122321314D01*
X154552789Y-122220291D01*
X154537026Y-122217642D01*
X154305000Y-122338783D01*
X154051000Y-122338783D01*
X153818974Y-122217642D01*
X153803211Y-122220291D01*
X153527081Y-122321314D01*
X153275965Y-122474267D01*
X153059514Y-122673271D01*
X152908000Y-122880633D01*
X152756486Y-122673271D01*
X152540035Y-122474267D01*
X152288919Y-122321314D01*
X152012789Y-122220291D01*
X151997026Y-122217642D01*
X151765002Y-122338782D01*
X151765002Y-122232799D01*
X159695911Y-114301890D01*
X169956524Y-114301890D01*
X170001175Y-114449099D01*
X170126359Y-114711920D01*
X170300412Y-114945269D01*
X170516645Y-115140178D01*
X170766748Y-115289157D01*
X171041109Y-115386481D01*
X171271000Y-115265814D01*
X171271000Y-114072000D01*
X171525000Y-114072000D01*
X171525000Y-115265814D01*
X171754891Y-115386481D01*
X172029252Y-115289157D01*
X172279355Y-115140178D01*
X172495588Y-114945269D01*
X172669641Y-114711920D01*
X172794825Y-114449099D01*
X172839476Y-114301890D01*
X172718155Y-114072000D01*
X171525000Y-114072000D01*
X171271000Y-114072000D01*
X170077845Y-114072000D01*
X169956524Y-114301890D01*
X159695911Y-114301890D01*
X164372802Y-109625000D01*
X170119822Y-109625000D01*
X170244525Y-109811632D01*
X170451368Y-110018475D01*
X170625760Y-110135000D01*
X170451368Y-110251525D01*
X170244525Y-110458368D01*
X170082010Y-110701589D01*
X169970068Y-110971842D01*
X169913000Y-111258740D01*
X169913000Y-111551260D01*
X169970068Y-111838158D01*
X170082010Y-112108411D01*
X170244525Y-112351632D01*
X170451368Y-112558475D01*
X170633534Y-112680195D01*
X170516645Y-112749822D01*
X170300412Y-112944731D01*
X170126359Y-113178080D01*
X170001175Y-113440901D01*
X169956524Y-113588110D01*
X170077845Y-113818000D01*
X171271000Y-113818000D01*
X171271000Y-113798000D01*
X171525000Y-113798000D01*
X171525000Y-113818000D01*
X172718155Y-113818000D01*
X172839476Y-113588110D01*
X172794825Y-113440901D01*
X172669641Y-113178080D01*
X172495588Y-112944731D01*
X172279355Y-112749822D01*
X172162466Y-112680195D01*
X172344632Y-112558475D01*
X172551475Y-112351632D01*
X172713990Y-112108411D01*
X172825932Y-111838158D01*
X172883000Y-111551260D01*
X172883000Y-111258740D01*
X172825932Y-110971842D01*
X172713990Y-110701589D01*
X172551475Y-110458368D01*
X172344632Y-110251525D01*
X172170240Y-110135000D01*
X172344632Y-110018475D01*
X172551475Y-109811632D01*
X172713990Y-109568411D01*
X172825932Y-109298158D01*
X172883000Y-109011260D01*
X172883000Y-108718740D01*
X172825932Y-108431842D01*
X172713990Y-108161589D01*
X172551475Y-107918368D01*
X172344632Y-107711525D01*
X172170240Y-107595000D01*
X172344632Y-107478475D01*
X172551475Y-107271632D01*
X172713990Y-107028411D01*
X172825932Y-106758158D01*
X172883000Y-106471260D01*
X172883000Y-106178740D01*
X172825932Y-105891842D01*
X172713990Y-105621589D01*
X172551475Y-105378368D01*
X172344632Y-105171525D01*
X172170240Y-105055000D01*
X172344632Y-104938475D01*
X172551475Y-104731632D01*
X172713990Y-104488411D01*
X172825932Y-104218158D01*
X172883000Y-103931260D01*
X172883000Y-103638740D01*
X172825932Y-103351842D01*
X172713990Y-103081589D01*
X172551475Y-102838368D01*
X172344632Y-102631525D01*
X172170240Y-102515000D01*
X172344632Y-102398475D01*
X172551475Y-102191632D01*
X172713990Y-101948411D01*
X172825932Y-101678158D01*
X172883000Y-101391260D01*
X172883000Y-101098740D01*
X172825932Y-100811842D01*
X172713990Y-100541589D01*
X172551475Y-100298368D01*
X172344632Y-100091525D01*
X172170240Y-99975000D01*
X172344632Y-99858475D01*
X172551475Y-99651632D01*
X172713990Y-99408411D01*
X172825932Y-99138158D01*
X172883000Y-98851260D01*
X172883000Y-98724802D01*
X173138000Y-98979802D01*
X173138001Y-121570197D01*
X172451830Y-122256369D01*
X172251776Y-122195684D01*
X171958000Y-122166749D01*
X171664223Y-122195684D01*
X171381736Y-122281375D01*
X171121394Y-122420531D01*
X170893203Y-122607803D01*
X170705931Y-122835995D01*
X170688000Y-122869541D01*
X170670069Y-122835994D01*
X170482797Y-122607803D01*
X170254605Y-122420531D01*
X169994263Y-122281375D01*
X169711776Y-122195684D01*
X169418000Y-122166749D01*
X169124223Y-122195684D01*
X168841736Y-122281375D01*
X168581394Y-122420531D01*
X168353203Y-122607803D01*
X168165931Y-122835995D01*
X168148000Y-122869541D01*
X168130069Y-122835994D01*
X167942797Y-122607803D01*
X167714605Y-122420531D01*
X167454263Y-122281375D01*
X167171776Y-122195684D01*
X166878000Y-122166749D01*
X166584223Y-122195684D01*
X166301736Y-122281375D01*
X166041394Y-122420531D01*
X165813203Y-122607803D01*
X165625931Y-122835995D01*
X165608000Y-122869541D01*
X165590069Y-122835994D01*
X165402797Y-122607803D01*
X165174605Y-122420531D01*
X164914263Y-122281375D01*
X164631776Y-122195684D01*
X164338000Y-122166749D01*
X164044223Y-122195684D01*
X163761736Y-122281375D01*
X163501394Y-122420531D01*
X163273203Y-122607803D01*
X163085931Y-122835995D01*
X163068000Y-122869541D01*
X163050069Y-122835994D01*
X162862797Y-122607803D01*
X162634605Y-122420531D01*
X162374263Y-122281375D01*
X162091776Y-122195684D01*
X161798000Y-122166749D01*
X161504223Y-122195684D01*
X161221736Y-122281375D01*
X160961394Y-122420531D01*
X160733203Y-122607803D01*
X160545931Y-122835995D01*
X160406775Y-123096337D01*
X160321084Y-123378824D01*
X160299400Y-123598982D01*
X160299400Y-124051019D01*
X160321084Y-124271177D01*
X160406775Y-124553664D01*
X160545931Y-124814006D01*
X160733203Y-125042197D01*
X160961395Y-125229469D01*
X161221737Y-125368625D01*
X161504224Y-125454316D01*
X161798000Y-125483251D01*
X162091777Y-125454316D01*
X162374264Y-125368625D01*
X162634606Y-125229469D01*
X162862797Y-125042197D01*
X163050069Y-124814006D01*
X163068000Y-124780459D01*
X163085931Y-124814006D01*
X163273203Y-125042197D01*
X163501395Y-125229469D01*
X163761737Y-125368625D01*
X164044224Y-125454316D01*
X164338000Y-125483251D01*
X164631777Y-125454316D01*
X164914264Y-125368625D01*
X165174606Y-125229469D01*
X165402797Y-125042197D01*
X165590069Y-124814006D01*
X165608000Y-124780459D01*
X165625931Y-124814006D01*
X165813203Y-125042197D01*
X166041395Y-125229469D01*
X166301737Y-125368625D01*
X166584224Y-125454316D01*
X166878000Y-125483251D01*
X167171777Y-125454316D01*
X167454264Y-125368625D01*
X167714606Y-125229469D01*
X167942797Y-125042197D01*
X168130069Y-124814006D01*
X168148000Y-124780459D01*
X168165931Y-124814006D01*
X168353203Y-125042197D01*
X168581395Y-125229469D01*
X168841737Y-125368625D01*
X169124224Y-125454316D01*
X169418000Y-125483251D01*
X169711777Y-125454316D01*
X169994264Y-125368625D01*
X170254606Y-125229469D01*
X170482797Y-125042197D01*
X170670069Y-124814006D01*
X170688000Y-124780459D01*
X170705931Y-124814006D01*
X170893203Y-125042197D01*
X171121395Y-125229469D01*
X171381737Y-125368625D01*
X171664224Y-125454316D01*
X171958000Y-125483251D01*
X172251777Y-125454316D01*
X172534264Y-125368625D01*
X172794606Y-125229469D01*
X173022797Y-125042197D01*
X173210069Y-124814006D01*
X173228000Y-124780459D01*
X173245931Y-124814006D01*
X173433203Y-125042197D01*
X173661395Y-125229469D01*
X173921737Y-125368625D01*
X174204224Y-125454316D01*
X174498000Y-125483251D01*
X174791777Y-125454316D01*
X175074264Y-125368625D01*
X175334606Y-125229469D01*
X175562797Y-125042197D01*
X175750069Y-124814006D01*
X175889225Y-124553663D01*
X175974916Y-124271176D01*
X175996600Y-124051018D01*
X175996600Y-123598981D01*
X175974916Y-123378823D01*
X175889225Y-123096336D01*
X175750069Y-122835994D01*
X175562797Y-122607803D01*
X175334605Y-122420531D01*
X175074263Y-122281375D01*
X174791776Y-122195684D01*
X174603576Y-122177148D01*
X174647003Y-122033986D01*
X174658000Y-121922333D01*
X174658000Y-121922323D01*
X174661676Y-121885000D01*
X174658000Y-121847677D01*
X174658000Y-119968377D01*
X174674536Y-120008298D01*
X174966406Y-120445113D01*
X175337887Y-120816594D01*
X175774702Y-121108464D01*
X176260065Y-121309508D01*
X176775323Y-121412000D01*
X177300677Y-121412000D01*
X177815935Y-121309508D01*
X178301298Y-121108464D01*
X178738113Y-120816594D01*
X178868000Y-120686707D01*
X178868000Y-120990908D01*
X176560617Y-123298292D01*
X176533526Y-123320525D01*
X176511293Y-123347616D01*
X176444801Y-123428637D01*
X176378872Y-123551981D01*
X176338274Y-123685816D01*
X176324565Y-123825000D01*
X176328001Y-123859885D01*
X176328000Y-125655000D01*
X126909707Y-125655000D01*
X127039594Y-125525113D01*
X127331464Y-125088298D01*
X127532508Y-124602935D01*
X127635000Y-124087677D01*
X127635000Y-123562323D01*
X127532508Y-123047065D01*
X127331464Y-122561702D01*
X127039594Y-122124887D01*
X126668113Y-121753406D01*
X126231298Y-121461536D01*
X125745935Y-121260492D01*
X125230677Y-121158000D01*
X124705323Y-121158000D01*
X124190065Y-121260492D01*
X123704702Y-121461536D01*
X123267887Y-121753406D01*
X122896406Y-122124887D01*
X122604536Y-122561702D01*
X122403492Y-123047065D01*
X122301000Y-123562323D01*
X122301000Y-124087677D01*
X122403492Y-124602935D01*
X122604536Y-125088298D01*
X122896406Y-125525113D01*
X123026293Y-125655000D01*
X111708000Y-125655000D01*
X111708000Y-101525413D01*
X112567192Y-101525413D01*
X112662956Y-101789814D01*
X112952571Y-101930704D01*
X113264108Y-102012384D01*
X113585595Y-102031718D01*
X113904675Y-101987961D01*
X114209088Y-101882795D01*
X114383044Y-101789814D01*
X114478808Y-101525413D01*
X113523000Y-100569605D01*
X112567192Y-101525413D01*
X111708000Y-101525413D01*
X111708000Y-100452595D01*
X111881282Y-100452595D01*
X111925039Y-100771675D01*
X112030205Y-101076088D01*
X112123186Y-101250044D01*
X112387587Y-101345808D01*
X113343395Y-100390000D01*
X113702605Y-100390000D01*
X114658413Y-101345808D01*
X114922814Y-101250044D01*
X115063704Y-100960429D01*
X115145384Y-100648892D01*
X115164718Y-100327405D01*
X115120961Y-100008325D01*
X115015795Y-99703912D01*
X114922814Y-99529956D01*
X114658413Y-99434192D01*
X113702605Y-100390000D01*
X113343395Y-100390000D01*
X112387587Y-99434192D01*
X112123186Y-99529956D01*
X111982296Y-99819571D01*
X111900616Y-100131108D01*
X111881282Y-100452595D01*
X111708000Y-100452595D01*
X111708000Y-99254587D01*
X112567192Y-99254587D01*
X113523000Y-100210395D01*
X114478808Y-99254587D01*
X114383044Y-98990186D01*
X114093429Y-98849296D01*
X113781892Y-98767616D01*
X113460405Y-98748282D01*
X113141325Y-98792039D01*
X112836912Y-98897205D01*
X112662956Y-98990186D01*
X112567192Y-99254587D01*
X111708000Y-99254587D01*
X111708000Y-95728967D01*
X111888000Y-95728967D01*
X111888000Y-96051033D01*
X111950832Y-96366912D01*
X112074082Y-96664463D01*
X112253013Y-96932252D01*
X112480748Y-97159987D01*
X112748537Y-97338918D01*
X113046088Y-97462168D01*
X113361967Y-97525000D01*
X113684033Y-97525000D01*
X113999912Y-97462168D01*
X114297463Y-97338918D01*
X114565252Y-97159987D01*
X114792987Y-96932252D01*
X114971918Y-96664463D01*
X115095168Y-96366912D01*
X115158000Y-96051033D01*
X115158000Y-95728967D01*
X115095168Y-95413088D01*
X114971918Y-95115537D01*
X114792987Y-94847748D01*
X114565252Y-94620013D01*
X114297463Y-94441082D01*
X113999912Y-94317832D01*
X113684033Y-94255000D01*
X113361967Y-94255000D01*
X113046088Y-94317832D01*
X112748537Y-94441082D01*
X112480748Y-94620013D01*
X112253013Y-94847748D01*
X112074082Y-95115537D01*
X111950832Y-95413088D01*
X111888000Y-95728967D01*
X111708000Y-95728967D01*
X111708000Y-91565000D01*
X117434324Y-91565000D01*
X117438000Y-91602322D01*
X117438001Y-108557667D01*
X117434324Y-108595000D01*
X117438001Y-108632333D01*
X117446512Y-108718740D01*
X117448998Y-108743985D01*
X117492454Y-108887246D01*
X117563026Y-109019276D01*
X117605103Y-109070546D01*
X117658000Y-109135001D01*
X117686998Y-109158799D01*
X119531790Y-111003592D01*
X119488000Y-111223740D01*
X119488000Y-111516260D01*
X119545068Y-111803158D01*
X119657010Y-112073411D01*
X119819525Y-112316632D01*
X120026368Y-112523475D01*
X120269589Y-112685990D01*
X120539842Y-112797932D01*
X120826740Y-112855000D01*
X121119260Y-112855000D01*
X121406158Y-112797932D01*
X121676411Y-112685990D01*
X121919632Y-112523475D01*
X122126475Y-112316632D01*
X122288990Y-112073411D01*
X122400932Y-111803158D01*
X122458000Y-111516260D01*
X122458000Y-111223740D01*
X122400932Y-110936842D01*
X122288990Y-110666589D01*
X122126475Y-110423368D01*
X121919632Y-110216525D01*
X121745240Y-110100000D01*
X121919632Y-109983475D01*
X122126475Y-109776632D01*
X122288990Y-109533411D01*
X122400932Y-109263158D01*
X122458000Y-108976260D01*
X122458000Y-108683740D01*
X122400932Y-108396842D01*
X122288990Y-108126589D01*
X122126475Y-107883368D01*
X121994620Y-107751513D01*
X122067180Y-107729502D01*
X122177494Y-107670537D01*
X122274185Y-107591185D01*
X122353537Y-107494494D01*
X122412502Y-107384180D01*
X122448812Y-107264482D01*
X122461072Y-107140000D01*
X122458000Y-106575750D01*
X122299250Y-106417000D01*
X121100000Y-106417000D01*
X121100000Y-106437000D01*
X120846000Y-106437000D01*
X120846000Y-106417000D01*
X120826000Y-106417000D01*
X120826000Y-106163000D01*
X120846000Y-106163000D01*
X120846000Y-104963750D01*
X121100000Y-104963750D01*
X121100000Y-106163000D01*
X122299250Y-106163000D01*
X122458000Y-106004250D01*
X122461072Y-105440000D01*
X122448812Y-105315518D01*
X122412502Y-105195820D01*
X122353537Y-105085506D01*
X122274185Y-104988815D01*
X122177494Y-104909463D01*
X122067180Y-104850498D01*
X121947482Y-104814188D01*
X121823000Y-104801928D01*
X121258750Y-104805000D01*
X121100000Y-104963750D01*
X120846000Y-104963750D01*
X120687250Y-104805000D01*
X120123000Y-104801928D01*
X119998518Y-104814188D01*
X119878820Y-104850498D01*
X119768506Y-104909463D01*
X119671815Y-104988815D01*
X119592463Y-105085506D01*
X119533498Y-105195820D01*
X119497188Y-105315518D01*
X119484928Y-105440000D01*
X119488000Y-106004250D01*
X119646748Y-106162998D01*
X119488000Y-106162998D01*
X119488000Y-106270199D01*
X119457999Y-106240198D01*
X119457999Y-101932127D01*
X119764108Y-102012384D01*
X120085595Y-102031718D01*
X120404675Y-101987961D01*
X120709088Y-101882795D01*
X120883044Y-101789814D01*
X120978808Y-101525413D01*
X120023000Y-100569605D01*
X120008858Y-100583748D01*
X119829253Y-100404143D01*
X119843395Y-100390000D01*
X120202605Y-100390000D01*
X121158413Y-101345808D01*
X121422814Y-101250044D01*
X121563704Y-100960429D01*
X121645384Y-100648892D01*
X121664718Y-100327405D01*
X121620961Y-100008325D01*
X121515795Y-99703912D01*
X121422814Y-99529956D01*
X121158413Y-99434192D01*
X120202605Y-100390000D01*
X119843395Y-100390000D01*
X119829253Y-100375858D01*
X120008858Y-100196253D01*
X120023000Y-100210395D01*
X120978808Y-99254587D01*
X120883044Y-98990186D01*
X120593429Y-98849296D01*
X120281892Y-98767616D01*
X119960405Y-98748282D01*
X119641325Y-98792039D01*
X119457999Y-98855373D01*
X119457999Y-97425680D01*
X119546088Y-97462168D01*
X119861967Y-97525000D01*
X120184033Y-97525000D01*
X120499912Y-97462168D01*
X120797463Y-97338918D01*
X121065252Y-97159987D01*
X121292987Y-96932252D01*
X121471918Y-96664463D01*
X121595168Y-96366912D01*
X121658000Y-96051033D01*
X121658000Y-95728967D01*
X121595168Y-95413088D01*
X121471918Y-95115537D01*
X121292987Y-94847748D01*
X121065252Y-94620013D01*
X120797463Y-94441082D01*
X120499912Y-94317832D01*
X120184033Y-94255000D01*
X119861967Y-94255000D01*
X119546088Y-94317832D01*
X119457999Y-94354320D01*
X119457999Y-93079802D01*
X121549649Y-90988153D01*
X121670729Y-90964068D01*
X121840889Y-90893586D01*
X121994028Y-90791262D01*
X122124262Y-90661028D01*
X122226586Y-90507889D01*
X122297068Y-90337729D01*
X122333000Y-90157089D01*
X122333000Y-89972911D01*
X122297068Y-89792271D01*
X122226586Y-89622111D01*
X122124262Y-89468972D01*
X121994028Y-89338738D01*
X121840889Y-89236414D01*
X121789191Y-89215000D01*
X121840889Y-89193586D01*
X121994028Y-89091262D01*
X122124262Y-88961028D01*
X122226586Y-88807889D01*
X122297068Y-88637729D01*
X122333000Y-88457089D01*
X122333000Y-88272911D01*
X122297068Y-88092271D01*
X122226586Y-87922111D01*
X122124262Y-87768972D01*
X121994028Y-87638738D01*
X121840889Y-87536414D01*
X121670729Y-87465932D01*
X121490089Y-87430000D01*
X121305911Y-87430000D01*
X121125271Y-87465932D01*
X120955111Y-87536414D01*
X120801972Y-87638738D01*
X120671738Y-87768972D01*
X120569414Y-87922111D01*
X120498932Y-88092271D01*
X120474848Y-88213350D01*
X117687003Y-91001196D01*
X117657999Y-91024999D01*
X117620620Y-91070546D01*
X117563026Y-91140724D01*
X117497097Y-91264068D01*
X117492454Y-91272754D01*
X117448997Y-91416015D01*
X117438000Y-91527668D01*
X117438000Y-91527678D01*
X117434324Y-91565000D01*
X111708000Y-91565000D01*
X111708000Y-80315000D01*
X112009928Y-80315000D01*
X112022188Y-80439482D01*
X112058498Y-80559180D01*
X112117463Y-80669494D01*
X112196815Y-80766185D01*
X112293506Y-80845537D01*
X112403820Y-80904502D01*
X112523518Y-80940812D01*
X112648000Y-80953072D01*
X113262250Y-80950000D01*
X113421000Y-80791250D01*
X113421000Y-79542000D01*
X112171750Y-79542000D01*
X112013000Y-79700750D01*
X112009928Y-80315000D01*
X111708000Y-80315000D01*
X111708000Y-78515000D01*
X112009928Y-78515000D01*
X112013000Y-79129250D01*
X112171750Y-79288000D01*
X113421000Y-79288000D01*
X113421000Y-78038750D01*
X113262250Y-77880000D01*
X112648000Y-77876928D01*
X112523518Y-77889188D01*
X112403820Y-77925498D01*
X112293506Y-77984463D01*
X112196815Y-78063815D01*
X112117463Y-78160506D01*
X112058498Y-78270820D01*
X112022188Y-78390518D01*
X112009928Y-78515000D01*
X111708000Y-78515000D01*
X111708000Y-73735000D01*
X124296293Y-73735000D01*
X124166406Y-73864887D01*
G37*
%TD.AperFunction*%
%TD*%
M02*
