%TF.GenerationSoftware,KiCad,Pcbnew,(5.1.10)-1*%
%TF.CreationDate,2022-03-02T00:29:21+08:00*%
%TF.ProjectId,r71ram_uno,72373172-616d-45f7-956e-6f2e6b696361,rev?*%
%TF.SameCoordinates,Original*%
%TF.FileFunction,Soldermask,Top*%
%TF.FilePolarity,Negative*%
%FSLAX46Y46*%
G04 Gerber Fmt 4.6, Leading zero omitted, Abs format (unit mm)*
G04 Created by KiCad (PCBNEW (5.1.10)-1) date 2022-03-02 00:29:21*
%MOMM*%
%LPD*%
G01*
G04 APERTURE LIST*
%ADD10O,1.700000X1.700000*%
%ADD11R,1.700000X1.700000*%
%ADD12R,1.550000X1.300000*%
%ADD13C,2.000000*%
%ADD14C,1.800000*%
%ADD15R,1.800000X1.800000*%
%ADD16O,1.727200X2.032000*%
%ADD17C,4.064000*%
G04 APERTURE END LIST*
D10*
%TO.C,J3*%
X120973000Y-111370000D03*
X120973000Y-108830000D03*
D11*
X120973000Y-106290000D03*
%TD*%
D12*
%TO.C,SW11*%
X120823000Y-102590000D03*
X120823000Y-98090000D03*
X112873000Y-98090000D03*
X112873000Y-102590000D03*
%TD*%
%TO.C,D21*%
G36*
G01*
X121098000Y-77415001D02*
X121098000Y-76514999D01*
G75*
G02*
X121347999Y-76265000I249999J0D01*
G01*
X121998001Y-76265000D01*
G75*
G02*
X122248000Y-76514999I0J-249999D01*
G01*
X122248000Y-77415001D01*
G75*
G02*
X121998001Y-77665000I-249999J0D01*
G01*
X121347999Y-77665000D01*
G75*
G02*
X121098000Y-77415001I0J249999D01*
G01*
G37*
G36*
G01*
X119048000Y-77415001D02*
X119048000Y-76514999D01*
G75*
G02*
X119297999Y-76265000I249999J0D01*
G01*
X119948001Y-76265000D01*
G75*
G02*
X120198000Y-76514999I0J-249999D01*
G01*
X120198000Y-77415001D01*
G75*
G02*
X119948001Y-77665000I-249999J0D01*
G01*
X119297999Y-77665000D01*
G75*
G02*
X119048000Y-77415001I0J249999D01*
G01*
G37*
%TD*%
%TO.C,D11*%
G36*
G01*
X115348000Y-77465001D02*
X115348000Y-76564999D01*
G75*
G02*
X115597999Y-76315000I249999J0D01*
G01*
X116248001Y-76315000D01*
G75*
G02*
X116498000Y-76564999I0J-249999D01*
G01*
X116498000Y-77465001D01*
G75*
G02*
X116248001Y-77715000I-249999J0D01*
G01*
X115597999Y-77715000D01*
G75*
G02*
X115348000Y-77465001I0J249999D01*
G01*
G37*
G36*
G01*
X113298000Y-77465001D02*
X113298000Y-76564999D01*
G75*
G02*
X113547999Y-76315000I249999J0D01*
G01*
X114198001Y-76315000D01*
G75*
G02*
X114448000Y-76564999I0J-249999D01*
G01*
X114448000Y-77465001D01*
G75*
G02*
X114198001Y-77715000I-249999J0D01*
G01*
X113547999Y-77715000D01*
G75*
G02*
X113298000Y-77465001I0J249999D01*
G01*
G37*
%TD*%
D13*
%TO.C,SW1*%
X120023000Y-95890000D03*
X120023000Y-100390000D03*
X113523000Y-95890000D03*
X113523000Y-100390000D03*
%TD*%
D14*
%TO.C,D2*%
X121938000Y-79365000D03*
D15*
X119398000Y-79365000D03*
%TD*%
D14*
%TO.C,D1*%
X116088000Y-79415000D03*
D15*
X113548000Y-79415000D03*
%TD*%
D10*
%TO.C,J2*%
X171398000Y-113945000D03*
X171398000Y-111405000D03*
X171398000Y-108865000D03*
X171398000Y-106325000D03*
X171398000Y-103785000D03*
X171398000Y-101245000D03*
X171398000Y-98705000D03*
D11*
X171398000Y-96165000D03*
%TD*%
D10*
%TO.C,J1*%
X124098000Y-118405000D03*
X124098000Y-115865000D03*
X124098000Y-113325000D03*
X124098000Y-110785000D03*
X124098000Y-108245000D03*
X124098000Y-105705000D03*
X124098000Y-103165000D03*
X124098000Y-100625000D03*
X124098000Y-98085000D03*
X124098000Y-95545000D03*
X124098000Y-93005000D03*
D11*
X124098000Y-90465000D03*
%TD*%
D16*
%TO.C,P1*%
X138938000Y-123825000D03*
X141478000Y-123825000D03*
X144018000Y-123825000D03*
X146558000Y-123825000D03*
X149098000Y-123825000D03*
X151638000Y-123825000D03*
X154178000Y-123825000D03*
X156718000Y-123825000D03*
%TD*%
%TO.C,P2*%
X161798000Y-123825000D03*
X164338000Y-123825000D03*
X166878000Y-123825000D03*
X169418000Y-123825000D03*
X171958000Y-123825000D03*
X174498000Y-123825000D03*
%TD*%
%TO.C,P3*%
X129794000Y-75565000D03*
X132334000Y-75565000D03*
X134874000Y-75565000D03*
X137414000Y-75565000D03*
X139954000Y-75565000D03*
X142494000Y-75565000D03*
X145034000Y-75565000D03*
X147574000Y-75565000D03*
X150114000Y-75565000D03*
X152654000Y-75565000D03*
%TD*%
%TO.C,P4*%
X156718000Y-75565000D03*
X159258000Y-75565000D03*
X161798000Y-75565000D03*
X164338000Y-75565000D03*
X166878000Y-75565000D03*
X169418000Y-75565000D03*
X171958000Y-75565000D03*
X174498000Y-75565000D03*
%TD*%
D17*
%TO.C,P5*%
X124968000Y-123825000D03*
%TD*%
%TO.C,P6*%
X177038000Y-118745000D03*
%TD*%
%TO.C,P7*%
X126238000Y-75565000D03*
%TD*%
%TO.C,P8*%
X177038000Y-90805000D03*
%TD*%
M02*
