%TF.GenerationSoftware,KiCad,Pcbnew,(5.1.10)-1*%
%TF.CreationDate,2022-03-02T00:29:21+08:00*%
%TF.ProjectId,r71ram_uno,72373172-616d-45f7-956e-6f2e6b696361,rev?*%
%TF.SameCoordinates,Original*%
%TF.FileFunction,Soldermask,Bot*%
%TF.FilePolarity,Negative*%
%FSLAX46Y46*%
G04 Gerber Fmt 4.6, Leading zero omitted, Abs format (unit mm)*
G04 Created by KiCad (PCBNEW (5.1.10)-1) date 2022-03-02 00:29:21*
%MOMM*%
%LPD*%
G01*
G04 APERTURE LIST*
%ADD10O,1.700000X1.700000*%
%ADD11R,1.700000X1.700000*%
%ADD12C,2.000000*%
%ADD13C,1.800000*%
%ADD14R,1.800000X1.800000*%
%ADD15O,1.727200X2.032000*%
%ADD16C,4.064000*%
G04 APERTURE END LIST*
D10*
%TO.C,J3*%
X120973000Y-111370000D03*
X120973000Y-108830000D03*
D11*
X120973000Y-106290000D03*
%TD*%
%TO.C,R3*%
G36*
G01*
X134548000Y-79889999D02*
X134548000Y-80790001D01*
G75*
G02*
X134298001Y-81040000I-249999J0D01*
G01*
X133597999Y-81040000D01*
G75*
G02*
X133348000Y-80790001I0J249999D01*
G01*
X133348000Y-79889999D01*
G75*
G02*
X133597999Y-79640000I249999J0D01*
G01*
X134298001Y-79640000D01*
G75*
G02*
X134548000Y-79889999I0J-249999D01*
G01*
G37*
G36*
G01*
X136548000Y-79889999D02*
X136548000Y-80790001D01*
G75*
G02*
X136298001Y-81040000I-249999J0D01*
G01*
X135597999Y-81040000D01*
G75*
G02*
X135348000Y-80790001I0J249999D01*
G01*
X135348000Y-79889999D01*
G75*
G02*
X135597999Y-79640000I249999J0D01*
G01*
X136298001Y-79640000D01*
G75*
G02*
X136548000Y-79889999I0J-249999D01*
G01*
G37*
%TD*%
%TO.C,R2*%
G36*
G01*
X134498000Y-87914999D02*
X134498000Y-88815001D01*
G75*
G02*
X134248001Y-89065000I-249999J0D01*
G01*
X133547999Y-89065000D01*
G75*
G02*
X133298000Y-88815001I0J249999D01*
G01*
X133298000Y-87914999D01*
G75*
G02*
X133547999Y-87665000I249999J0D01*
G01*
X134248001Y-87665000D01*
G75*
G02*
X134498000Y-87914999I0J-249999D01*
G01*
G37*
G36*
G01*
X136498000Y-87914999D02*
X136498000Y-88815001D01*
G75*
G02*
X136248001Y-89065000I-249999J0D01*
G01*
X135547999Y-89065000D01*
G75*
G02*
X135298000Y-88815001I0J249999D01*
G01*
X135298000Y-87914999D01*
G75*
G02*
X135547999Y-87665000I249999J0D01*
G01*
X136248001Y-87665000D01*
G75*
G02*
X136498000Y-87914999I0J-249999D01*
G01*
G37*
%TD*%
%TO.C,C1*%
G36*
G01*
X128923000Y-116915000D02*
X127973000Y-116915000D01*
G75*
G02*
X127723000Y-116665000I0J250000D01*
G01*
X127723000Y-115990000D01*
G75*
G02*
X127973000Y-115740000I250000J0D01*
G01*
X128923000Y-115740000D01*
G75*
G02*
X129173000Y-115990000I0J-250000D01*
G01*
X129173000Y-116665000D01*
G75*
G02*
X128923000Y-116915000I-250000J0D01*
G01*
G37*
G36*
G01*
X128923000Y-118990000D02*
X127973000Y-118990000D01*
G75*
G02*
X127723000Y-118740000I0J250000D01*
G01*
X127723000Y-118065000D01*
G75*
G02*
X127973000Y-117815000I250000J0D01*
G01*
X128923000Y-117815000D01*
G75*
G02*
X129173000Y-118065000I0J-250000D01*
G01*
X129173000Y-118740000D01*
G75*
G02*
X128923000Y-118990000I-250000J0D01*
G01*
G37*
%TD*%
D12*
%TO.C,SW1*%
X120023000Y-95890000D03*
X120023000Y-100390000D03*
X113523000Y-95890000D03*
X113523000Y-100390000D03*
%TD*%
D13*
%TO.C,D2*%
X121938000Y-79365000D03*
D14*
X119398000Y-79365000D03*
%TD*%
D13*
%TO.C,D1*%
X116088000Y-79415000D03*
D14*
X113548000Y-79415000D03*
%TD*%
D10*
%TO.C,J2*%
X171398000Y-113945000D03*
X171398000Y-111405000D03*
X171398000Y-108865000D03*
X171398000Y-106325000D03*
X171398000Y-103785000D03*
X171398000Y-101245000D03*
X171398000Y-98705000D03*
D11*
X171398000Y-96165000D03*
%TD*%
D10*
%TO.C,J1*%
X124098000Y-118405000D03*
X124098000Y-115865000D03*
X124098000Y-113325000D03*
X124098000Y-110785000D03*
X124098000Y-108245000D03*
X124098000Y-105705000D03*
X124098000Y-103165000D03*
X124098000Y-100625000D03*
X124098000Y-98085000D03*
X124098000Y-95545000D03*
X124098000Y-93005000D03*
D11*
X124098000Y-90465000D03*
%TD*%
D15*
%TO.C,P1*%
X138938000Y-123825000D03*
X141478000Y-123825000D03*
X144018000Y-123825000D03*
X146558000Y-123825000D03*
X149098000Y-123825000D03*
X151638000Y-123825000D03*
X154178000Y-123825000D03*
X156718000Y-123825000D03*
%TD*%
%TO.C,P2*%
X161798000Y-123825000D03*
X164338000Y-123825000D03*
X166878000Y-123825000D03*
X169418000Y-123825000D03*
X171958000Y-123825000D03*
X174498000Y-123825000D03*
%TD*%
%TO.C,P3*%
X129794000Y-75565000D03*
X132334000Y-75565000D03*
X134874000Y-75565000D03*
X137414000Y-75565000D03*
X139954000Y-75565000D03*
X142494000Y-75565000D03*
X145034000Y-75565000D03*
X147574000Y-75565000D03*
X150114000Y-75565000D03*
X152654000Y-75565000D03*
%TD*%
%TO.C,P4*%
X156718000Y-75565000D03*
X159258000Y-75565000D03*
X161798000Y-75565000D03*
X164338000Y-75565000D03*
X166878000Y-75565000D03*
X169418000Y-75565000D03*
X171958000Y-75565000D03*
X174498000Y-75565000D03*
%TD*%
D16*
%TO.C,P5*%
X124968000Y-123825000D03*
%TD*%
%TO.C,P6*%
X177038000Y-118745000D03*
%TD*%
%TO.C,P7*%
X126238000Y-75565000D03*
%TD*%
%TO.C,P8*%
X177038000Y-90805000D03*
%TD*%
M02*
